<svg width="16" height="12" viewBox="0 0 16 12" fill="none" xmlns="http://www.w3.org/2000/svg">
<path fill-rule="evenodd" clip-rule="evenodd" d="M9.07708 0.4069C8.91875 0.573567 8.83542 0.7819 8.83542 0.998568C8.83542 1.21523 8.91875 1.42357 9.07708 1.59023L12.6604 5.16523L1.33542 5.16523C0.877084 5.16523 0.502084 5.54023 0.502084 5.99857C0.502084 6.4569 0.877084 6.8319 1.33542 6.8319L12.6604 6.8319L9.07708 10.4069C8.75208 10.7319 8.75208 11.2652 9.07708 11.5902C9.40208 11.9152 9.93542 11.9152 10.2604 11.5902L15.2604 6.59023C15.3354 6.51523 15.3938 6.42357 15.4354 6.32357C15.4521 6.2819 15.4688 6.24857 15.4688 6.2069C15.5104 6.07357 15.5104 5.92357 15.4688 5.79023C15.4688 5.74857 15.4521 5.71523 15.4354 5.67357C15.3938 5.57357 15.3354 5.4819 15.2604 5.4069L10.2604 0.4069C9.93542 0.0819006 9.40208 0.0819006 9.07708 0.4069Z" fill="#123060"/>
</svg>
