<svg width="60" height="60" viewBox="0 0 60 60" fill="none" xmlns="http://www.w3.org/2000/svg">
<g clip-path="url(#clip0_1493_10550)">
<path d="M42.5815 26.3486L40.2448 25.7651L41.4835 23.6983L36.311 18.5262L34.2446 19.7644L33.6621 17.4287H26.3447L25.7612 19.7653L23.6944 18.5271L18.5223 23.6992L19.7605 25.7661L17.4258 26.3486V33.665L19.7624 34.2485L18.5242 36.3148L23.6963 41.4874L25.7631 40.2487L26.3456 42.5844H33.663L34.2455 40.2478L36.3119 41.4865L41.4845 36.3139L40.2458 34.2475L42.5815 33.665V26.3486ZM30.0036 35.8117C26.7973 35.8117 24.1985 33.212 24.1985 30.0065C24.1985 26.8011 26.7973 24.2014 30.0036 24.2014C33.209 24.2014 35.8088 26.8011 35.8088 30.0065C35.8088 33.212 33.209 35.8117 30.0036 35.8117Z" fill="#E7AD5A"/>
<path d="M30.0051 36.7797C26.2715 36.7797 23.2324 33.7406 23.2324 30.0071C23.2324 26.2735 26.2715 23.2344 30.0051 23.2344C33.7392 23.2344 36.7778 26.2735 36.7778 30.0071C36.7778 33.7406 33.7392 36.7797 30.0051 36.7797ZM30.0051 25.1694C27.3378 25.1694 25.1675 27.3397 25.1675 30.0071C25.1675 32.6748 27.3378 34.8447 30.0051 34.8447C32.6729 34.8447 34.8427 32.6748 34.8427 30.0071C34.8427 27.3397 32.6729 25.1694 30.0051 25.1694Z" fill="#123060"/>
<path d="M31.9385 30.0063C31.9385 31.075 31.072 31.9414 30.0034 31.9414C28.9348 31.9414 28.0684 31.075 28.0684 30.0063C28.0684 28.9377 28.9348 28.0713 30.0034 28.0713C31.072 28.0713 31.9385 28.9377 31.9385 30.0063Z" fill="#E7AD5A"/>
<path d="M11.1621 56.1093C10.4062 56.1093 9.69144 56.0399 9.03902 55.9015L9.43963 54.008C9.96025 54.1181 10.5409 54.1743 11.1621 54.1743V56.1093ZM6.94948 55.1158C6.52052 54.8659 6.12888 54.5664 5.78732 54.2239C5.58607 54.0226 5.39757 53.802 5.22608 53.5705L6.78461 52.423C6.89515 52.5742 7.01893 52.7192 7.15546 52.8548C7.37892 53.0783 7.63828 53.2767 7.92268 53.442L6.94948 55.1158ZM4.23918 51.5358C4.05069 50.8867 3.9373 50.1677 3.90234 49.3995L5.83551 49.3145C5.86291 49.9291 5.95078 50.4941 6.09676 50.993L4.23918 51.5358Z" fill="#123060"/>
<path d="M11.1364 59.9736C7.81622 59.9736 5.06529 58.9758 3.05087 56.9604C-0.552311 53.3577 -0.959541 47.5223 1.8717 40.085L3.67967 40.7728C1.90949 45.4257 0.59946 51.7737 4.41901 55.5928C8.55604 59.7298 16.729 58.6286 26.8384 52.5702L27.8324 54.2294C21.4726 58.0414 15.7534 59.9726 11.1364 59.9736Z" fill="#123060"/>
<path d="M56.1179 11.6637L54.1847 11.5843C54.2097 10.9555 54.1828 10.3664 54.1016 9.8349L56.0144 9.54199C56.1141 10.1968 56.1486 10.9111 56.1179 11.6637Z" fill="#123060"/>
<path d="M52.1406 23.6707L50.4375 22.7523C52.2941 19.306 53.521 16.0708 53.9826 13.3945L55.8898 13.7233C55.3923 16.6028 54.096 20.0425 52.1406 23.6707Z" fill="#123060"/>
<path d="M45.2769 55.6832C44.735 55.5642 44.1776 55.4201 43.6059 55.2486L44.1572 53.3948C44.684 53.5507 45.1956 53.6844 45.6921 53.7935L45.2769 55.6832ZM41.7115 54.6141C41.1115 54.3916 40.4964 54.1441 39.8695 53.872L40.6386 52.0956C41.2334 52.3541 41.8168 52.5879 42.3871 52.8L41.7115 54.6141ZM38.0729 53.0419C37.4951 52.7603 36.9098 52.4575 36.3164 52.1363L37.2386 50.4355C37.8074 50.7431 38.3686 51.0322 38.9214 51.3024L38.0729 53.0419Z" fill="#123060"/>
<path d="M48.8713 59.9742C44.2533 59.9742 38.5365 58.0429 32.1758 54.229L33.1693 52.5698C43.2782 58.6292 51.4488 59.7313 55.5892 55.592C59.5783 51.6042 58.0118 44.8759 55.9945 39.933L57.7864 39.2012C60.9965 47.0685 60.7093 53.209 56.9582 56.9591C54.9429 58.9745 52.191 59.9742 48.8713 59.9742Z" fill="#123060"/>
<path d="M7.86646 23.6955C7.50741 23.0308 7.1701 22.3727 6.85547 21.7198L8.59777 20.8789C8.9006 21.5058 9.22468 22.1398 9.56955 22.7776L7.86646 23.6955Z" fill="#123060"/>
<path d="M5.95825 19.739C4.05059 15.2051 2.47128 9.10374 5.78723 5.78921C6.9338 4.64169 8.55516 4.01195 10.6083 3.91699L10.6976 5.85015C9.14239 5.92149 7.94952 6.36085 7.15537 7.15735C4.36476 9.94844 6.63665 16.3611 7.74259 18.9892L5.95825 19.739Z" fill="#123060"/>
<path d="M58.8362 5.68555L57.0995 6.5378C59.671 11.7808 56.8402 20.1238 51.6723 28.2556C49.0466 24.4824 45.9494 20.7611 42.6008 17.4116C41.3673 16.1772 40.0398 14.938 38.6556 13.7276L37.3819 15.1846C38.7326 16.3657 40.0294 17.576 41.2327 18.7797C44.6946 22.2417 47.8778 26.1071 50.5267 30.0041C47.8216 33.9895 44.603 37.8652 41.2327 41.235C38.2701 44.1976 34.9178 47.0473 31.5371 49.4746L32.6653 51.0468C36.13 48.5586 39.5669 45.6385 42.6018 42.6032C45.904 39.3 49.0216 35.5886 51.6822 31.761C52.3526 32.816 52.9932 33.8695 53.5719 34.9145L55.2651 33.9767C54.5371 32.6629 53.7274 31.3354 52.8614 30.0088C58.6812 21.0805 61.8191 11.7671 58.8362 5.68555Z" fill="#123060"/>
<path d="M9.47064 30.019C12.1167 26.1215 15.2952 22.2614 18.776 18.7782C22.1458 15.4084 26.023 12.1883 30.0093 9.48226C31.0194 10.1654 32.0044 10.8679 32.9492 11.5808L34.1152 10.0364C33.346 9.45723 32.5595 8.88937 31.7601 8.3338C39.8896 3.16925 48.2298 0.339899 53.4728 2.91084L54.325 1.1742C48.244 -1.81152 38.9306 1.32679 30.0022 7.14849C20.2807 0.818938 9.08939 -2.98833 3.05086 3.05303C-0.820191 6.92314 -1.01058 13.2971 2.49765 21.4852C3.67871 24.2418 5.26181 27.1259 7.14442 30.011C6.11689 31.5842 5.17346 33.1597 4.34152 34.7164L6.04839 35.6286C6.73246 34.3488 7.50063 33.0548 8.32312 31.7595C10.9295 35.5067 14.0206 39.2143 17.4088 42.6026C20.4441 45.6379 23.8796 48.5565 27.3453 51.0462L28.4735 49.474C25.0933 47.0466 21.7395 44.197 18.7779 41.2344C15.2725 37.73 12.0973 33.8854 9.47064 30.019ZM4.27586 20.7222C2.06396 15.5614 0.294259 8.5445 4.419 4.42118C9.50324 -0.664949 19.5871 2.86548 28.2491 8.33097C24.4224 10.9917 20.711 14.1078 17.4088 17.41C14.0409 20.7779 10.9413 24.4955 8.31934 28.2668C6.69278 25.7086 5.3218 23.1623 4.27586 20.7222Z" fill="#123060"/>
<path d="M56.1279 7.75388C53.9935 7.75388 52.2578 6.01819 52.2578 3.88378C52.2578 1.74936 53.9935 0.0136719 56.1279 0.0136719C58.2623 0.0136719 59.998 1.74936 59.998 3.88378C59.998 6.01819 58.2623 7.75388 56.1279 7.75388Z" fill="#E7AD5A"/>
<path d="M3.88182 41.6172C1.74741 41.6172 0.0117188 39.8815 0.0117188 37.7471C0.0117188 35.6126 1.74741 33.877 3.88182 33.877C6.01624 33.877 7.75193 35.6126 7.75193 37.7471C7.75193 39.8815 6.01624 41.6172 3.88182 41.6172Z" fill="#E7AD5A"/>
<path d="M30.0049 56.1299C27.8705 56.1299 26.1348 54.3942 26.1348 52.2598C26.1348 50.1253 27.8705 48.3896 30.0049 48.3896C32.1393 48.3896 33.875 50.1253 33.875 52.2598C33.875 54.3942 32.1393 56.1299 30.0049 56.1299Z" fill="#E7AD5A"/>
<path d="M35.8096 16.4619C33.6751 16.4619 31.9395 14.7262 31.9395 12.5918C31.9395 10.4574 33.6751 8.72168 35.8096 8.72168C37.944 8.72168 39.6797 10.4574 39.6797 12.5918C39.6797 14.7262 37.944 16.4619 35.8096 16.4619Z" fill="#E7AD5A"/>
<path d="M56.1279 40.6494C53.9935 40.6494 52.2578 38.9137 52.2578 36.7793C52.2578 34.6449 53.9935 32.9092 56.1279 32.9092C58.2623 32.9092 59.998 34.6449 59.998 36.7793C59.998 38.9137 58.2623 40.6494 56.1279 40.6494Z" fill="#E7AD5A"/>
</g>
<defs>
<clipPath id="clip0_1493_10550">
<rect width="60" height="60" fill="white"/>
</clipPath>
</defs>
</svg>
