<svg width="23" height="23" viewBox="0 0 23 23" fill="none" xmlns="http://www.w3.org/2000/svg">
<g clip-path="url(#clip0_519_94068)">
<path d="M18.7652 18.9114C18.5383 18.9114 18.3412 18.7473 18.3033 18.5197C17.965 16.5446 16.0524 13.0974 11.201 12.896V15.4301C11.201 15.6057 11.1029 15.7666 10.9468 15.8469C10.7906 15.9273 10.6027 15.9136 10.4598 15.8116L3.43066 10.7907C3.30747 10.7027 3.23438 10.5606 3.23438 10.4093C3.23438 10.2578 3.30747 10.1158 3.43066 10.0278L10.4598 5.007C10.6027 4.90494 10.7907 4.89128 10.9468 4.97163C11.1029 5.05197 11.201 5.21285 11.201 5.38844V7.96078C14.1999 8.25991 19.2344 10.4245 19.2344 18.4426C19.2344 18.6865 19.0473 18.8897 18.8043 18.9098C18.7912 18.9108 18.7782 18.9114 18.7652 18.9114Z" fill="#123060"/>
</g>
<defs>
<clipPath id="clip0_519_94068">
<rect width="16" height="16" fill="white" transform="translate(22.1621 14.8438) rotate(150)"/>
</clipPath>
</defs>
</svg>
