<svg width="36" height="36" viewBox="0 0 36 36" fill="none" xmlns="http://www.w3.org/2000/svg">
<path d="M4.37305 10.5469L6.24118 33.0986C6.37505 34.7249 7.76035 36 9.39287 36H26.6057C28.2382 36 29.6235 34.7249 29.7574 33.0986L31.6255 10.5469H4.37305ZM12.7248 31.7812C12.1727 31.7812 11.7083 31.3518 11.6732 30.7924L10.6186 13.7768C10.5825 13.1949 11.0243 12.6944 11.6053 12.6583C12.2078 12.616 12.6867 13.0631 12.7238 13.645L13.7785 30.6606C13.8158 31.2632 13.339 31.7812 12.7248 31.7812ZM19.0539 30.7266C19.0539 31.3095 18.5822 31.7812 17.9993 31.7812C17.4163 31.7812 16.9446 31.3095 16.9446 30.7266V13.7109C16.9446 13.128 17.4163 12.6562 17.9993 12.6562C18.5822 12.6562 19.0539 13.128 19.0539 13.7109V30.7266ZM25.38 13.7769L24.3253 30.7925C24.2906 31.3462 23.8291 31.8075 23.2067 31.7792C22.6258 31.7431 22.184 31.2426 22.22 30.6607L23.2747 13.6451C23.3108 13.0631 23.8206 12.6398 24.3933 12.6584C24.9742 12.6944 25.416 13.195 25.38 13.7769Z" fill="#123060"/>
<path d="M31.7109 4.21875H25.3828V3.16406C25.3828 1.41933 23.9635 0 22.2188 0H13.7812C12.0365 0 10.6172 1.41933 10.6172 3.16406V4.21875H4.28906C3.12405 4.21875 2.17969 5.16312 2.17969 6.32812C2.17969 7.49299 3.12405 8.4375 4.28906 8.4375C13.9898 8.4375 22.0106 8.4375 31.7109 8.4375C32.8759 8.4375 33.8203 7.49299 33.8203 6.32812C33.8203 5.16312 32.8759 4.21875 31.7109 4.21875ZM23.2734 4.21875H12.7266V3.16406C12.7266 2.58216 13.1993 2.10938 13.7812 2.10938H22.2188C22.8007 2.10938 23.2734 2.58216 23.2734 3.16406V4.21875Z" fill="#123060"/>
</svg>
