<svg width="28" height="28" viewBox="0 0 28 28" fill="none" xmlns="http://www.w3.org/2000/svg">
<g clip-path="url(#clip0_416_59419)">
<path d="M13.9997 0.583496C6.60126 0.583496 0.583008 6.60233 0.583008 14.0002C0.583008 21.398 6.60126 27.4168 13.9997 27.4168C21.3981 27.4168 27.4163 21.398 27.4163 14.0002C27.4163 6.60233 21.3981 0.583496 13.9997 0.583496ZM8.74967 12.2502C8.74967 9.35566 11.1046 7.00016 13.9997 7.00016C16.8948 7.00016 19.2497 9.35566 19.2497 12.2502V14.0002C19.2497 16.8947 16.8948 19.2502 13.9997 19.2502C11.1046 19.2502 8.74967 16.8947 8.74967 14.0002V12.2502ZM13.9997 26.2502C11.4388 26.2502 9.06117 25.4574 7.09359 24.1087C8.07242 22.2607 10.0126 21.0002 12.2497 21.0002H15.7497C17.9868 21.0002 19.9269 22.2607 20.9058 24.1087C18.9382 25.4574 16.5605 26.2502 13.9997 26.2502Z" fill="#3D3D3D"/>
</g>
<defs>
<clipPath id="clip0_416_59419">
<rect width="28" height="28" fill="white"/>
</clipPath>
</defs>
</svg>
