<svg width="16" height="16" viewBox="0 0 16 16" fill="none" xmlns="http://www.w3.org/2000/svg">
<g clip-path="url(#clip0_416_57551)">
<path d="M8 0C3.589 0 0 3.589 0 8C0 12.411 3.589 16 8 16C12.411 16 16 12.411 16 8C16 3.589 12.411 0 8 0ZM8 13C7.4475 13 7 12.5525 7 12C7 11.4475 7.4475 11 8 11C8.5525 11 9 11.4475 9 12C9 12.5525 8.5525 13 8 13ZM10.463 7.1775C9.984 7.7485 9.1055 8.2465 8.776 8.7495C8.5835 9.0425 8.585 9.383 8.585 9.7035H7.395C7.395 9.3355 7.3695 8.7965 7.638 8.3065C7.7995 8.011 8.083 7.7055 8.4875 7.39C9.29 6.7565 9.6285 6.427 9.6285 5.7515C9.6285 4.9995 9.067 4.6955 8.3115 4.6955C7.8135 4.6955 7.262 4.7715 6.2845 5.254L5.7745 4.186C6.596 3.7285 7.476 3.5 8.4145 3.5C9.2075 3.5 9.8365 3.694 10.302 4.0825C10.7675 4.471 11 5.007 11 5.691C11 6.2655 10.844 6.724 10.463 7.1775Z" fill="#3D3D3D"/>
</g>
<defs>
<clipPath id="clip0_416_57551">
<rect width="16" height="16" fill="white"/>
</clipPath>
</defs>
</svg>
