<svg width="20" height="20" viewBox="0 0 20 20" fill="none" xmlns="http://www.w3.org/2000/svg">
<g clip-path="url(#clip0_416_60084)">
<path d="M10 0C4.48625 0 0 4.48625 0 10C0 15.5138 4.48625 20 10 20C15.5138 20 20 15.5138 20 10C20 4.48625 15.5138 0 10 0ZM11.2056 4.375L10.625 11.875H9.375L8.79438 4.375H11.2056ZM10 15.625C9.30937 15.625 8.75 15.0656 8.75 14.375C8.75 13.6844 9.30937 13.125 10 13.125C10.6906 13.125 11.25 13.6844 11.25 14.375C11.25 15.0656 10.6906 15.625 10 15.625Z" fill="#E7AD5A"/>
</g>
<defs>
<clipPath id="clip0_416_60084">
<rect width="20" height="20" fill="white"/>
</clipPath>
</defs>
</svg>
