<svg width="24" height="24" viewBox="0 0 24 24" fill="none" xmlns="http://www.w3.org/2000/svg">
<g clip-path="url(#clip0_416_60113)">
<path d="M12 0C5.3835 0 0 5.3835 0 12C0 18.6165 5.3835 24 12 24C18.6165 24 24 18.6165 24 12C24 5.3835 18.6165 0 12 0ZM13.4468 5.25L12.75 14.25H11.25L10.5533 5.25H13.4468ZM12 18.75C11.1713 18.75 10.5 18.0788 10.5 17.25C10.5 16.4212 11.1713 15.75 12 15.75C12.8287 15.75 13.5 16.4212 13.5 17.25C13.5 18.0788 12.8287 18.75 12 18.75Z" fill="white"/>
</g>
<defs>
<clipPath id="clip0_416_60113">
<rect width="24" height="24" fill="white"/>
</clipPath>
</defs>
</svg>
