<svg width="20" height="20" viewBox="0 0 20 20" fill="none" xmlns="http://www.w3.org/2000/svg">
<g clip-path="url(#clip0_416_58993)">
<path d="M4.66602 16.1663V13.833H6.99935V16.1663H4.66602Z" fill="#3D3D3D" stroke="#3D3D3D"/>
<path d="M7.08268 9.1665H4.58268C4.35256 9.1665 4.16602 9.35305 4.16602 9.58317V12.0832C4.16602 12.3133 4.35256 12.4998 4.58268 12.4998H7.08268C7.3128 12.4998 7.49935 12.3133 7.49935 12.0832V9.58317C7.49935 9.35305 7.3128 9.1665 7.08268 9.1665Z" fill="#3D3D3D"/>
<path d="M11.2497 13.333H8.74967C8.51956 13.333 8.33301 13.5196 8.33301 13.7497V16.2497C8.33301 16.4798 8.51956 16.6663 8.74967 16.6663H11.2497C11.4798 16.6663 11.6663 16.4798 11.6663 16.2497V13.7497C11.6663 13.5196 11.4798 13.333 11.2497 13.333Z" fill="#3D3D3D"/>
<path d="M11.2497 9.1665H8.74967C8.51956 9.1665 8.33301 9.35305 8.33301 9.58317V12.0832C8.33301 12.3133 8.51956 12.4998 8.74967 12.4998H11.2497C11.4798 12.4998 11.6663 12.3133 11.6663 12.0832V9.58317C11.6663 9.35305 11.4798 9.1665 11.2497 9.1665Z" fill="#3D3D3D"/>
<path d="M15.4167 9.1665H12.9167C12.6865 9.1665 12.5 9.35305 12.5 9.58317V12.0832C12.5 12.3133 12.6865 12.4998 12.9167 12.4998H15.4167C15.6468 12.4998 15.8333 12.3133 15.8333 12.0832V9.58317C15.8333 9.35305 15.6468 9.1665 15.4167 9.1665Z" fill="#3D3D3D"/>
<path d="M17.083 3.33301H2.91634C2.36401 3.33367 1.83449 3.55338 1.44393 3.94393C1.05338 4.33449 0.833669 4.86401 0.833008 5.41634V17.083C0.833669 17.6353 1.05338 18.1649 1.44393 18.5554C1.83449 18.946 2.36401 19.1657 2.91634 19.1663H17.083C17.6353 19.1657 18.1649 18.946 18.5554 18.5554C18.946 18.1649 19.1657 17.6353 19.1663 17.083V5.41634C19.1657 4.86401 18.946 4.33449 18.5554 3.94393C18.1649 3.55338 17.6353 3.33367 17.083 3.33301ZM18.333 17.083C18.333 17.4145 18.2013 17.7325 17.9669 17.9669C17.7325 18.2013 17.4145 18.333 17.083 18.333H2.91634C2.58482 18.333 2.26688 18.2013 2.03246 17.9669C1.79804 17.7325 1.66634 17.4145 1.66634 17.083V7.49967H18.333V17.083Z" fill="#3D3D3D"/>
<path d="M14.9997 2.49984V0.833171C14.9997 0.722664 14.9558 0.616683 14.8776 0.538543C14.7995 0.460403 14.6935 0.416504 14.583 0.416504H13.7497C13.6392 0.416504 13.5332 0.460403 13.455 0.538543C13.3769 0.616683 13.333 0.722664 13.333 0.833171V2.49984H14.9997Z" fill="#3D3D3D"/>
<path d="M6.66667 2.49984V0.833171C6.66667 0.722664 6.62277 0.616683 6.54463 0.538543C6.46649 0.460403 6.36051 0.416504 6.25 0.416504H5.41667C5.30616 0.416504 5.20018 0.460403 5.12204 0.538543C5.0439 0.616683 5 0.722664 5 0.833171V2.49984H6.66667Z" fill="#3D3D3D"/>
</g>
<defs>
<clipPath id="clip0_416_58993">
<rect width="20" height="20" fill="white"/>
</clipPath>
</defs>
</svg>
