<svg width="21" height="20" viewBox="0 0 21 20" fill="none" xmlns="http://www.w3.org/2000/svg">
<path d="M19.1983 15.2751C19.1983 15.5751 19.1316 15.8834 18.99 16.1834C18.8483 16.4834 18.665 16.7667 18.4233 17.0334C18.015 17.4834 17.565 17.8084 17.0566 18.0167C16.5566 18.2251 16.015 18.3334 15.4316 18.3334C14.5816 18.3334 13.6733 18.1334 12.715 17.7251C11.7566 17.3167 10.7983 16.7667 9.84831 16.0751C8.88997 15.3751 7.98164 14.6001 7.11497 13.7417C6.25664 12.8751 5.48164 11.9667 4.78997 11.0167C4.10664 10.0667 3.55664 9.11675 3.15664 8.17508C2.75664 7.22508 2.55664 6.31675 2.55664 5.45008C2.55664 4.88341 2.65664 4.34175 2.85664 3.84175C3.05664 3.33341 3.37331 2.86675 3.81497 2.45008C4.34831 1.92508 4.93164 1.66675 5.54831 1.66675C5.78164 1.66675 6.01497 1.71675 6.22331 1.81675C6.43997 1.91675 6.63164 2.06675 6.78164 2.28341L8.71497 5.00842C8.86497 5.21675 8.97331 5.40841 9.04831 5.59175C9.12331 5.76675 9.16497 5.94175 9.16497 6.10008C9.16497 6.30008 9.10664 6.50008 8.98997 6.69175C8.88164 6.88341 8.72331 7.08341 8.52331 7.28341L7.88997 7.94175C7.79831 8.03341 7.75664 8.14175 7.75664 8.27508C7.75664 8.34175 7.76497 8.40008 7.78164 8.46675C7.80664 8.53341 7.83164 8.58341 7.84831 8.63341C7.99831 8.90841 8.25664 9.26675 8.62331 9.70008C8.99831 10.1334 9.39831 10.5751 9.83164 11.0167C10.2816 11.4584 10.715 11.8667 11.1566 12.2417C11.59 12.6084 11.9483 12.8584 12.2316 13.0084C12.2733 13.0251 12.3233 13.0501 12.3816 13.0751C12.4483 13.1001 12.515 13.1084 12.59 13.1084C12.7316 13.1084 12.84 13.0584 12.9316 12.9667L13.565 12.3417C13.7733 12.1334 13.9733 11.9751 14.165 11.8751C14.3566 11.7584 14.5483 11.7001 14.7566 11.7001C14.915 11.7001 15.0816 11.7334 15.265 11.8084C15.4483 11.8834 15.64 11.9917 15.8483 12.1334L18.6066 14.0917C18.8233 14.2417 18.9733 14.4167 19.065 14.6251C19.1483 14.8334 19.1983 15.0417 19.1983 15.2751Z" stroke="white" stroke-width="1.5" stroke-miterlimit="10"/>
</svg>
