<svg width="14" height="14" viewBox="0 0 14 14" fill="none" xmlns="http://www.w3.org/2000/svg">
<circle cx="7" cy="7" r="7" fill="white"/>
<g clip-path="url(#clip0_416_57650)">
<path d="M7.00039 1.3999C5.89282 1.3999 4.81011 1.72834 3.8892 2.34367C2.96828 2.95901 2.25052 3.83361 1.82667 4.85687C1.40282 5.88014 1.29192 7.00611 1.508 8.09241C1.72407 9.1787 2.25742 10.1765 3.0406 10.9597C3.82377 11.7429 4.82159 12.2762 5.90789 12.4923C6.99418 12.7084 8.12015 12.5975 9.14342 12.1736C10.1667 11.7498 11.0413 11.032 11.6566 10.1111C12.272 9.19018 12.6004 8.10748 12.6004 6.9999C12.5961 5.51602 12.0047 4.09416 10.9554 3.0449C9.90613 1.99563 8.48427 1.40424 7.00039 1.3999V1.3999ZM5.95039 9.2448L4.05549 7.3499L4.55039 6.855L5.95039 8.255L9.45039 4.755L9.94529 5.2499L5.95039 9.2448Z" fill="#1363B9"/>
</g>
<defs>
<clipPath id="clip0_416_57650">
<rect width="11.2" height="11.2" fill="white" transform="translate(1.40039 1.3999)"/>
</clipPath>
</defs>
</svg>
