<svg width="20" height="20" viewBox="0 0 20 20" fill="none" xmlns="http://www.w3.org/2000/svg">
<g clip-path="url(#clip0_416_57461)">
<path d="M10 0C4.48625 0 0 4.48625 0 10C0 15.5138 4.48625 20 10 20C15.5138 20 20 15.5138 20 10C20 4.48625 15.5138 0 10 0ZM10 16.25C9.30937 16.25 8.75 15.6906 8.75 15C8.75 14.3094 9.30937 13.75 10 13.75C10.6906 13.75 11.25 14.3094 11.25 15C11.25 15.6906 10.6906 16.25 10 16.25ZM13.0788 8.97187C12.48 9.68563 11.3819 10.3081 10.97 10.9369C10.7294 11.3031 10.7312 11.7288 10.7312 12.1294H9.24375C9.24375 11.6694 9.21187 10.9956 9.5475 10.3831C9.74938 10.0138 10.1038 9.63188 10.6094 9.2375C11.6125 8.44563 12.0356 8.03375 12.0356 7.18937C12.0356 6.24938 11.3337 5.86937 10.3894 5.86937C9.76687 5.86937 9.0775 5.96438 7.85563 6.5675L7.21812 5.2325C8.245 4.66062 9.345 4.375 10.5181 4.375C11.5094 4.375 12.2956 4.6175 12.8775 5.10313C13.4594 5.58875 13.75 6.25875 13.75 7.11375C13.75 7.83187 13.555 8.405 13.0788 8.97187Z" fill="#4783C9"/>
</g>
<defs>
<clipPath id="clip0_416_57461">
<rect width="20" height="20" fill="white"/>
</clipPath>
</defs>
</svg>
