<svg width="20" height="20" viewBox="0 0 20 20" fill="none" xmlns="http://www.w3.org/2000/svg">
<path d="M10 0C4.48583 0 0 4.48583 0 10C0 15.5142 4.48583 20 10 20C15.5142 20 20 15.5142 20 10C20 4.48583 15.5142 0 10 0ZM14.7558 15.1725C14.5933 15.335 14.38 15.4167 14.1667 15.4167C13.9533 15.4167 13.74 15.335 13.5775 15.1725L9.41083 11.0058C9.25417 10.85 9.16667 10.6383 9.16667 10.4167V5C9.16667 4.53917 9.54 4.16667 10 4.16667C10.46 4.16667 10.8333 4.53917 10.8333 5V10.0717L14.7558 13.9942C15.0817 14.32 15.0817 14.8467 14.7558 15.1725Z" fill="#C2C2C2"/>
</svg>
