<svg width="20" height="20" viewBox="0 0 20 20" fill="none" xmlns="http://www.w3.org/2000/svg">
<g clip-path="url(#clip0_416_58346)">
<path d="M10.0004 0.625C9.83467 0.625 9.6757 0.690848 9.55849 0.808058C9.44128 0.925268 9.37543 1.08424 9.37543 1.25V8.125H5.62543C5.50839 8.12492 5.39368 8.1577 5.29436 8.21962C5.19503 8.28154 5.11509 8.37011 5.06364 8.47523C5.01218 8.58036 4.99128 8.69782 5.00331 8.81424C5.01534 8.93066 5.05982 9.04137 5.13168 9.13375L9.50668 14.7587C9.56511 14.834 9.63997 14.895 9.72554 14.9369C9.81112 14.9788 9.90515 15.0006 10.0004 15.0006C10.0957 15.0006 10.1897 14.9788 10.2753 14.9369C10.3609 14.895 10.4358 14.834 10.4942 14.7587L14.8692 9.13375C14.941 9.04137 14.9855 8.93066 14.9976 8.81424C15.0096 8.69782 14.9887 8.58036 14.9372 8.47523C14.8858 8.37011 14.8058 8.28154 14.7065 8.21962C14.6072 8.1577 14.4925 8.12492 14.3754 8.125H10.6254V1.25C10.6254 1.08424 10.5596 0.925268 10.4424 0.808058C10.3252 0.690848 10.1662 0.625 10.0004 0.625Z" fill="#123060"/>
<path d="M18.75 13.125C18.5842 13.125 18.4253 13.1908 18.3081 13.3081C18.1908 13.4253 18.125 13.5842 18.125 13.75V16.875C18.125 17.2065 17.9933 17.5245 17.7589 17.7589C17.5245 17.9933 17.2065 18.125 16.875 18.125H3.125C2.79348 18.125 2.47554 17.9933 2.24112 17.7589C2.0067 17.5245 1.875 17.2065 1.875 16.875V13.75C1.875 13.5842 1.80915 13.4253 1.69194 13.3081C1.57473 13.1908 1.41576 13.125 1.25 13.125C1.08424 13.125 0.925268 13.1908 0.808058 13.3081C0.690848 13.4253 0.625 13.5842 0.625 13.75V16.875C0.625 17.538 0.888392 18.1739 1.35723 18.6428C1.82607 19.1116 2.46196 19.375 3.125 19.375H16.875C17.538 19.375 18.1739 19.1116 18.6428 18.6428C19.1116 18.1739 19.375 17.538 19.375 16.875V13.75C19.375 13.5842 19.3092 13.4253 19.1919 13.3081C19.0747 13.1908 18.9158 13.125 18.75 13.125Z" fill="#123060"/>
</g>
<defs>
<clipPath id="clip0_416_58346">
<rect width="20" height="20" fill="white"/>
</clipPath>
</defs>
</svg>
