<svg width="33" height="33" viewBox="0 0 33 33" fill="none" xmlns="http://www.w3.org/2000/svg">
<path opacity="0.2" fill-rule="evenodd" clip-rule="evenodd" d="M0.898438 16.7773C0.898438 7.94079 8.06188 0.777344 16.8984 0.777344C25.735 0.777344 32.8984 7.94079 32.8984 16.7773C32.8984 25.6139 25.735 32.7773 16.8984 32.7773C8.06188 32.7773 0.898438 25.6139 0.898438 16.7773Z" fill="white"/>
<path d="M18.7318 18.0277H20.8151L21.6484 14.6943H18.7318V13.0277C18.7318 12.1693 18.7318 11.361 20.3984 11.361H21.6484V8.561C21.3768 8.52517 20.3509 8.44434 19.2676 8.44434C17.0051 8.44434 15.3984 9.82517 15.3984 12.361V14.6943H12.8984V18.0277H15.3984V25.111H18.7318V18.0277Z" fill="white"/>
</svg>
