<svg width="33" height="33" viewBox="0 0 33 33" fill="none" xmlns="http://www.w3.org/2000/svg">
<path opacity="0.2" fill-rule="evenodd" clip-rule="evenodd" d="M0.898438 16.7773C0.898438 7.94079 8.06188 0.777344 16.8984 0.777344C25.735 0.777344 32.8984 7.94079 32.8984 16.7773C32.8984 25.6139 25.735 32.7773 16.8984 32.7773C8.06188 32.7773 0.898438 25.6139 0.898438 16.7773Z" fill="white"/>
<path fill-rule="evenodd" clip-rule="evenodd" d="M16.4192 13.7824L16.4528 14.3361L15.8932 14.2683C13.8563 14.0084 12.0769 13.1271 10.566 11.647L9.82735 10.9126L9.63709 11.4549C9.23419 12.6639 9.4916 13.9406 10.331 14.7993C10.7786 15.2739 10.6779 15.3417 9.90569 15.0592C9.63709 14.9688 9.40206 14.901 9.37968 14.9349C9.30134 15.014 9.56994 16.0422 9.78258 16.4489C10.0736 17.0139 10.6667 17.5675 11.3158 17.8952L11.8642 18.155L11.2151 18.1663C10.5884 18.1663 10.566 18.1776 10.6331 18.4149C10.857 19.1493 11.7411 19.9289 12.726 20.2679L13.4199 20.5052L12.8155 20.8667C11.9202 21.3865 10.8682 21.6802 9.81615 21.7028C9.31253 21.7141 8.89844 21.7593 8.89844 21.7932C8.89844 21.9062 10.2638 22.5389 11.0584 22.7875C13.4423 23.5219 16.2737 23.2056 18.4002 21.9514C19.911 21.0588 21.4219 19.2849 22.127 17.5675C22.5075 16.6523 22.888 14.9801 22.888 14.1779C22.888 13.6582 22.9216 13.5904 23.5483 12.9689C23.9177 12.6074 24.2646 12.2119 24.3317 12.0989C24.4437 11.8843 24.4325 11.8843 23.8617 12.0763C22.9104 12.4153 22.7761 12.3701 23.2462 11.8617C23.5931 11.5001 24.0072 10.8448 24.0072 10.6527C24.0072 10.6188 23.8393 10.6753 23.6491 10.777C23.4476 10.89 22.9999 11.0595 22.6642 11.1611L22.0598 11.3532L21.5114 10.9804C21.2093 10.777 20.784 10.551 20.5602 10.4832C19.9894 10.325 19.1164 10.3476 18.6016 10.5284C17.2027 11.0369 16.3185 12.3475 16.4192 13.7824Z" fill="white"/>
</svg>
