<svg width="33" height="33" viewBox="0 0 33 33" fill="none" xmlns="http://www.w3.org/2000/svg">
<path opacity="0.2" fill-rule="evenodd" clip-rule="evenodd" d="M0.898438 16.7773C0.898438 7.94079 8.06188 0.777344 16.8984 0.777344C25.735 0.777344 32.8984 7.94079 32.8984 16.7773C32.8984 25.6139 25.735 32.7773 16.8984 32.7773C8.06188 32.7773 0.898438 25.6139 0.898438 16.7773Z" fill="white"/>
<path fill-rule="evenodd" clip-rule="evenodd" d="M23.5663 11.2769C24.3007 11.4784 24.879 12.0721 25.0752 12.8261C25.4319 14.1927 25.4319 17.044 25.4319 17.044C25.4319 17.044 25.4319 19.8952 25.0752 21.2618C24.879 22.0158 24.3007 22.6096 23.5663 22.8112C22.2355 23.1773 16.8986 23.1773 16.8986 23.1773C16.8986 23.1773 11.5616 23.1773 10.2307 22.8112C9.49639 22.6096 8.91806 22.0158 8.72179 21.2618C8.36523 19.8952 8.36523 17.044 8.36523 17.044C8.36523 17.044 8.36523 14.1927 8.72179 12.8261C8.91806 12.0721 9.49639 11.4784 10.2307 11.2769C11.5616 10.9106 16.8986 10.9106 16.8986 10.9106C16.8986 10.9106 22.2355 10.9106 23.5663 11.2769ZM15.2986 14.6439V19.9773L19.5653 17.3107L15.2986 14.6439Z" fill="white"/>
</svg>
