<svg width="44" height="44" viewBox="0 0 44 44" fill="none" xmlns="http://www.w3.org/2000/svg">
<g clip-path="url(#clip0_416_59858)">
<path d="M39.875 0H4.125C3.76033 0 3.41059 0.144866 3.15273 0.402728C2.89487 0.660591 2.75 1.01033 2.75 1.375V42.625C2.75 42.9897 2.89487 43.3394 3.15273 43.5973C3.41059 43.8551 3.76033 44 4.125 44H39.875C40.2397 44 40.5894 43.8551 40.8473 43.5973C41.1051 43.3394 41.25 42.9897 41.25 42.625V1.375C41.25 1.01033 41.1051 0.660591 40.8473 0.402728C40.5894 0.144866 40.2397 0 39.875 0V0ZM9.625 8.25H20.625V19.25H9.625V8.25ZM34.375 33H9.625V30.25H34.375V33ZM34.375 26.125H9.625V23.375H34.375V26.125ZM34.375 17.875H24.75V15.125H34.375V17.875ZM34.375 11H24.75V8.25H34.375V11Z" fill="white"/>
</g>
<defs>
<clipPath id="clip0_416_59858">
<rect width="44" height="44" fill="white"/>
</clipPath>
</defs>
</svg>
