<svg width="22" height="22" viewBox="0 0 22 22" fill="none" xmlns="http://www.w3.org/2000/svg">
<path d="M21 0H1C0.867392 0 0.740215 0.0526784 0.646447 0.146447C0.552678 0.240215 0.5 0.367392 0.5 0.5V3.5C0.500028 3.6326 0.552725 3.75975 0.6465 3.8535L8.5 11.707V21.5C8.5 21.5929 8.52586 21.6839 8.57467 21.7629C8.62349 21.8419 8.69334 21.9057 8.77639 21.9472C8.85945 21.9887 8.95242 22.0063 9.0449 21.998C9.13738 21.9896 9.22572 21.9557 9.3 21.9L13.3 18.9C13.3621 18.8534 13.4125 18.793 13.4472 18.7236C13.4819 18.6542 13.5 18.5776 13.5 18.5V11.707L21.3535 3.8535C21.4473 3.75975 21.5 3.6326 21.5 3.5V0.5C21.5 0.367392 21.4473 0.240215 21.3536 0.146447C21.2598 0.0526784 21.1326 0 21 0Z" fill="#123060"/>
</svg>
