<svg width="33" height="33" viewBox="0 0 33 33" fill="none" xmlns="http://www.w3.org/2000/svg">
<path d="M7.62401 6.09641L8.84677 5.21692C9.9949 4.39252 11.5753 4.60952 12.5437 5.72207L14.4685 7.9399C15.3065 8.90556 15.472 10.3084 14.8746 11.4081L13.2135 14.4684C13.8038 15.7851 14.6992 16.9789 15.8969 18.0506C17.0424 19.0919 18.3852 19.8928 19.8458 20.4058L22.4176 18.5048C23.3937 17.7853 24.7208 17.8183 25.7105 18.5861L28.0197 20.3734C29.172 21.2664 29.5458 22.8917 28.8938 24.1774L28.1947 25.5555C27.499 26.9269 26.1466 27.7826 24.6449 27.7994C21.099 27.841 17.1707 25.8212 12.8589 21.7404C8.54087 17.6532 6.21666 13.7483 5.88921 10.0302C5.75106 8.46568 6.41016 6.9688 7.62401 6.09641Z" fill="url(#paint0_linear_509_91359)"/>
<defs>
<linearGradient id="paint0_linear_509_91359" x1="17.542" y1="4.71802" x2="17.542" y2="27.8" gradientUnits="userSpaceOnUse">
<stop stop-color="#1EE117"/>
<stop offset="1" stop-color="#00BF2A"/>
</linearGradient>
</defs>
</svg>
