<svg width="168" height="21" viewBox="0 0 168 21" fill="none" xmlns="http://www.w3.org/2000/svg">
<path d="M18.3246 1.228C19.3473 1.73067 19.8586 2.28533 19.8586 2.892C19.8586 3.16933 19.7286 3.58533 19.4686 4.14L12.2926 18.7C12.102 19.0813 11.8073 19.3933 11.4086 19.636C11.0273 19.8613 10.6286 19.974 10.2126 19.974H9.95263C9.51929 19.974 9.10329 19.8613 8.70463 19.636C8.32329 19.3933 8.03729 19.0813 7.84663 18.7L0.670625 4.14C0.410625 3.58533 0.280625 3.16933 0.280625 2.892C0.280625 2.28533 0.791958 1.73067 1.81463 1.228C2.38663 0.933332 2.81996 0.785999 3.11463 0.785999C3.42663 0.785999 3.66063 0.820666 3.81663 0.89C3.97263 0.959333 4.11996 1.08067 4.25863 1.254C4.41463 1.462 4.55329 1.696 4.67463 1.956C4.81329 2.19867 5.15129 2.918 5.68863 4.114C6.22596 5.29267 6.79796 6.54933 7.40463 7.884C8.02863 9.21867 8.60929 10.484 9.14663 11.68C9.70129 12.8587 10.0133 13.5173 10.0826 13.656L15.2826 2.268C15.4213 1.93867 15.5426 1.67867 15.6466 1.488C15.9586 1.02 16.34 0.785999 16.7906 0.785999C17.2413 0.785999 17.7526 0.933332 18.3246 1.228ZM34.5919 1.748C34.7652 1.436 35.0166 1.228 35.3459 1.124C35.6752 1.02 36.0826 0.967999 36.5679 0.967999C37.0706 0.967999 37.4692 1.01133 37.7639 1.098C38.0759 1.18467 38.3012 1.28867 38.4399 1.41C38.5959 1.53133 38.7086 1.71333 38.7779 1.956C38.8819 2.23333 38.9339 2.67533 38.9339 3.282V17.712C38.9339 18.128 38.9166 18.4313 38.8819 18.622C38.8646 18.8127 38.7866 19.038 38.6479 19.298C38.4052 19.766 37.7292 20 36.6199 20C35.9439 20 35.4759 19.948 35.2159 19.844C34.9559 19.74 34.7392 19.5753 34.5659 19.35C30.6659 14.15 28.1006 10.7527 26.8699 9.158V17.712C26.8699 18.128 26.8526 18.4313 26.8179 18.622C26.8006 18.8127 26.7226 19.038 26.5839 19.298C26.3412 19.766 25.6652 20 24.5559 20C23.4812 20 22.8226 19.766 22.5799 19.298C22.4412 19.038 22.3546 18.804 22.3199 18.596C22.3026 18.388 22.2939 18.0847 22.2939 17.686V3.178C22.2939 2.51933 22.3719 2.04267 22.5279 1.748C22.7012 1.436 22.9526 1.228 23.2819 1.124C23.6112 1.02 24.0359 0.967999 24.5559 0.967999C25.0759 0.967999 25.4832 1.02 25.7779 1.124C26.0899 1.21067 26.3066 1.31467 26.4279 1.436C26.4972 1.488 26.6966 1.71333 27.0259 2.112C30.6832 7.08667 33.1272 10.3713 34.3579 11.966V3.178C34.3579 2.51933 34.4359 2.04267 34.5919 1.748ZM62.2608 1.67C62.3995 1.93 62.4775 2.164 62.4948 2.372C62.5295 2.58 62.5468 2.88333 62.5468 3.282V17.712C62.5468 18.908 62.2175 19.61 61.5588 19.818C61.2295 19.922 60.8135 19.974 60.3108 19.974C59.8081 19.974 59.4095 19.9307 59.1148 19.844C58.8201 19.7573 58.5948 19.6533 58.4388 19.532C58.2828 19.4107 58.1615 19.2373 58.0748 19.012C57.9881 18.7173 57.9448 18.2667 57.9448 17.66V8.95C57.5115 9.48733 56.8788 10.3453 56.0468 11.524C55.2148 12.6853 54.6861 13.4133 54.4608 13.708C54.2355 14.0027 54.0795 14.2107 53.9928 14.332C53.9061 14.436 53.6895 14.592 53.3428 14.8C53.0135 14.9907 52.6495 15.086 52.2508 15.086C51.8695 15.086 51.5141 14.9993 51.1848 14.826C50.8728 14.6353 50.6475 14.4533 50.5088 14.28L50.3008 13.994C49.9541 13.5607 49.2695 12.642 48.2468 11.238C47.2241 9.81667 46.6695 9.054 46.5828 8.95V17.712C46.5828 18.1107 46.5655 18.414 46.5308 18.622C46.5135 18.8127 46.4355 19.0293 46.2968 19.272C46.0368 19.74 45.3608 19.974 44.2688 19.974C43.2115 19.974 42.5528 19.74 42.2928 19.272C42.1541 19.0293 42.0675 18.804 42.0328 18.596C42.0155 18.388 42.0068 18.076 42.0068 17.66V3.23C42.0068 2.83133 42.0155 2.53667 42.0328 2.346C42.0675 2.138 42.1541 1.904 42.2928 1.644C42.5528 1.19333 43.2288 0.967999 44.3208 0.967999C44.7888 0.967999 45.1875 1.02867 45.5168 1.15C45.8635 1.254 46.0888 1.36667 46.1928 1.488L46.3488 1.644L52.2508 9.392C55.1975 5.492 57.1648 2.918 58.1528 1.67C58.4475 1.202 59.1408 0.967999 60.2328 0.967999C61.3421 0.967999 62.0181 1.202 62.2608 1.67ZM74.5738 0.707999C77.1392 0.707999 79.3665 1.63533 81.2558 3.49C83.1452 5.34467 84.0898 7.65 84.0898 10.406C84.0898 13.1447 83.1885 15.4847 81.3858 17.426C79.5832 19.35 77.3645 20.312 74.7298 20.312C72.0952 20.312 69.8505 19.3587 67.9958 17.452C66.1585 15.5453 65.2398 13.2747 65.2398 10.64C65.2398 9.20133 65.4998 7.858 66.0198 6.61C66.5398 5.34467 67.2332 4.28733 68.0998 3.438C68.9665 2.58867 69.9632 1.92133 71.0898 1.436C72.2165 0.950666 73.3778 0.707999 74.5738 0.707999ZM69.8418 10.51C69.8418 12.0527 70.3358 13.3093 71.3238 14.28C72.3292 15.2333 73.4472 15.71 74.6778 15.71C75.9085 15.71 77.0178 15.242 78.0058 14.306C78.9938 13.37 79.4878 12.1133 79.4878 10.536C79.4878 8.95867 78.9852 7.69333 77.9798 6.74C76.9918 5.78667 75.8825 5.31 74.6518 5.31C73.4212 5.31 72.3118 5.79533 71.3238 6.766C70.3358 7.71933 69.8418 8.96733 69.8418 10.51ZM95.734 0.707999C98.2993 0.707999 100.527 1.63533 102.416 3.49C104.305 5.34467 105.25 7.65 105.25 10.406C105.25 13.1447 104.349 15.4847 102.546 17.426C100.743 19.35 98.5247 20.312 95.89 20.312C93.2553 20.312 91.0107 19.3587 89.156 17.452C87.3187 15.5453 86.4 13.2747 86.4 10.64C86.4 9.20133 86.66 7.858 87.18 6.61C87.7 5.34467 88.3933 4.28733 89.26 3.438C90.1267 2.58867 91.1233 1.92133 92.25 1.436C93.3767 0.950666 94.538 0.707999 95.734 0.707999ZM91.002 10.51C91.002 12.0527 91.496 13.3093 92.484 14.28C93.4893 15.2333 94.6073 15.71 95.838 15.71C97.0687 15.71 98.178 15.242 99.166 14.306C100.154 13.37 100.648 12.1133 100.648 10.536C100.648 8.95867 100.145 7.69333 99.14 6.74C98.152 5.78667 97.0427 5.31 95.812 5.31C94.5813 5.31 93.472 5.79533 92.484 6.766C91.496 7.71933 91.002 8.96733 91.002 10.51ZM119.858 15.008L120.326 14.67C120.915 14.3233 121.331 14.15 121.574 14.15C122.111 14.15 122.692 14.6353 123.316 15.606C123.697 16.2127 123.888 16.698 123.888 17.062C123.888 17.426 123.767 17.7293 123.524 17.972C123.299 18.2147 123.03 18.4313 122.718 18.622C122.406 18.8127 122.103 18.9947 121.808 19.168C121.531 19.3413 120.95 19.5667 120.066 19.844C119.182 20.1213 118.324 20.26 117.492 20.26C116.677 20.26 115.845 20.156 114.996 19.948C114.164 19.7227 113.297 19.3587 112.396 18.856C111.512 18.336 110.715 17.712 110.004 16.984C109.293 16.2387 108.704 15.294 108.236 14.15C107.785 12.9887 107.56 11.732 107.56 10.38C107.56 9.028 107.785 7.806 108.236 6.714C108.687 5.60467 109.259 4.69467 109.952 3.984C110.663 3.256 111.469 2.64933 112.37 2.164C114.069 1.228 115.776 0.76 117.492 0.76C118.307 0.76 119.13 0.89 119.962 1.15C120.811 1.39267 121.453 1.644 121.886 1.904L122.51 2.268C122.822 2.45867 123.065 2.61467 123.238 2.736C123.689 3.1 123.914 3.516 123.914 3.984C123.914 4.43467 123.732 4.91133 123.368 5.414C122.692 6.35 122.085 6.818 121.548 6.818C121.236 6.818 120.794 6.62733 120.222 6.246C119.494 5.65667 118.523 5.362 117.31 5.362C116.183 5.362 115.074 5.752 113.982 6.532C113.462 6.91333 113.029 7.45067 112.682 8.144C112.335 8.83733 112.162 9.626 112.162 10.51C112.162 11.3767 112.335 12.1567 112.682 12.85C113.029 13.5433 113.471 14.0893 114.008 14.488C115.065 15.2507 116.166 15.632 117.31 15.632C117.847 15.632 118.35 15.5627 118.818 15.424C119.303 15.2853 119.65 15.1467 119.858 15.008ZM130.627 15.71C130.921 16.0047 131.069 16.6113 131.069 17.53V17.634C131.069 18.05 131.051 18.362 131.017 18.57C130.999 18.7607 130.913 18.9947 130.757 19.272C130.497 19.7747 129.838 20.026 128.781 20.026C127.741 20.026 127.047 19.8613 126.701 19.532C126.371 19.2027 126.207 18.5787 126.207 17.66V17.556C126.207 17.1573 126.215 16.854 126.233 16.646C126.267 16.438 126.354 16.204 126.493 15.944C126.753 15.424 127.403 15.164 128.443 15.164C129.5 15.164 130.228 15.346 130.627 15.71ZM146.743 1.228C147.765 1.73067 148.277 2.28533 148.277 2.892C148.277 3.16933 148.147 3.58533 147.887 4.14L140.711 18.7C140.52 19.0813 140.225 19.3933 139.827 19.636C139.445 19.8613 139.047 19.974 138.631 19.974H138.371C137.937 19.974 137.521 19.8613 137.123 19.636C136.741 19.3933 136.455 19.0813 136.265 18.7L129.089 4.14C128.829 3.58533 128.699 3.16933 128.699 2.892C128.699 2.28533 129.21 1.73067 130.233 1.228C130.805 0.933332 131.238 0.785999 131.533 0.785999C131.845 0.785999 132.079 0.820666 132.235 0.89C132.391 0.959333 132.538 1.08067 132.677 1.254C132.833 1.462 132.971 1.696 133.093 1.956C133.231 2.19867 133.569 2.918 134.107 4.114C134.644 5.29267 135.216 6.54933 135.823 7.884C136.447 9.21867 137.027 10.484 137.565 11.68C138.119 12.8587 138.431 13.5173 138.501 13.656L143.701 2.268C143.839 1.93867 143.961 1.67867 144.065 1.488C144.377 1.02 144.758 0.785999 145.209 0.785999C145.659 0.785999 146.171 0.933332 146.743 1.228ZM163.01 1.748C163.183 1.436 163.435 1.228 163.764 1.124C164.093 1.02 164.501 0.967999 164.986 0.967999C165.489 0.967999 165.887 1.01133 166.182 1.098C166.494 1.18467 166.719 1.28867 166.858 1.41C167.014 1.53133 167.127 1.71333 167.196 1.956C167.3 2.23333 167.352 2.67533 167.352 3.282V17.712C167.352 18.128 167.335 18.4313 167.3 18.622C167.283 18.8127 167.205 19.038 167.066 19.298C166.823 19.766 166.147 20 165.038 20C164.362 20 163.894 19.948 163.634 19.844C163.374 19.74 163.157 19.5753 162.984 19.35C159.084 14.15 156.519 10.7527 155.288 9.158V17.712C155.288 18.128 155.271 18.4313 155.236 18.622C155.219 18.8127 155.141 19.038 155.002 19.298C154.759 19.766 154.083 20 152.974 20C151.899 20 151.241 19.766 150.998 19.298C150.859 19.038 150.773 18.804 150.738 18.596C150.721 18.388 150.712 18.0847 150.712 17.686V3.178C150.712 2.51933 150.79 2.04267 150.946 1.748C151.119 1.436 151.371 1.228 151.7 1.124C152.029 1.02 152.454 0.967999 152.974 0.967999C153.494 0.967999 153.901 1.02 154.196 1.124C154.508 1.21067 154.725 1.31467 154.846 1.436C154.915 1.488 155.115 1.71333 155.444 2.112C159.101 7.08667 161.545 10.3713 162.776 11.966V3.178C162.776 2.51933 162.854 2.04267 163.01 1.748Z" fill="#123060"/>
</svg>
