<svg width="25" height="25" viewBox="0 0 25 25" fill="none" xmlns="http://www.w3.org/2000/svg">
<path d="M12.8906 22.6047C18.4135 22.6047 22.8906 18.1276 22.8906 12.6047C22.8906 7.08189 18.4135 2.60474 12.8906 2.60474C7.36778 2.60474 2.89062 7.08189 2.89062 12.6047C2.89062 18.1276 7.36778 22.6047 12.8906 22.6047Z" stroke="#123060" stroke-width="1.5" stroke-linecap="round" stroke-linejoin="round"/>
<path d="M13.2202 18.0547C13.0402 18.1147 12.7302 18.1147 12.5502 18.0547C10.9902 17.5247 7.49023 15.2947 7.49023 11.5147C7.49023 9.84474 8.83023 8.49475 10.4902 8.49475C11.4702 8.49475 12.3402 8.96474 12.8902 9.70474C13.4302 8.97474 14.3102 8.49475 15.2902 8.49475C16.9502 8.49475 18.2902 9.84474 18.2902 11.5147C18.2902 15.2947 14.7902 17.5247 13.2202 18.0547Z" fill="#123060"/>
</svg>
