<svg width="16" height="16" viewBox="0 0 16 16" fill="none" xmlns="http://www.w3.org/2000/svg">
<path d="M15.9836 8.18887C15.9836 7.64675 15.9387 7.10169 15.843 6.56836H8.16602V9.63942H12.5623C12.3798 10.6299 11.7937 11.5061 10.9354 12.0629V14.0555H13.5582C15.0984 12.6665 15.9836 10.6152 15.9836 8.18887Z" fill="#4285F4"/>
<path d="M8.16585 15.9801C10.361 15.9801 12.2122 15.2739 13.561 14.0548L10.9382 12.0621C10.2085 12.5486 9.26641 12.824 8.16884 12.824C6.04548 12.824 4.2451 11.4204 3.59912 9.5332H0.892578V11.5874C2.27426 14.2805 5.08847 15.9801 8.16585 15.9801Z" fill="#34A853"/>
<path d="M3.59669 9.53347C3.25575 8.543 3.25575 7.47047 3.59669 6.47999V4.42578H0.893138C-0.261254 6.67926 -0.261254 9.33421 0.893138 11.5877L3.59669 9.53347Z" fill="#FBBC04"/>
<path d="M8.16585 3.18588C9.32622 3.1683 10.4477 3.59613 11.2881 4.38148L13.6118 2.10456C12.1404 0.750713 10.1875 0.00639108 8.16585 0.0298343C5.08847 0.0298343 2.27426 1.72947 0.892578 4.42544L3.59613 6.47965C4.23912 4.58954 6.04248 3.18588 8.16585 3.18588Z" fill="#EA4335"/>
</svg>
