<svg width="28" height="28" viewBox="0 0 28 28" fill="none" xmlns="http://www.w3.org/2000/svg">
<path d="M14.0007 2.33301C7.57232 2.33301 2.33398 7.57134 2.33398 13.9997C2.33398 20.428 7.57232 25.6663 14.0007 25.6663C20.429 25.6663 25.6673 20.428 25.6673 13.9997C25.6673 7.57134 20.429 2.33301 14.0007 2.33301ZM13.1257 9.33301C13.1257 8.85467 13.5223 8.45801 14.0007 8.45801C14.479 8.45801 14.8757 8.85467 14.8757 9.33301V15.1663C14.8757 15.6447 14.479 16.0413 14.0007 16.0413C13.5223 16.0413 13.1257 15.6447 13.1257 15.1663V9.33301ZM15.074 19.1097C15.0157 19.2613 14.934 19.378 14.829 19.4947C14.7123 19.5997 14.584 19.6813 14.444 19.7397C14.304 19.798 14.1523 19.833 14.0007 19.833C13.849 19.833 13.6973 19.798 13.5573 19.7397C13.4173 19.6813 13.289 19.5997 13.1723 19.4947C13.0673 19.378 12.9857 19.2613 12.9273 19.1097C12.869 18.9697 12.834 18.818 12.834 18.6663C12.834 18.5147 12.869 18.363 12.9273 18.223C12.9857 18.083 13.0673 17.9547 13.1723 17.838C13.289 17.733 13.4173 17.6513 13.5573 17.593C13.8373 17.4763 14.164 17.4763 14.444 17.593C14.584 17.6513 14.7123 17.733 14.829 17.838C14.934 17.9547 15.0157 18.083 15.074 18.223C15.1323 18.363 15.1673 18.5147 15.1673 18.6663C15.1673 18.818 15.1323 18.9697 15.074 19.1097Z" fill="#E7AD5A"/>
</svg>
