<svg width="24" height="24" viewBox="0 0 24 24" fill="none" xmlns="http://www.w3.org/2000/svg">
<g clip-path="url(#clip0_879_101214)">
<path fill-rule="evenodd" clip-rule="evenodd" d="M12 0.463867C12.3384 0.463867 12.6153 0.740711 12.6153 1.0791H15.9501L15.2497 2.32715L15.9501 3.5752H12.6152V4.59154H11.3847V1.0791C11.3848 0.740758 11.6616 0.463867 12 0.463867ZM18.5742 13.3674V23.5357H23.1797C23.3862 23.5357 23.5547 23.3673 23.5547 23.1607V13.7424C23.5547 13.5359 23.3862 13.3674 23.1797 13.3674H18.5742ZM20.3519 15.6756H21.7769C21.8749 15.6756 21.955 15.7558 21.955 15.8537V17.2787C21.955 17.3767 21.8749 17.4569 21.7769 17.4569H20.3519C20.2539 17.4569 20.1738 17.3767 20.1738 17.2787V15.8537C20.1738 15.7558 20.2539 15.6756 20.3519 15.6756ZM20.3519 19.4461H21.7769C21.8749 19.4461 21.955 19.5263 21.955 19.6243V21.0493C21.955 21.1473 21.8749 21.2274 21.7769 21.2274H20.3519C20.2539 21.2274 20.1738 21.1473 20.1738 21.0493V19.6243C20.1738 19.5263 20.2539 19.4461 20.3519 19.4461ZM5.42578 23.5357V13.3674H0.820312C0.613781 13.3674 0.445312 13.5359 0.445312 13.7424V23.1607C0.445312 23.3673 0.613781 23.5357 0.820312 23.5357H5.42578ZM2.22305 15.6756H3.64805C3.74602 15.6756 3.82617 15.7558 3.82617 15.8537V17.2787C3.82617 17.3767 3.74602 17.4569 3.64805 17.4569H2.22305C2.12503 17.4569 2.04492 17.3767 2.04492 17.2787V15.8537C2.04492 15.7558 2.12503 15.6756 2.22305 15.6756ZM2.22305 19.4461H3.64805C3.74602 19.4461 3.82617 19.5263 3.82617 19.6243V21.0493C3.82617 21.1473 3.74602 21.2274 3.64805 21.2274H2.22305C2.12503 21.2274 2.04492 21.1473 2.04492 21.0493V19.6243C2.04492 19.5263 2.12503 19.4461 2.22305 19.4461ZM6.01575 5.38841H17.9842C18.4058 5.38841 18.7506 5.73327 18.7506 6.15482C18.7506 6.57637 18.4058 6.92123 17.9842 6.92123H6.01575C5.5942 6.92123 5.24934 6.57637 5.24934 6.15482C5.24934 5.73327 5.59425 5.38841 6.01575 5.38841ZM17.7773 7.71806V23.5356H15.2871V18.4515C15.2871 18.2316 15.1087 18.0531 14.8887 18.0531H9.11133C8.8913 18.0531 8.71284 18.2316 8.71284 18.4515V23.5357H6.22266V7.71806H17.7773ZM14.4902 23.5357V18.85H9.50977V23.5357H14.4902ZM7.93045 9.55762C7.83248 9.55762 7.75233 9.63782 7.75233 9.73579V11.1608C7.75233 11.2588 7.83248 11.3389 7.93045 11.3389H9.35545C9.45347 11.3389 9.53358 11.2588 9.53358 11.1608V9.73579C9.53358 9.63782 9.45347 9.55762 9.35545 9.55762H7.93045ZM7.93045 13.3282C7.83248 13.3282 7.75233 13.4084 7.75233 13.5063V14.9313C7.75233 15.0293 7.83248 15.1095 7.93045 15.1095H9.35545C9.45347 15.1095 9.53358 15.0293 9.53358 14.9313V13.5063C9.53358 13.4084 9.45347 13.3282 9.35545 13.3282H7.93045ZM11.2875 9.55762C11.1895 9.55762 11.1093 9.63782 11.1093 9.73579V11.1608C11.1093 11.2588 11.1895 11.3389 11.2875 11.3389H12.7125C12.8105 11.3389 12.8906 11.2588 12.8906 11.1608V9.73579C12.8906 9.63782 12.8105 9.55762 12.7125 9.55762H11.2875ZM11.2875 13.3282C11.1895 13.3282 11.1093 13.4084 11.1093 13.5063V14.9313C11.1093 15.0293 11.1895 15.1095 11.2875 15.1095H12.7125C12.8105 15.1095 12.8906 15.0293 12.8906 14.9313V13.5063C12.8906 13.4084 12.8105 13.3282 12.7125 13.3282H11.2875ZM14.6445 9.55762C14.5465 9.55762 14.4664 9.63782 14.4664 9.73579V11.1608C14.4664 11.2588 14.5465 11.3389 14.6445 11.3389H16.0695C16.1675 11.3389 16.2477 11.2588 16.2477 11.1608V9.73579C16.2477 9.63782 16.1675 9.55762 16.0695 9.55762H14.6445ZM14.6445 13.3282C14.5465 13.3282 14.4664 13.4084 14.4664 13.5063V14.9313C14.4664 15.0293 14.5465 15.1095 14.6445 15.1095H16.0695C16.1675 15.1095 16.2477 15.0293 16.2477 14.9313V13.5063C16.2477 13.4084 16.1675 13.3282 16.0695 13.3282H14.6445Z" fill="#123060"/>
</g>
<defs>
<clipPath id="clip0_879_101214">
<rect width="24" height="24" fill="white"/>
</clipPath>
</defs>
</svg>
