<svg width="17" height="17" viewBox="0 0 17 17" fill="none" xmlns="http://www.w3.org/2000/svg">
<path fill-rule="evenodd" clip-rule="evenodd" d="M9.14292 3.59466C9.01625 3.72799 8.94958 3.89466 8.94958 4.068C8.94958 4.24133 9.01625 4.408 9.14292 4.54133L12.0096 7.40133L2.94958 7.40133C2.58292 7.40133 2.28292 7.70133 2.28292 8.06799C2.28292 8.43466 2.58292 8.73466 2.94958 8.73466H12.0096L9.14292 11.5947C8.88292 11.8547 8.88292 12.2813 9.14292 12.5413C9.40292 12.8013 9.82958 12.8013 10.0896 12.5413L14.0896 8.54133C14.1496 8.48133 14.1962 8.40799 14.2296 8.32799C14.2429 8.29466 14.2562 8.26799 14.2562 8.23466C14.2896 8.12799 14.2896 8.00799 14.2562 7.90133C14.2562 7.86799 14.2429 7.84133 14.2296 7.80799C14.1962 7.72799 14.1496 7.65466 14.0896 7.59466L10.0896 3.59466C9.82958 3.33466 9.40292 3.33466 9.14292 3.59466Z" fill="white"/>
</svg>
