<svg width="17" height="17" viewBox="0 0 17 17" fill="none" xmlns="http://www.w3.org/2000/svg">
<path d="M15.3649 13.9837L12.8915 11.5304C13.8516 10.3333 14.3165 8.81389 14.1907 7.28456C14.0649 5.75523 13.358 4.33222 12.2152 3.30812C11.0724 2.28403 9.58074 1.7367 8.04682 1.77868C6.5129 1.82065 5.05335 2.44874 3.9683 3.53379C2.88325 4.61884 2.25516 6.07839 2.21318 7.61231C2.17121 9.14623 2.71854 10.6379 3.74263 11.7807C4.76673 12.9235 6.18974 13.6304 7.71907 13.7562C9.2484 13.882 10.7678 13.4171 11.9649 12.457L14.4182 14.9104C14.4802 14.9728 14.5539 15.0224 14.6352 15.0563C14.7164 15.0901 14.8035 15.1076 14.8915 15.1076C14.9795 15.1076 15.0667 15.0901 15.1479 15.0563C15.2292 15.0224 15.3029 14.9728 15.3649 14.9104C15.485 14.7861 15.5522 14.6199 15.5522 14.447C15.5522 14.2741 15.485 14.108 15.3649 13.9837ZM8.22487 12.457C7.30189 12.457 6.39964 12.1833 5.63221 11.6706C4.86478 11.1578 4.26664 10.4289 3.91343 9.57622C3.56022 8.7235 3.46781 7.78518 3.64787 6.87994C3.82794 5.9747 4.27239 5.14318 4.92504 4.49053C5.57768 3.83789 6.4092 3.39343 7.31445 3.21336C8.21969 3.0333 9.15801 3.12571 10.0107 3.47892C10.8634 3.83213 11.5923 4.43027 12.1051 5.1977C12.6178 5.96513 12.8915 6.86738 12.8915 7.79036C12.8915 9.02804 12.3999 10.215 11.5247 11.0902C10.6495 11.9654 9.46255 12.457 8.22487 12.457Z" fill="#ADB5BE"/>
</svg>
