<svg width="8" height="8" viewBox="0 0 8 8" fill="none" xmlns="http://www.w3.org/2000/svg">
<path fill-rule="evenodd" clip-rule="evenodd" d="M4.94283 3.99992L7.80483 1.13792C8.0655 0.877256 8.0655 0.455923 7.80483 0.195256C7.54417 -0.0654108 7.12283 -0.0654108 6.86217 0.195256L4.00017 3.05726L1.13817 0.195256C0.8775 -0.0654108 0.456167 -0.0654108 0.1955 0.195256C-0.0651667 0.455923 -0.0651667 0.877256 0.1955 1.13792L3.0575 3.99992L0.1955 6.86192C-0.0651667 7.12259 -0.0651667 7.54392 0.1955 7.80459C0.3255 7.93459 0.496167 7.99992 0.666833 7.99992C0.8375 7.99992 1.00817 7.93459 1.13817 7.80459L4.00017 4.94259L6.86217 7.80459C6.99217 7.93459 7.16283 7.99992 7.3335 7.99992C7.50417 7.99992 7.67483 7.93459 7.80483 7.80459C8.0655 7.54392 8.0655 7.12259 7.80483 6.86192L4.94283 3.99992Z" fill="#3D3D3D"/>
</svg>
