<svg width="17" height="17" viewBox="0 0 17 17" fill="none" xmlns="http://www.w3.org/2000/svg">
<path d="M15.1194 4.8609L12.8728 13.8809C12.7128 14.5543 12.1128 15.0209 11.4194 15.0209H2.65944C1.65277 15.0209 0.932779 14.0342 1.23278 13.0675L4.03944 4.05426C4.23277 3.42759 4.81278 2.9942 5.46612 2.9942H13.6661C14.2994 2.9942 14.8261 3.38087 15.0461 3.9142C15.1728 4.20087 15.1994 4.52757 15.1194 4.8609Z" stroke="white" stroke-width="1.2" stroke-miterlimit="10"/>
<path d="M11.166 15.0209H14.3527C15.2127 15.0209 15.886 14.2942 15.826 13.4342L15.166 4.35425" stroke="white" stroke-width="1.2" stroke-miterlimit="10" stroke-linecap="round" stroke-linejoin="round"/>
<path d="M6.95312 4.60756L7.64646 1.7276" stroke="white" stroke-width="1.2" stroke-miterlimit="10" stroke-linecap="round" stroke-linejoin="round"/>
<path d="M11.4199 4.61426L12.0466 1.72095" stroke="white" stroke-width="1.2" stroke-miterlimit="10" stroke-linecap="round" stroke-linejoin="round"/>
<path d="M5.63281 8.35425H10.9661" stroke="white" stroke-width="1.2" stroke-miterlimit="10" stroke-linecap="round" stroke-linejoin="round"/>
<path d="M4.9668 11.0209H10.3001" stroke="white" stroke-width="1.2" stroke-miterlimit="10" stroke-linecap="round" stroke-linejoin="round"/>
</svg>
