<svg width="60" height="60" viewBox="0 0 60 60" fill="none" xmlns="http://www.w3.org/2000/svg">
<g clip-path="url(#clip0_1493_10572)">
<path d="M19.3539 59.0323C19.3539 51.2904 0.966797 44.5162 0.966797 30C0.966797 15.4839 19.3539 8.70971 19.3539 0.967773H1.93454C1.93454 8.70971 20.3216 15.4839 20.3216 30C20.3216 44.5162 1.93454 51.2904 1.93454 59.0323H19.3539Z" fill="#E7AD5A"/>
<path d="M12.9581 48.3881C12.6532 48.0997 12.3455 47.8094 12.0377 47.5161C16.6219 43.019 21.2903 37.4942 21.2903 30C21.2903 22.5058 16.6219 16.981 12.0377 12.4829C12.3455 12.1897 12.6532 11.8994 12.9581 11.611C16.9103 7.87742 20.3226 4.6529 20.3226 0.967742V0H18.3871V0.967742C18.3871 1.60548 18.2226 2.25 17.9381 2.90323H3.35226C3.06774 2.25 2.90323 1.60548 2.90323 0.967742V0H0.967742V0.967742C0.967742 4.6529 4.38 7.87742 8.33226 11.6119C8.6371 11.9003 8.94484 12.1906 9.25258 12.4839C4.66839 16.981 0 22.5058 0 30C0 37.4942 4.66839 43.019 9.25258 47.5171C8.94484 47.8103 8.6371 48.1006 8.33226 48.389C4.38 52.1226 0.967742 55.3471 0.967742 59.0323V60H2.90323V59.0323C2.90323 58.3945 3.06774 57.75 3.35226 57.0968H17.939C18.2226 57.75 18.3871 58.3945 18.3871 59.0323V60H20.3226V59.0323C20.3226 55.3471 16.9103 52.1226 12.9581 48.3881ZM5.80645 40.7535C5.32161 40.0916 4.87065 39.4113 4.45548 38.7097H16.8348C16.4206 39.4113 15.9687 40.0916 15.4839 40.7535V40.6452H5.80645V40.7535ZM4.45548 21.2903C4.87065 20.5887 5.32161 19.9084 5.80645 19.2465V19.3548H15.4839V19.2465C15.9687 19.9074 16.4197 20.5887 16.8348 21.2903H14.5161V23.2258H17.8558C18.1394 23.8519 18.3784 24.5003 18.5884 25.1613H2.7029C2.9129 24.5003 3.15097 23.8519 3.43548 23.2258H12.5806V21.2903H4.45548ZM19.0877 27.0968C19.2039 27.7239 19.2706 28.3723 19.3113 29.0323H1.98C2.01968 28.3723 2.08645 27.7239 2.20355 27.0968H19.0877ZM2.20258 32.9032C2.08645 32.2761 2.01968 31.6277 1.97903 30.9677H19.3103C19.2706 31.6277 19.2039 32.2761 19.0868 32.9032H7.74194V34.8387H18.5874C18.3774 35.4997 18.1394 36.1481 17.8548 36.7742H3.43452C3.15097 36.1481 2.91194 35.4997 2.70194 34.8387H5.80645V32.9032H2.20258ZM4.50968 4.83871H16.7806C16.3084 5.47064 15.7481 6.11516 15.1277 6.77419H6.16258C5.54226 6.11516 4.98097 5.47064 4.50968 4.83871ZM9.66194 10.2048C9.12387 9.69581 8.59839 9.19935 8.09032 8.70968H13.199C12.691 9.19935 12.1665 9.69581 11.6284 10.2048C11.3052 10.5106 10.9761 10.8213 10.6452 11.1358C10.3132 10.8213 9.98516 10.5106 9.66194 10.2048ZM10.6452 13.8261C11.8161 14.9719 12.9735 16.1613 14.0429 17.4194H7.24742C8.31677 16.1613 9.47419 14.9719 10.6452 13.8261ZM7.24742 42.5806H14.0429C12.9735 43.8387 11.8161 45.0281 10.6452 46.1739C9.47419 45.0281 8.31677 43.8387 7.24742 42.5806ZM9.66194 49.7952C9.98516 49.4894 10.3142 49.1787 10.6452 48.8642C10.9771 49.1797 11.3052 49.4903 11.6284 49.7952C12.1665 50.3042 12.6919 50.8006 13.199 51.2903H8.09032C8.59839 50.8006 9.12387 50.3042 9.66194 49.7952ZM4.50968 55.1613C4.98194 54.5294 5.54226 53.8848 6.16258 53.2258H15.1287C15.749 53.8848 16.3094 54.5294 16.7816 55.1613H4.50968Z" fill="#123060"/>
<path d="M55.162 52.2581H53.601C55.883 48.1268 57.0975 43.4584 57.0975 38.7097C57.0975 30.8971 53.8255 23.4445 48.1091 18.1394L50.7365 15.5119L48.8 13.5755L52.9555 9.42194L51.5871 8.05355L47.4317 12.2071L44.9242 9.69968L49.0875 5.55L47.721 4.17871L43.5549 8.33032L41.6262 6.40161L27.3936 20.6342L28.762 22.0026L41.6262 9.13839L47.9997 15.5119L35.1355 28.3761L36.5039 29.7445L42.6171 23.6313C45.4091 26.1523 47.4665 29.4165 48.5223 32.999C46.7881 33.3813 45.4846 34.9258 45.4846 36.7742C45.4846 38.8771 47.1723 40.5852 49.2626 40.6355C49.1862 41.4445 49.0584 42.2477 48.8862 43.0403C48.1294 42.7481 47.3107 42.5806 46.4523 42.5806H31.9362C29.2681 42.5806 27.0975 44.7513 27.0975 47.4194V48.3871H39.7555C39.7101 48.7045 39.6781 49.0258 39.6781 49.3548V52.2581H26.1297C23.4617 52.2581 21.291 54.4287 21.291 57.0968V60H60.0007V57.0968C60.0007 54.4287 57.83 52.2581 55.162 52.2581ZM47.42 36.7742C47.42 35.7068 48.2881 34.8387 49.3555 34.8387C50.423 34.8387 51.291 35.7068 51.291 36.7742C51.291 37.8416 50.423 38.7097 49.3555 38.7097C48.2881 38.7097 47.42 37.8416 47.42 36.7742ZM51.2388 40.1352C52.4184 39.4713 53.2265 38.2219 53.2265 36.7742C53.2265 35.0632 52.1039 33.6252 50.5623 33.1152C49.4813 28.9655 47.1762 25.1671 43.9875 22.2619L46.7407 19.5087C52.0952 24.451 55.162 31.411 55.162 38.7097C55.162 42.1413 54.4865 45.5284 53.1917 48.6716C53.003 46.7961 52.043 45.1481 50.6388 44.04C50.9533 42.7626 51.1546 41.4532 51.2388 40.1352ZM29.1984 46.4516C29.5981 45.3252 30.6742 44.5161 31.9362 44.5161H41.72C41.152 45.0716 40.6865 45.7268 40.341 46.4516H29.1984ZM58.0652 58.0645H23.2265V57.0968C23.2265 55.4961 24.5291 54.1935 26.1297 54.1935H43.5491V52.2581H41.6136V49.3548C41.6136 46.6868 43.7842 44.5161 46.4523 44.5161C49.1204 44.5161 51.291 46.6868 51.291 49.3548V52.2581H45.4846V54.1935H55.162C56.7626 54.1935 58.0652 55.4961 58.0652 57.0968V58.0645Z" fill="#123060"/>
<path d="M34.8504 34.8669C34.6027 34.8669 34.3549 34.7721 34.1662 34.5833L22.5533 22.9704C22.1749 22.5921 22.1749 21.9804 22.5533 21.6021L25.4565 18.6988C25.8349 18.3204 26.4465 18.3204 26.8249 18.6988L38.4378 30.3117C38.8162 30.6901 38.8162 31.3017 38.4378 31.6801L35.5346 34.5833C35.3449 34.773 35.0982 34.8669 34.8504 34.8669Z" fill="#E7AD5A"/>
<path d="M53.2372 10.6732C52.9808 10.6732 52.734 10.5716 52.553 10.3897L46.7466 4.5871C46.3701 4.21161 46.3682 3.60194 46.7417 3.22355L49.6343 0.288387C49.8153 0.104516 50.0621 0.000967742 50.3204 0C50.3214 0 50.3224 0 50.3233 0C50.5808 0 50.8275 0.101613 51.0085 0.284516L56.813 6.10548C57.1895 6.4829 57.1904 7.09258 56.815 7.47L53.9243 10.3877C53.7433 10.5697 53.4975 10.6732 53.2401 10.6742C53.2391 10.6732 53.2382 10.6732 53.2372 10.6732Z" fill="#E7AD5A"/>
</g>
<defs>
<clipPath id="clip0_1493_10572">
<rect width="60" height="60" fill="white"/>
</clipPath>
</defs>
</svg>
