<svg width="60" height="60" viewBox="0 0 60 60" fill="none" xmlns="http://www.w3.org/2000/svg">
<g clip-path="url(#clip0_849_100969)">
<path d="M27.0969 30.9681H18.3872V26.1294L14.5163 18.3875L10.6453 26.1294V30.9681H3.87109V11.6133H27.0969V30.9681Z" fill="#E7AD5A"/>
<path d="M3.87109 3.87109H5.80658V5.80658H3.87109V3.87109Z" fill="#123060"/>
<path d="M7.74219 3.87109H9.67767V5.80658H7.74219V3.87109Z" fill="#123060"/>
<path d="M11.6133 3.87109H13.5488V5.80658H11.6133V3.87109Z" fill="#123060"/>
<path d="M60 44.5161V0H0V44.5161H11.6129V27.0968H13.5484V50.3226H11.6129V46.5773H9.67742V57.0968C9.67742 58.6972 10.9802 60 12.5806 60H16.4516C18.0521 60 19.3548 58.6972 19.3548 57.0968V44.5161H25.1613V51.7742L25.5483 52.0643C25.717 52.1914 29.7581 55.1613 36.7742 55.1613C43.7903 55.1613 47.8314 52.1914 48.0001 52.0643L48.3871 51.7742V43.4189L50.9303 41.9649C51.4548 41.6663 51.8314 41.19 52.0492 40.6452H53.2258C53.7588 40.6452 54.1936 41.0789 54.1936 41.6129V48.3871H53.464L51.3281 55.8639L51.2903 56.129C51.2903 58.2639 53.0264 60 55.1613 60C57.2962 60 59.0323 58.2639 59.0323 56.129L56.8586 48.3871H56.129V44.5161H60ZM57.093 56.2509C57.0302 57.2622 56.1881 58.0645 55.1613 58.0645C54.1345 58.0645 53.2924 57.2622 53.2296 56.2509L54.9231 50.3226H55.3985L57.093 56.2509ZM58.0645 1.93548V7.74194H1.93548V1.93548H58.0645ZM12.2111 25.1613L14.5161 20.5508L16.8211 25.1613H12.2111ZM15.4839 27.0968H17.4194V50.3226H15.4839V27.0968ZM16.4516 58.0645H12.5806C12.0476 58.0645 11.6129 57.6307 11.6129 57.0968V52.2581H17.4194V57.0968C17.4194 57.6307 16.9846 58.0645 16.4516 58.0645ZM46.4516 50.7687C45.3464 51.4425 41.9352 53.2258 36.7742 53.2258C31.6113 53.2258 28.1992 51.4411 27.0968 50.7687V44.5246L34.4867 48.7472C35.1813 49.145 35.9728 49.3548 36.7742 49.3548C37.5756 49.3548 38.3671 49.145 39.0617 48.7472L46.4516 44.5246V50.7687ZM38.102 47.0673C37.2949 47.5285 36.2535 47.5285 35.4464 47.0673L23.5778 40.2851C23.3614 40.1604 23.2258 39.9279 23.2258 39.6774C23.2258 39.427 23.3614 39.1945 23.5778 39.0697L35.4464 32.2875C35.8499 32.0574 36.3097 31.9355 36.7742 31.9355C37.2387 31.9355 37.6985 32.0574 38.102 32.2875L49.3402 38.7097H36.7742V40.6452H49.3402L38.102 47.0673ZM53.2258 38.7097H52.0492C51.8314 38.1649 51.4538 37.6885 50.9303 37.3899L39.0617 30.6077C37.6711 29.8124 35.8759 29.8124 34.4853 30.6077L22.6172 37.3899C21.7992 37.8572 21.2903 38.7338 21.2903 39.6774C21.2903 40.6211 21.7992 41.4976 22.6181 41.9649L23.695 42.5807H19.3548V25.9008L14.5161 16.2234L9.67742 25.9008V42.5807H1.93548V9.67742H58.0645V42.5807H56.129V41.6129C56.129 40.0124 54.8263 38.7097 53.2258 38.7097Z" fill="#123060"/>
</g>
<defs>
<clipPath id="clip0_849_100969">
<rect width="60" height="60" fill="white"/>
</clipPath>
</defs>
</svg>
