<svg width="32" height="32" viewBox="0 0 32 32" fill="none" xmlns="http://www.w3.org/2000/svg">
<rect width="32" height="32" rx="4" fill="#123060"/>
<path d="M9.05944 8.36035C9.0589 8.36035 9.0583 8.36035 9.05776 8.36035C8.8686 8.36035 8.69069 8.43409 8.55634 8.5681C8.42052 8.70359 8.3457 8.88399 8.3457 9.07604V19.8077C8.3457 20.2013 8.66712 20.5222 9.06227 20.5232C10.7281 20.5272 13.5191 20.8744 15.4445 22.8893V11.6583C15.4445 11.5249 15.4104 11.3996 15.3461 11.2958C13.7659 8.75093 10.7291 8.36426 9.05944 8.36035Z" fill="white"/>
<path d="M23.6534 19.8078V9.07604C23.6534 8.88399 23.5786 8.70358 23.4428 8.5681C23.3084 8.43409 23.1304 8.36035 22.9414 8.36035C22.9408 8.36035 22.9402 8.36035 22.9397 8.36035C21.2701 8.36432 18.2333 8.75099 16.653 11.2959C16.5887 11.3996 16.5547 11.5249 16.5547 11.6583V22.8893C18.4801 20.8744 21.2711 20.5272 22.9369 20.5232C23.332 20.5222 23.6534 20.2013 23.6534 19.8078Z" fill="white"/>
<path d="M25.2837 10.8354H24.7647V19.8079C24.7647 20.8127 23.9461 21.6321 22.9398 21.6345C21.5268 21.6379 19.1969 21.9142 17.5469 23.4759C20.4006 22.7772 23.409 23.2314 25.1235 23.6221C25.3375 23.6708 25.5588 23.6205 25.7303 23.4838C25.9012 23.3474 25.9992 23.1436 25.9992 22.9248V11.551C25.9993 11.1565 25.6782 10.8354 25.2837 10.8354Z" fill="white"/>
<path d="M7.23448 19.8079V10.8354H6.71556C6.32108 10.8354 6 11.1565 6 11.551V22.9246C6 23.1434 6.09805 23.3472 6.26896 23.4836C6.44034 23.6202 6.66135 23.6708 6.87576 23.6219C8.59024 23.2311 11.5987 22.777 14.4523 23.4757C12.8023 21.9141 10.4725 21.6378 9.05947 21.6345C8.05321 21.6321 7.23448 20.8127 7.23448 19.8079Z" fill="white"/>
</svg>
