<svg width="16" height="16" viewBox="0 0 16 16" fill="none" xmlns="http://www.w3.org/2000/svg">
<path d="M2.44794 1.8877C2.44751 1.8877 2.44703 1.8877 2.4466 1.8877C2.29527 1.8877 2.15294 1.94669 2.04547 2.05389C1.93681 2.16228 1.87695 2.30661 1.87695 2.46025V11.0456C1.87695 11.3604 2.13409 11.6172 2.45021 11.618C3.7829 11.6212 6.01569 11.8989 7.556 13.5108V4.52603C7.556 4.41931 7.52874 4.31906 7.4773 4.23609C6.21308 2.20015 3.78365 1.89082 2.44794 1.8877Z" fill="#3D3D3D"/>
<path d="M14.1243 11.0457V2.46025C14.1243 2.30661 14.0645 2.16228 13.9558 2.05389C13.8483 1.94669 13.7059 1.8877 13.5547 1.8877C13.5542 1.8877 13.5537 1.8877 13.5533 1.8877C12.2177 1.89087 9.78824 2.20021 8.52397 4.23615C8.47252 4.31911 8.44531 4.41937 8.44531 4.52609V13.5108C9.98563 11.8989 12.2184 11.6212 13.5511 11.618C13.8672 11.6172 14.1243 11.3604 14.1243 11.0457Z" fill="#3D3D3D"/>
<path d="M15.4277 3.86719H15.0126V11.0452C15.0126 11.849 14.3577 12.5045 13.5526 12.5065C12.4222 12.5092 10.5583 12.7302 9.23828 13.9795C11.5213 13.4206 13.928 13.7839 15.2996 14.0965C15.4708 14.1355 15.6478 14.0952 15.785 13.9858C15.9217 13.8768 16.0002 13.7137 16.0002 13.5387V4.43963C16.0002 4.124 15.7434 3.86719 15.4277 3.86719Z" fill="#3D3D3D"/>
<path d="M0.987586 11.0452V3.86719H0.572446C0.256863 3.86719 0 4.124 0 4.43963V13.5385C0 13.7136 0.078438 13.8766 0.215166 13.9857C0.352271 14.095 0.529079 14.1354 0.700608 14.0963C2.0722 13.7837 4.47894 13.4204 6.76183 13.9794C5.44185 12.7301 3.57798 12.5091 2.44758 12.5064C1.64256 12.5045 0.987586 11.849 0.987586 11.0452Z" fill="#3D3D3D"/>
</svg>
