<svg width="28" height="28" viewBox="0 0 28 28" fill="none" xmlns="http://www.w3.org/2000/svg">
<g clip-path="url(#clip0_867_101316)">
<path d="M22.1674 0.533008H22.1673L5.83398 0.533008L5.83393 0.533008C4.42877 0.534567 3.08162 1.09345 2.08802 2.08705C1.09443 3.08064 0.535543 4.4278 0.533984 5.83295V5.83301L0.533984 22.1663L0.533984 22.1664C0.535543 23.5716 1.09443 24.9187 2.08802 25.9123C3.08162 26.9059 4.42877 27.4648 5.83393 27.4663H5.83398H22.1673H22.1674C23.5725 27.4648 24.9197 26.9059 25.9133 25.9123C26.9069 24.9187 27.4658 23.5716 27.4673 22.1664V22.1663V5.83301V5.83295C27.4658 4.4278 26.9069 3.08064 25.9133 2.08705C24.9197 1.09345 23.5725 0.534567 22.1674 0.533008ZM22.1673 26.1997H5.83404C4.76472 26.1984 3.73955 25.773 2.98342 25.0169C2.22729 24.2608 1.80193 23.2356 1.80065 22.1663V7.63301H26.2007V22.1663C26.1994 23.2356 25.774 24.2608 25.0179 25.0169C24.2618 25.773 23.2366 26.1984 22.1673 26.1997ZM26.2007 6.36634H1.80065V5.83307C1.80193 4.76374 2.22729 3.73857 2.98342 2.98244C3.73955 2.22631 4.76472 1.80096 5.83404 1.79967H22.1673C23.2366 1.80096 24.2618 2.22631 25.0179 2.98244C25.774 3.73857 26.1994 4.76374 26.2007 5.83307V6.36634Z" fill="#123060" stroke="#123060" stroke-width="0.1"/>
<path d="M7.00065 3.5H4.66732C4.51261 3.5 4.36424 3.56146 4.25484 3.67085C4.14544 3.78025 4.08398 3.92862 4.08398 4.08333C4.08398 4.23804 4.14544 4.38642 4.25484 4.49581C4.36424 4.60521 4.51261 4.66667 4.66732 4.66667H7.00065C7.15536 4.66667 7.30373 4.60521 7.41313 4.49581C7.52253 4.38642 7.58398 4.23804 7.58398 4.08333C7.58398 3.92862 7.52253 3.78025 7.41313 3.67085C7.30373 3.56146 7.15536 3.5 7.00065 3.5Z" fill="#123060"/>
<path d="M11.6667 3.5H9.33333C9.17862 3.5 9.03025 3.56146 8.92085 3.67085C8.81146 3.78025 8.75 3.92862 8.75 4.08333C8.75 4.23804 8.81146 4.38642 8.92085 4.49581C9.03025 4.60521 9.17862 4.66667 9.33333 4.66667H11.6667C11.8214 4.66667 11.9697 4.60521 12.0791 4.49581C12.1885 4.38642 12.25 4.23804 12.25 4.08333C12.25 3.92862 12.1885 3.78025 12.0791 3.67085C11.9697 3.56146 11.8214 3.5 11.6667 3.5Z" fill="#123060"/>
<path d="M22.1667 19.25H5.83333C5.67862 19.25 5.53025 19.3115 5.42085 19.4209C5.31146 19.5303 5.25 19.6786 5.25 19.8333C5.25 19.988 5.31146 20.1364 5.42085 20.2458C5.53025 20.3552 5.67862 20.4167 5.83333 20.4167H22.1667C22.3214 20.4167 22.4697 20.3552 22.5791 20.2458C22.6885 20.1364 22.75 19.988 22.75 19.8333C22.75 19.6786 22.6885 19.5303 22.5791 19.4209C22.4697 19.3115 22.3214 19.25 22.1667 19.25Z" fill="#123060"/>
<path d="M22.1667 15.75H5.83333C5.67862 15.75 5.53025 15.8115 5.42085 15.9209C5.31146 16.0303 5.25 16.1786 5.25 16.3333C5.25 16.488 5.31146 16.6364 5.42085 16.7458C5.53025 16.8552 5.67862 16.9167 5.83333 16.9167H22.1667C22.3214 16.9167 22.4697 16.8552 22.5791 16.7458C22.6885 16.6364 22.75 16.488 22.75 16.3333C22.75 16.1786 22.6885 16.0303 22.5791 15.9209C22.4697 15.8115 22.3214 15.75 22.1667 15.75Z" fill="#123060"/>
<path d="M22.1667 12.25H5.83333C5.67862 12.25 5.53025 12.3115 5.42085 12.4209C5.31146 12.5303 5.25 12.6786 5.25 12.8333C5.25 12.988 5.31146 13.1364 5.42085 13.2458C5.53025 13.3552 5.67862 13.4167 5.83333 13.4167H22.1667C22.3214 13.4167 22.4697 13.3552 22.5791 13.2458C22.6885 13.1364 22.75 12.988 22.75 12.8333C22.75 12.6786 22.6885 12.5303 22.5791 12.4209C22.4697 12.3115 22.3214 12.25 22.1667 12.25Z" fill="#123060"/>
</g>
<defs>
<clipPath id="clip0_867_101316">
<rect width="28" height="28" fill="white"/>
</clipPath>
</defs>
</svg>
