<svg width="30" height="30" viewBox="0 0 30 30" fill="none" xmlns="http://www.w3.org/2000/svg">
<mask id="path-1-outside-1_867_101241" maskUnits="userSpaceOnUse" x="0" y="0.000976562" width="30" height="30" fill="black">
<rect fill="white" y="0.000976562" width="30" height="30"/>
<path d="M14.9838 1.00098C14.4819 1.00098 13.9804 1.02796 13.4813 1.08174C13.0239 1.12847 12.5722 1.20509 12.1264 1.29806C12.0402 1.31611 11.9539 1.33514 11.8676 1.35506C9.24152 1.95297 6.84359 3.29565 4.96139 5.22211C4.78637 5.40152 4.61502 5.58624 4.44747 5.77622C-0.63689 11.6132 -0.0267208 20.4668 5.81036 25.5511C11.3986 30.4188 19.8103 30.0949 25.0078 24.812C25.1831 24.6326 25.3544 24.4479 25.5217 24.2579C27.7655 21.7027 29.002 18.4177 29 15.0171C29 7.27612 22.7248 1.00092 14.9838 1.00098ZM5.58418 5.92292C5.658 5.8463 5.73462 5.77295 5.80984 5.69866C5.89674 5.61316 5.98317 5.5272 6.07194 5.4445C6.14996 5.37162 6.23032 5.30154 6.31021 5.23052C6.40038 5.15063 6.49009 5.07074 6.58259 4.99365C6.66389 4.92497 6.74752 4.8591 6.83068 4.79275C6.92412 4.718 7.01756 4.64325 7.11381 4.5713C7.19884 4.50729 7.28527 4.44515 7.37217 4.38442C7.46888 4.31527 7.56606 4.24425 7.66464 4.17978C7.75294 4.11998 7.84218 4.06204 7.93188 4.00458C8.03186 3.94057 8.13231 3.8775 8.2337 3.8177C8.32498 3.76321 8.41684 3.7096 8.50935 3.65698C8.61277 3.59811 8.71661 3.54064 8.82097 3.48458C8.91441 3.43476 9.00785 3.386 9.1013 3.33834C9.20782 3.28462 9.31528 3.23276 9.4232 3.18183C9.51664 3.13745 9.61382 3.09306 9.71006 3.05101C9.81986 3.00429 9.93105 2.95757 10.0422 2.91085C10.139 2.87114 10.2352 2.83236 10.3328 2.79499C10.4459 2.752 10.5604 2.71182 10.6748 2.67164C10.7725 2.63754 10.8701 2.60343 10.9692 2.57119C11.0855 2.53382 11.2028 2.49924 11.3205 2.46514C11.4191 2.43664 11.5167 2.40721 11.6158 2.38057C11.6536 2.37076 11.6915 2.36282 11.7293 2.35301C10.3464 3.69581 9.32012 5.36233 8.74342 7.20166C7.63451 6.90919 6.56099 6.49607 5.54213 5.96964C5.55755 5.95329 5.57063 5.93694 5.58418 5.92292ZM4.91234 6.67512C6.03462 7.28319 7.22471 7.75682 8.45795 8.08608C7.85339 10.1883 7.53604 12.3626 7.51467 14.5499H1.91288C2.01467 11.6655 3.06945 8.89627 4.91234 6.67512ZM4.91234 23.359C3.06956 21.1378 2.01479 18.3686 1.91288 15.4843H7.51467C7.53604 17.6715 7.85333 19.8459 8.45795 21.948C7.22477 22.2774 6.03468 22.751 4.91234 23.359ZM11.613 27.6554C11.5186 27.6316 11.421 27.6008 11.3238 27.5723C11.2056 27.5377 11.0869 27.5031 10.9701 27.4653C10.8715 27.4335 10.7744 27.3994 10.6772 27.3653C10.5622 27.3256 10.4473 27.2849 10.3338 27.2415C10.2366 27.2046 10.1408 27.1658 10.0446 27.1265C9.93292 27.0798 9.82126 27.0331 9.71053 26.9864C9.61522 26.9443 9.52038 26.9011 9.426 26.8565C9.31714 26.8051 9.20875 26.7528 9.09896 26.6986C9.00552 26.6519 8.91208 26.6052 8.81864 26.5542C8.71305 26.4977 8.60839 26.4398 8.50374 26.38C8.4103 26.3281 8.32153 26.2748 8.23136 26.2206C8.12857 26.159 8.02766 26.0954 7.92674 26.0305C7.83797 25.974 7.7492 25.9165 7.66184 25.8576C7.56232 25.7903 7.46374 25.7203 7.3661 25.6502C7.2806 25.589 7.1951 25.5278 7.111 25.4633C7.01429 25.3904 6.91945 25.3152 6.82507 25.2395C6.74238 25.1736 6.66015 25.1082 6.57932 25.0405C6.48588 24.9629 6.39571 24.8821 6.30507 24.8017C6.22565 24.7312 6.14576 24.6616 6.0682 24.5896C5.97896 24.5065 5.89253 24.42 5.80563 24.3345C5.73041 24.2602 5.65379 24.1869 5.57997 24.1107C5.56642 24.0963 5.55334 24.0813 5.53979 24.0673C6.55859 23.5406 7.63211 23.1273 8.74108 22.8348C9.3179 24.6741 10.3441 26.3405 11.727 27.6835C11.6891 27.6736 11.6508 27.6657 11.613 27.6554ZM14.5167 28.0619C12.5175 27.7778 10.765 25.6913 9.66241 22.6101C11.2565 22.2531 12.8833 22.0616 14.5167 22.0387V28.0619ZM14.5167 21.1043C12.7839 21.1271 11.0585 21.3329 9.369 21.7182C8.78237 19.6913 8.47291 17.5942 8.44908 15.4843H14.5167V21.1043ZM14.5167 14.5499H8.44908C8.47285 12.4399 8.78231 10.3429 9.369 8.31595C11.0585 8.70121 12.784 8.90702 14.5167 8.92985V14.5499ZM14.5167 7.99544C12.8832 7.97267 11.2565 7.78117 9.66241 7.42405C10.765 4.34283 12.5175 2.2563 14.5167 1.97224V7.99544ZM25.0554 6.67512C26.8982 8.89633 27.953 11.6656 28.0549 14.5499H22.4531C22.4317 12.3626 22.1144 10.1883 21.5098 8.08608C22.743 7.75664 23.9331 7.28307 25.0554 6.67512ZM18.351 2.37824C18.4491 2.40253 18.5468 2.43337 18.644 2.46187C18.7622 2.49644 18.8808 2.53101 18.9976 2.56886C19.0962 2.60063 19.1934 2.63473 19.2906 2.66884C19.4055 2.70855 19.5204 2.7492 19.634 2.79265C19.7311 2.82956 19.8269 2.86834 19.9232 2.90758C20.0348 2.9543 20.1465 3.00102 20.2572 3.04774C20.3525 3.08979 20.4474 3.13307 20.5417 3.17763C20.6506 3.22902 20.759 3.28135 20.8688 3.33554C20.9622 3.38226 21.0557 3.42898 21.1491 3.47991C21.2547 3.53644 21.3594 3.59437 21.464 3.65418C21.5574 3.70603 21.6462 3.7593 21.7364 3.81349C21.8392 3.87516 21.9401 3.9387 22.041 4.00364C22.1298 4.06018 22.2185 4.11764 22.3059 4.17651C22.4054 4.24379 22.5035 4.3134 22.6012 4.38348C22.6871 4.44469 22.7726 4.50636 22.8572 4.57036C22.9535 4.64278 23.0478 4.718 23.1427 4.79369C23.2249 4.8591 23.3076 4.9245 23.3884 4.99272C23.4819 5.07027 23.572 5.1511 23.6627 5.23146C23.7421 5.30201 23.822 5.37162 23.8995 5.44357C23.9888 5.52673 24.0752 5.61316 24.1621 5.69866C24.2373 5.77295 24.314 5.8463 24.3878 5.92245C24.4013 5.93694 24.4144 5.95189 24.428 5.9659C23.4092 6.49256 22.3356 6.90586 21.2267 7.19839C20.6487 5.35889 19.6212 3.69254 18.237 2.35021C18.2749 2.36002 18.3132 2.36796 18.351 2.37824ZM15.4511 1.97224C17.4502 2.2563 19.2027 4.34283 20.3053 7.42405C18.7112 7.781 17.0845 7.97249 15.4511 7.99544V1.97224ZM15.4511 8.92985C17.1838 8.90708 18.9093 8.70127 20.5987 8.31595C21.1854 10.3429 21.4948 12.4399 21.5187 14.5499H15.4511V8.92985ZM15.4511 15.4843H21.5187C21.4949 17.5942 21.1854 19.6913 20.5987 21.7182C18.9093 21.3329 17.1838 21.1271 15.4511 21.1043V15.4843ZM15.4511 28.0619V22.0387C17.0845 22.0615 18.7112 22.253 20.3053 22.6101C19.2027 25.6913 17.4502 27.7778 15.4511 28.0619ZM24.3836 24.1112C24.3097 24.1874 24.2336 24.2607 24.1584 24.335C24.0715 24.4205 23.9846 24.5069 23.8953 24.5901C23.8178 24.6625 23.7379 24.7303 23.6585 24.8027C23.5678 24.883 23.4777 24.9634 23.3852 25.0409C23.3034 25.1092 23.2202 25.175 23.1371 25.2414C23.0436 25.3161 22.9502 25.3909 22.8539 25.4628C22.7689 25.5268 22.6825 25.589 22.5956 25.6497C22.4989 25.7189 22.4017 25.7899 22.3031 25.8544C22.2148 25.9142 22.1256 25.9721 22.0359 26.0291C21.9359 26.0936 21.8351 26.1559 21.7336 26.216C21.6401 26.2706 21.5509 26.3239 21.4589 26.3767C21.3554 26.4356 21.2514 26.493 21.1468 26.5491C21.0533 26.5989 20.9599 26.6477 20.8664 26.6953C20.7599 26.7491 20.6525 26.8009 20.5445 26.8518C20.4511 26.8962 20.3539 26.9406 20.2577 26.9827C20.1479 27.0294 20.0367 27.0761 19.9255 27.1228C19.8288 27.1621 19.7325 27.2013 19.6354 27.2382C19.5214 27.2817 19.4069 27.3223 19.292 27.362C19.1948 27.3961 19.0976 27.4302 18.999 27.462C18.8822 27.4998 18.7654 27.5344 18.6463 27.5685C18.5486 27.5975 18.4505 27.6265 18.352 27.6531C18.3141 27.6629 18.2763 27.6708 18.2384 27.6807C19.6213 26.3378 20.6476 24.6713 21.2243 22.832C22.3332 23.1245 23.4068 23.5376 24.4256 24.064C24.4102 24.0808 24.3971 24.0972 24.3836 24.1112ZM25.0554 23.359C23.9331 22.7509 22.743 22.2773 21.5098 21.948C22.1144 19.8459 22.4317 17.6715 22.4531 15.4843H28.0549C27.9531 18.3686 26.8983 21.1379 25.0554 23.359Z"/>
</mask>
<path d="M14.9838 1.00098C14.4819 1.00098 13.9804 1.02796 13.4813 1.08174C13.0239 1.12847 12.5722 1.20509 12.1264 1.29806C12.0402 1.31611 11.9539 1.33514 11.8676 1.35506C9.24152 1.95297 6.84359 3.29565 4.96139 5.22211C4.78637 5.40152 4.61502 5.58624 4.44747 5.77622C-0.63689 11.6132 -0.0267208 20.4668 5.81036 25.5511C11.3986 30.4188 19.8103 30.0949 25.0078 24.812C25.1831 24.6326 25.3544 24.4479 25.5217 24.2579C27.7655 21.7027 29.002 18.4177 29 15.0171C29 7.27612 22.7248 1.00092 14.9838 1.00098ZM5.58418 5.92292C5.658 5.8463 5.73462 5.77295 5.80984 5.69866C5.89674 5.61316 5.98317 5.5272 6.07194 5.4445C6.14996 5.37162 6.23032 5.30154 6.31021 5.23052C6.40038 5.15063 6.49009 5.07074 6.58259 4.99365C6.66389 4.92497 6.74752 4.8591 6.83068 4.79275C6.92412 4.718 7.01756 4.64325 7.11381 4.5713C7.19884 4.50729 7.28527 4.44515 7.37217 4.38442C7.46888 4.31527 7.56606 4.24425 7.66464 4.17978C7.75294 4.11998 7.84218 4.06204 7.93188 4.00458C8.03186 3.94057 8.13231 3.8775 8.2337 3.8177C8.32498 3.76321 8.41684 3.7096 8.50935 3.65698C8.61277 3.59811 8.71661 3.54064 8.82097 3.48458C8.91441 3.43476 9.00785 3.386 9.1013 3.33834C9.20782 3.28462 9.31528 3.23276 9.4232 3.18183C9.51664 3.13745 9.61382 3.09306 9.71006 3.05101C9.81986 3.00429 9.93105 2.95757 10.0422 2.91085C10.139 2.87114 10.2352 2.83236 10.3328 2.79499C10.4459 2.752 10.5604 2.71182 10.6748 2.67164C10.7725 2.63754 10.8701 2.60343 10.9692 2.57119C11.0855 2.53382 11.2028 2.49924 11.3205 2.46514C11.4191 2.43664 11.5167 2.40721 11.6158 2.38057C11.6536 2.37076 11.6915 2.36282 11.7293 2.35301C10.3464 3.69581 9.32012 5.36233 8.74342 7.20166C7.63451 6.90919 6.56099 6.49607 5.54213 5.96964C5.55755 5.95329 5.57063 5.93694 5.58418 5.92292ZM4.91234 6.67512C6.03462 7.28319 7.22471 7.75682 8.45795 8.08608C7.85339 10.1883 7.53604 12.3626 7.51467 14.5499H1.91288C2.01467 11.6655 3.06945 8.89627 4.91234 6.67512ZM4.91234 23.359C3.06956 21.1378 2.01479 18.3686 1.91288 15.4843H7.51467C7.53604 17.6715 7.85333 19.8459 8.45795 21.948C7.22477 22.2774 6.03468 22.751 4.91234 23.359ZM11.613 27.6554C11.5186 27.6316 11.421 27.6008 11.3238 27.5723C11.2056 27.5377 11.0869 27.5031 10.9701 27.4653C10.8715 27.4335 10.7744 27.3994 10.6772 27.3653C10.5622 27.3256 10.4473 27.2849 10.3338 27.2415C10.2366 27.2046 10.1408 27.1658 10.0446 27.1265C9.93292 27.0798 9.82126 27.0331 9.71053 26.9864C9.61522 26.9443 9.52038 26.9011 9.426 26.8565C9.31714 26.8051 9.20875 26.7528 9.09896 26.6986C9.00552 26.6519 8.91208 26.6052 8.81864 26.5542C8.71305 26.4977 8.60839 26.4398 8.50374 26.38C8.4103 26.3281 8.32153 26.2748 8.23136 26.2206C8.12857 26.159 8.02766 26.0954 7.92674 26.0305C7.83797 25.974 7.7492 25.9165 7.66184 25.8576C7.56232 25.7903 7.46374 25.7203 7.3661 25.6502C7.2806 25.589 7.1951 25.5278 7.111 25.4633C7.01429 25.3904 6.91945 25.3152 6.82507 25.2395C6.74238 25.1736 6.66015 25.1082 6.57932 25.0405C6.48588 24.9629 6.39571 24.8821 6.30507 24.8017C6.22565 24.7312 6.14576 24.6616 6.0682 24.5896C5.97896 24.5065 5.89253 24.42 5.80563 24.3345C5.73041 24.2602 5.65379 24.1869 5.57997 24.1107C5.56642 24.0963 5.55334 24.0813 5.53979 24.0673C6.55859 23.5406 7.63211 23.1273 8.74108 22.8348C9.3179 24.6741 10.3441 26.3405 11.727 27.6835C11.6891 27.6736 11.6508 27.6657 11.613 27.6554ZM14.5167 28.0619C12.5175 27.7778 10.765 25.6913 9.66241 22.6101C11.2565 22.2531 12.8833 22.0616 14.5167 22.0387V28.0619ZM14.5167 21.1043C12.7839 21.1271 11.0585 21.3329 9.369 21.7182C8.78237 19.6913 8.47291 17.5942 8.44908 15.4843H14.5167V21.1043ZM14.5167 14.5499H8.44908C8.47285 12.4399 8.78231 10.3429 9.369 8.31595C11.0585 8.70121 12.784 8.90702 14.5167 8.92985V14.5499ZM14.5167 7.99544C12.8832 7.97267 11.2565 7.78117 9.66241 7.42405C10.765 4.34283 12.5175 2.2563 14.5167 1.97224V7.99544ZM25.0554 6.67512C26.8982 8.89633 27.953 11.6656 28.0549 14.5499H22.4531C22.4317 12.3626 22.1144 10.1883 21.5098 8.08608C22.743 7.75664 23.9331 7.28307 25.0554 6.67512ZM18.351 2.37824C18.4491 2.40253 18.5468 2.43337 18.644 2.46187C18.7622 2.49644 18.8808 2.53101 18.9976 2.56886C19.0962 2.60063 19.1934 2.63473 19.2906 2.66884C19.4055 2.70855 19.5204 2.7492 19.634 2.79265C19.7311 2.82956 19.8269 2.86834 19.9232 2.90758C20.0348 2.9543 20.1465 3.00102 20.2572 3.04774C20.3525 3.08979 20.4474 3.13307 20.5417 3.17763C20.6506 3.22902 20.759 3.28135 20.8688 3.33554C20.9622 3.38226 21.0557 3.42898 21.1491 3.47991C21.2547 3.53644 21.3594 3.59437 21.464 3.65418C21.5574 3.70603 21.6462 3.7593 21.7364 3.81349C21.8392 3.87516 21.9401 3.9387 22.041 4.00364C22.1298 4.06018 22.2185 4.11764 22.3059 4.17651C22.4054 4.24379 22.5035 4.3134 22.6012 4.38348C22.6871 4.44469 22.7726 4.50636 22.8572 4.57036C22.9535 4.64278 23.0478 4.718 23.1427 4.79369C23.2249 4.8591 23.3076 4.9245 23.3884 4.99272C23.4819 5.07027 23.572 5.1511 23.6627 5.23146C23.7421 5.30201 23.822 5.37162 23.8995 5.44357C23.9888 5.52673 24.0752 5.61316 24.1621 5.69866C24.2373 5.77295 24.314 5.8463 24.3878 5.92245C24.4013 5.93694 24.4144 5.95189 24.428 5.9659C23.4092 6.49256 22.3356 6.90586 21.2267 7.19839C20.6487 5.35889 19.6212 3.69254 18.237 2.35021C18.2749 2.36002 18.3132 2.36796 18.351 2.37824ZM15.4511 1.97224C17.4502 2.2563 19.2027 4.34283 20.3053 7.42405C18.7112 7.781 17.0845 7.97249 15.4511 7.99544V1.97224ZM15.4511 8.92985C17.1838 8.90708 18.9093 8.70127 20.5987 8.31595C21.1854 10.3429 21.4948 12.4399 21.5187 14.5499H15.4511V8.92985ZM15.4511 15.4843H21.5187C21.4949 17.5942 21.1854 19.6913 20.5987 21.7182C18.9093 21.3329 17.1838 21.1271 15.4511 21.1043V15.4843ZM15.4511 28.0619V22.0387C17.0845 22.0615 18.7112 22.253 20.3053 22.6101C19.2027 25.6913 17.4502 27.7778 15.4511 28.0619ZM24.3836 24.1112C24.3097 24.1874 24.2336 24.2607 24.1584 24.335C24.0715 24.4205 23.9846 24.5069 23.8953 24.5901C23.8178 24.6625 23.7379 24.7303 23.6585 24.8027C23.5678 24.883 23.4777 24.9634 23.3852 25.0409C23.3034 25.1092 23.2202 25.175 23.1371 25.2414C23.0436 25.3161 22.9502 25.3909 22.8539 25.4628C22.7689 25.5268 22.6825 25.589 22.5956 25.6497C22.4989 25.7189 22.4017 25.7899 22.3031 25.8544C22.2148 25.9142 22.1256 25.9721 22.0359 26.0291C21.9359 26.0936 21.8351 26.1559 21.7336 26.216C21.6401 26.2706 21.5509 26.3239 21.4589 26.3767C21.3554 26.4356 21.2514 26.493 21.1468 26.5491C21.0533 26.5989 20.9599 26.6477 20.8664 26.6953C20.7599 26.7491 20.6525 26.8009 20.5445 26.8518C20.4511 26.8962 20.3539 26.9406 20.2577 26.9827C20.1479 27.0294 20.0367 27.0761 19.9255 27.1228C19.8288 27.1621 19.7325 27.2013 19.6354 27.2382C19.5214 27.2817 19.4069 27.3223 19.292 27.362C19.1948 27.3961 19.0976 27.4302 18.999 27.462C18.8822 27.4998 18.7654 27.5344 18.6463 27.5685C18.5486 27.5975 18.4505 27.6265 18.352 27.6531C18.3141 27.6629 18.2763 27.6708 18.2384 27.6807C19.6213 26.3378 20.6476 24.6713 21.2243 22.832C22.3332 23.1245 23.4068 23.5376 24.4256 24.064C24.4102 24.0808 24.3971 24.0972 24.3836 24.1112ZM25.0554 23.359C23.9331 22.7509 22.743 22.2773 21.5098 21.948C22.1144 19.8459 22.4317 17.6715 22.4531 15.4843H28.0549C27.9531 18.3686 26.8983 21.1379 25.0554 23.359Z" fill="#123060"/>
<path d="M14.9838 1.00098C14.4819 1.00098 13.9804 1.02796 13.4813 1.08174C13.0239 1.12847 12.5722 1.20509 12.1264 1.29806C12.0402 1.31611 11.9539 1.33514 11.8676 1.35506C9.24152 1.95297 6.84359 3.29565 4.96139 5.22211C4.78637 5.40152 4.61502 5.58624 4.44747 5.77622C-0.63689 11.6132 -0.0267208 20.4668 5.81036 25.5511C11.3986 30.4188 19.8103 30.0949 25.0078 24.812C25.1831 24.6326 25.3544 24.4479 25.5217 24.2579C27.7655 21.7027 29.002 18.4177 29 15.0171C29 7.27612 22.7248 1.00092 14.9838 1.00098ZM5.58418 5.92292C5.658 5.8463 5.73462 5.77295 5.80984 5.69866C5.89674 5.61316 5.98317 5.5272 6.07194 5.4445C6.14996 5.37162 6.23032 5.30154 6.31021 5.23052C6.40038 5.15063 6.49009 5.07074 6.58259 4.99365C6.66389 4.92497 6.74752 4.8591 6.83068 4.79275C6.92412 4.718 7.01756 4.64325 7.11381 4.5713C7.19884 4.50729 7.28527 4.44515 7.37217 4.38442C7.46888 4.31527 7.56606 4.24425 7.66464 4.17978C7.75294 4.11998 7.84218 4.06204 7.93188 4.00458C8.03186 3.94057 8.13231 3.8775 8.2337 3.8177C8.32498 3.76321 8.41684 3.7096 8.50935 3.65698C8.61277 3.59811 8.71661 3.54064 8.82097 3.48458C8.91441 3.43476 9.00785 3.386 9.1013 3.33834C9.20782 3.28462 9.31528 3.23276 9.4232 3.18183C9.51664 3.13745 9.61382 3.09306 9.71006 3.05101C9.81986 3.00429 9.93105 2.95757 10.0422 2.91085C10.139 2.87114 10.2352 2.83236 10.3328 2.79499C10.4459 2.752 10.5604 2.71182 10.6748 2.67164C10.7725 2.63754 10.8701 2.60343 10.9692 2.57119C11.0855 2.53382 11.2028 2.49924 11.3205 2.46514C11.4191 2.43664 11.5167 2.40721 11.6158 2.38057C11.6536 2.37076 11.6915 2.36282 11.7293 2.35301C10.3464 3.69581 9.32012 5.36233 8.74342 7.20166C7.63451 6.90919 6.56099 6.49607 5.54213 5.96964C5.55755 5.95329 5.57063 5.93694 5.58418 5.92292ZM4.91234 6.67512C6.03462 7.28319 7.22471 7.75682 8.45795 8.08608C7.85339 10.1883 7.53604 12.3626 7.51467 14.5499H1.91288C2.01467 11.6655 3.06945 8.89627 4.91234 6.67512ZM4.91234 23.359C3.06956 21.1378 2.01479 18.3686 1.91288 15.4843H7.51467C7.53604 17.6715 7.85333 19.8459 8.45795 21.948C7.22477 22.2774 6.03468 22.751 4.91234 23.359ZM11.613 27.6554C11.5186 27.6316 11.421 27.6008 11.3238 27.5723C11.2056 27.5377 11.0869 27.5031 10.9701 27.4653C10.8715 27.4335 10.7744 27.3994 10.6772 27.3653C10.5622 27.3256 10.4473 27.2849 10.3338 27.2415C10.2366 27.2046 10.1408 27.1658 10.0446 27.1265C9.93292 27.0798 9.82126 27.0331 9.71053 26.9864C9.61522 26.9443 9.52038 26.9011 9.426 26.8565C9.31714 26.8051 9.20875 26.7528 9.09896 26.6986C9.00552 26.6519 8.91208 26.6052 8.81864 26.5542C8.71305 26.4977 8.60839 26.4398 8.50374 26.38C8.4103 26.3281 8.32153 26.2748 8.23136 26.2206C8.12857 26.159 8.02766 26.0954 7.92674 26.0305C7.83797 25.974 7.7492 25.9165 7.66184 25.8576C7.56232 25.7903 7.46374 25.7203 7.3661 25.6502C7.2806 25.589 7.1951 25.5278 7.111 25.4633C7.01429 25.3904 6.91945 25.3152 6.82507 25.2395C6.74238 25.1736 6.66015 25.1082 6.57932 25.0405C6.48588 24.9629 6.39571 24.8821 6.30507 24.8017C6.22565 24.7312 6.14576 24.6616 6.0682 24.5896C5.97896 24.5065 5.89253 24.42 5.80563 24.3345C5.73041 24.2602 5.65379 24.1869 5.57997 24.1107C5.56642 24.0963 5.55334 24.0813 5.53979 24.0673C6.55859 23.5406 7.63211 23.1273 8.74108 22.8348C9.3179 24.6741 10.3441 26.3405 11.727 27.6835C11.6891 27.6736 11.6508 27.6657 11.613 27.6554ZM14.5167 28.0619C12.5175 27.7778 10.765 25.6913 9.66241 22.6101C11.2565 22.2531 12.8833 22.0616 14.5167 22.0387V28.0619ZM14.5167 21.1043C12.7839 21.1271 11.0585 21.3329 9.369 21.7182C8.78237 19.6913 8.47291 17.5942 8.44908 15.4843H14.5167V21.1043ZM14.5167 14.5499H8.44908C8.47285 12.4399 8.78231 10.3429 9.369 8.31595C11.0585 8.70121 12.784 8.90702 14.5167 8.92985V14.5499ZM14.5167 7.99544C12.8832 7.97267 11.2565 7.78117 9.66241 7.42405C10.765 4.34283 12.5175 2.2563 14.5167 1.97224V7.99544ZM25.0554 6.67512C26.8982 8.89633 27.953 11.6656 28.0549 14.5499H22.4531C22.4317 12.3626 22.1144 10.1883 21.5098 8.08608C22.743 7.75664 23.9331 7.28307 25.0554 6.67512ZM18.351 2.37824C18.4491 2.40253 18.5468 2.43337 18.644 2.46187C18.7622 2.49644 18.8808 2.53101 18.9976 2.56886C19.0962 2.60063 19.1934 2.63473 19.2906 2.66884C19.4055 2.70855 19.5204 2.7492 19.634 2.79265C19.7311 2.82956 19.8269 2.86834 19.9232 2.90758C20.0348 2.9543 20.1465 3.00102 20.2572 3.04774C20.3525 3.08979 20.4474 3.13307 20.5417 3.17763C20.6506 3.22902 20.759 3.28135 20.8688 3.33554C20.9622 3.38226 21.0557 3.42898 21.1491 3.47991C21.2547 3.53644 21.3594 3.59437 21.464 3.65418C21.5574 3.70603 21.6462 3.7593 21.7364 3.81349C21.8392 3.87516 21.9401 3.9387 22.041 4.00364C22.1298 4.06018 22.2185 4.11764 22.3059 4.17651C22.4054 4.24379 22.5035 4.3134 22.6012 4.38348C22.6871 4.44469 22.7726 4.50636 22.8572 4.57036C22.9535 4.64278 23.0478 4.718 23.1427 4.79369C23.2249 4.8591 23.3076 4.9245 23.3884 4.99272C23.4819 5.07027 23.572 5.1511 23.6627 5.23146C23.7421 5.30201 23.822 5.37162 23.8995 5.44357C23.9888 5.52673 24.0752 5.61316 24.1621 5.69866C24.2373 5.77295 24.314 5.8463 24.3878 5.92245C24.4013 5.93694 24.4144 5.95189 24.428 5.9659C23.4092 6.49256 22.3356 6.90586 21.2267 7.19839C20.6487 5.35889 19.6212 3.69254 18.237 2.35021C18.2749 2.36002 18.3132 2.36796 18.351 2.37824ZM15.4511 1.97224C17.4502 2.2563 19.2027 4.34283 20.3053 7.42405C18.7112 7.781 17.0845 7.97249 15.4511 7.99544V1.97224ZM15.4511 8.92985C17.1838 8.90708 18.9093 8.70127 20.5987 8.31595C21.1854 10.3429 21.4948 12.4399 21.5187 14.5499H15.4511V8.92985ZM15.4511 15.4843H21.5187C21.4949 17.5942 21.1854 19.6913 20.5987 21.7182C18.9093 21.3329 17.1838 21.1271 15.4511 21.1043V15.4843ZM15.4511 28.0619V22.0387C17.0845 22.0615 18.7112 22.253 20.3053 22.6101C19.2027 25.6913 17.4502 27.7778 15.4511 28.0619ZM24.3836 24.1112C24.3097 24.1874 24.2336 24.2607 24.1584 24.335C24.0715 24.4205 23.9846 24.5069 23.8953 24.5901C23.8178 24.6625 23.7379 24.7303 23.6585 24.8027C23.5678 24.883 23.4777 24.9634 23.3852 25.0409C23.3034 25.1092 23.2202 25.175 23.1371 25.2414C23.0436 25.3161 22.9502 25.3909 22.8539 25.4628C22.7689 25.5268 22.6825 25.589 22.5956 25.6497C22.4989 25.7189 22.4017 25.7899 22.3031 25.8544C22.2148 25.9142 22.1256 25.9721 22.0359 26.0291C21.9359 26.0936 21.8351 26.1559 21.7336 26.216C21.6401 26.2706 21.5509 26.3239 21.4589 26.3767C21.3554 26.4356 21.2514 26.493 21.1468 26.5491C21.0533 26.5989 20.9599 26.6477 20.8664 26.6953C20.7599 26.7491 20.6525 26.8009 20.5445 26.8518C20.4511 26.8962 20.3539 26.9406 20.2577 26.9827C20.1479 27.0294 20.0367 27.0761 19.9255 27.1228C19.8288 27.1621 19.7325 27.2013 19.6354 27.2382C19.5214 27.2817 19.4069 27.3223 19.292 27.362C19.1948 27.3961 19.0976 27.4302 18.999 27.462C18.8822 27.4998 18.7654 27.5344 18.6463 27.5685C18.5486 27.5975 18.4505 27.6265 18.352 27.6531C18.3141 27.6629 18.2763 27.6708 18.2384 27.6807C19.6213 26.3378 20.6476 24.6713 21.2243 22.832C22.3332 23.1245 23.4068 23.5376 24.4256 24.064C24.4102 24.0808 24.3971 24.0972 24.3836 24.1112ZM25.0554 23.359C23.9331 22.7509 22.743 22.2773 21.5098 21.948C22.1144 19.8459 22.4317 17.6715 22.4531 15.4843H28.0549C27.9531 18.3686 26.8983 21.1379 25.0554 23.359Z" stroke="#123060" stroke-width="0.4" mask="url(#path-1-outside-1_867_101241)"/>
</svg>
