<svg width="28" height="28" viewBox="0 0 28 28" fill="none" xmlns="http://www.w3.org/2000/svg">
<path d="M10.1895 9.7168C10.0154 9.7168 9.84848 9.78594 9.72541 9.90901C9.60234 10.0321 9.5332 10.199 9.5332 10.373V20.8293C9.5332 21.0033 9.60234 21.1703 9.72541 21.2933C9.84848 21.4164 10.0154 21.4855 10.1895 21.4855C10.3635 21.4855 10.5304 21.4164 10.6535 21.2933C10.7766 21.1703 10.8457 21.0033 10.8457 20.8293V10.373C10.8446 10.1994 10.775 10.0331 10.6522 9.91028C10.5294 9.78745 10.3631 9.71794 10.1895 9.7168Z" fill="#123060"/>
<path d="M14 9.7168C13.826 9.7168 13.659 9.78594 13.536 9.90901C13.4129 10.0321 13.3438 10.199 13.3438 10.373V20.8293C13.3438 21.0033 13.4129 21.1703 13.536 21.2933C13.659 21.4164 13.826 21.4855 14 21.4855C14.174 21.4855 14.341 21.4164 14.464 21.2933C14.5871 21.1703 14.6562 21.0033 14.6562 20.8293V10.373C14.6562 10.199 14.5871 10.0321 14.464 9.90901C14.341 9.78594 14.174 9.7168 14 9.7168Z" fill="#123060"/>
<path d="M17.8105 9.7168C17.6369 9.71794 17.4706 9.78745 17.3478 9.91028C17.225 10.0331 17.1554 10.1994 17.1543 10.373V20.8293C17.1543 21.0033 17.2234 21.1703 17.3465 21.2933C17.4696 21.4164 17.6365 21.4855 17.8105 21.4855C17.9846 21.4855 18.1515 21.4164 18.2746 21.2933C18.3977 21.1703 18.4668 21.0033 18.4668 20.8293V10.373C18.4668 10.199 18.3977 10.0321 18.2746 9.90901C18.1515 9.78594 17.9846 9.7168 17.8105 9.7168Z" fill="#123060"/>
<path d="M24.9995 4.59375H18.8395L17.737 1.53125C17.6918 1.4036 17.6083 1.29303 17.4979 1.21471C17.3874 1.13638 17.2555 1.09413 17.1201 1.09375H10.8813C10.7459 1.09413 10.614 1.13638 10.5035 1.21471C10.3931 1.29303 10.3096 1.4036 10.2645 1.53125L9.16195 4.59375H3.00195C2.8279 4.59375 2.66098 4.66289 2.53791 4.78596C2.41484 4.90903 2.3457 5.07595 2.3457 5.25C2.3457 5.42405 2.41484 5.59097 2.53791 5.71404C2.66098 5.83711 2.8279 5.90625 3.00195 5.90625H3.83758L5.46945 23.7913C5.54307 24.6442 5.93499 25.4381 6.56727 26.0153C7.19954 26.5925 8.02587 26.9105 8.88195 26.9062H19.1195C19.9755 26.9105 20.8019 26.5925 21.4341 26.0153C22.0664 25.4381 22.4583 24.6442 22.532 23.7913L24.1638 5.90625H24.9995C25.1735 5.90625 25.3404 5.83711 25.4635 5.71404C25.5866 5.59097 25.6557 5.42405 25.6557 5.25C25.6557 5.07595 25.5866 4.90903 25.4635 4.78596C25.3404 4.66289 25.1735 4.59375 24.9995 4.59375ZM11.3451 2.40625H16.6563L17.4438 4.59375H10.5576L11.3451 2.40625ZM21.2282 23.6687C21.1821 24.1956 20.9398 24.6859 20.5492 25.0424C20.1586 25.399 19.6483 25.5958 19.1195 25.5938H8.88195C8.3531 25.5958 7.84281 25.399 7.45222 25.0424C7.06164 24.6859 6.81928 24.1956 6.7732 23.6687L5.15883 5.90625H22.8426L21.2282 23.6687Z" fill="#123060"/>
</svg>
