<svg width="28" height="28" viewBox="0 0 28 28" fill="none" xmlns="http://www.w3.org/2000/svg">
<g clip-path="url(#clip0_867_101120)">
<path d="M14 0C6.28042 0 0 6.28042 0 14C0 21.719 6.28261 28 14 28C21.7326 28 28 21.7032 28 14C28 6.28042 21.7196 0 14 0ZM14 26.1739C11.149 26.1739 8.5242 25.1885 6.44716 23.5408C7.73314 20.541 10.6942 18.5653 14 18.5653C17.3063 18.5653 20.2679 20.5405 21.5541 23.5397C19.4769 25.188 16.8516 26.1739 14 26.1739ZM9.4348 12.1739C9.4348 9.65666 11.4827 7.60873 14 7.60873C16.5173 7.60873 18.5652 9.65666 18.5652 12.1739C18.5652 14.6912 16.5173 16.7391 14 16.7391C11.4827 16.7391 9.4348 14.6912 9.4348 12.1739ZM22.9589 22.2335C21.8303 20.0096 19.9225 18.3086 17.6435 17.4219C19.303 16.2662 20.3913 14.345 20.3913 12.1739C20.3913 8.64976 17.5242 5.7826 14 5.7826C10.4758 5.7826 7.60867 8.64976 7.60867 12.1739C7.60867 14.3451 8.69712 16.2665 10.3568 17.4221C8.07811 18.309 6.17066 20.0104 5.0423 22.2348C3.04664 20.0657 1.82607 17.1728 1.82607 14C1.82607 7.28733 7.28727 1.82607 14 1.82607C20.7127 1.82607 26.1739 7.28733 26.1739 14C26.1739 17.1723 24.9539 20.0646 22.9589 22.2335Z" fill="#123060"/>
</g>
<defs>
<clipPath id="clip0_867_101120">
<rect width="28" height="28" fill="white"/>
</clipPath>
</defs>
</svg>
