<svg width="24" height="24" viewBox="0 0 24 24" fill="none" xmlns="http://www.w3.org/2000/svg">
<g clip-path="url(#clip0_862_101126)">
<path d="M19.0001 0.45H19L5 0.45L4.99994 0.45C3.79363 0.451338 2.63712 0.931136 1.78413 1.78413C0.931136 2.63712 0.451338 3.79363 0.45 4.99994V5L0.45 19L0.45 19.0001C0.451338 20.2064 0.931136 21.3629 1.78413 22.2159C2.63712 23.0689 3.79363 23.5487 4.99994 23.55H5H19H19.0001C20.2064 23.5487 21.3629 23.0689 22.2159 22.2159C23.0689 21.3629 23.5487 20.2064 23.55 19.0001V19V5V4.99994C23.5487 3.79363 23.0689 2.63712 22.2159 1.78413C21.3629 0.931136 20.2064 0.451338 19.0001 0.45ZM18.9999 22.45H5.00006C4.08538 22.4489 3.20848 22.0851 2.56171 21.4383C1.91493 20.7915 1.5511 19.9146 1.55 18.9999V6.55H22.45V18.9999C22.4489 19.9146 22.0851 20.7915 21.4383 21.4383C20.7915 22.0851 19.9146 22.4489 18.9999 22.45ZM22.45 5.45H1.55V5.00006C1.5511 4.08538 1.91493 3.20848 2.56171 2.56171C3.20848 1.91493 4.08538 1.5511 5.00006 1.55H18.9999C19.9146 1.5511 20.7915 1.91493 21.4383 2.56171C22.0851 3.20848 22.4489 4.08538 22.45 5.00006V5.45Z" fill="#3D3D3D" stroke="#3D3D3D" stroke-width="0.1"/>
<path d="M6 3H4C3.86739 3 3.74021 3.05268 3.64645 3.14645C3.55268 3.24021 3.5 3.36739 3.5 3.5C3.5 3.63261 3.55268 3.75979 3.64645 3.85355C3.74021 3.94732 3.86739 4 4 4H6C6.13261 4 6.25978 3.94732 6.35355 3.85355C6.44732 3.75979 6.5 3.63261 6.5 3.5C6.5 3.36739 6.44732 3.24021 6.35355 3.14645C6.25978 3.05268 6.13261 3 6 3Z" fill="#3D3D3D"/>
<path d="M10 3H8C7.86739 3 7.74021 3.05268 7.64645 3.14645C7.55268 3.24021 7.5 3.36739 7.5 3.5C7.5 3.63261 7.55268 3.75979 7.64645 3.85355C7.74021 3.94732 7.86739 4 8 4H10C10.1326 4 10.2598 3.94732 10.3536 3.85355C10.4473 3.75979 10.5 3.63261 10.5 3.5C10.5 3.36739 10.4473 3.24021 10.3536 3.14645C10.2598 3.05268 10.1326 3 10 3Z" fill="#3D3D3D"/>
<path d="M19 16.5H5C4.86739 16.5 4.74021 16.5527 4.64645 16.6464C4.55268 16.7402 4.5 16.8674 4.5 17C4.5 17.1326 4.55268 17.2598 4.64645 17.3536C4.74021 17.4473 4.86739 17.5 5 17.5H19C19.1326 17.5 19.2598 17.4473 19.3536 17.3536C19.4473 17.2598 19.5 17.1326 19.5 17C19.5 16.8674 19.4473 16.7402 19.3536 16.6464C19.2598 16.5527 19.1326 16.5 19 16.5Z" fill="#3D3D3D"/>
<path d="M19 13.5H5C4.86739 13.5 4.74021 13.5527 4.64645 13.6464C4.55268 13.7402 4.5 13.8674 4.5 14C4.5 14.1326 4.55268 14.2598 4.64645 14.3536C4.74021 14.4473 4.86739 14.5 5 14.5H19C19.1326 14.5 19.2598 14.4473 19.3536 14.3536C19.4473 14.2598 19.5 14.1326 19.5 14C19.5 13.8674 19.4473 13.7402 19.3536 13.6464C19.2598 13.5527 19.1326 13.5 19 13.5Z" fill="#3D3D3D"/>
<path d="M19 10.5H5C4.86739 10.5 4.74021 10.5527 4.64645 10.6464C4.55268 10.7402 4.5 10.8674 4.5 11C4.5 11.1326 4.55268 11.2598 4.64645 11.3536C4.74021 11.4473 4.86739 11.5 5 11.5H19C19.1326 11.5 19.2598 11.4473 19.3536 11.3536C19.4473 11.2598 19.5 11.1326 19.5 11C19.5 10.8674 19.4473 10.7402 19.3536 10.6464C19.2598 10.5527 19.1326 10.5 19 10.5Z" fill="#3D3D3D"/>
</g>
<defs>
<clipPath id="clip0_862_101126">
<rect width="24" height="24" fill="white"/>
</clipPath>
</defs>
</svg>
