<svg width="21" height="20" viewBox="0 0 21 20" fill="none" xmlns="http://www.w3.org/2000/svg">
<path d="M6.93164 5.83341H14.8483V4.16675C14.8483 2.50008 14.2233 1.66675 12.3483 1.66675H9.43164C7.55664 1.66675 6.93164 2.50008 6.93164 4.16675V5.83341Z" stroke="white" stroke-width="1.5" stroke-miterlimit="10" stroke-linecap="round" stroke-linejoin="round"/>
<path d="M14.2233 12.5V15.8333C14.2233 17.5 13.39 18.3333 11.7233 18.3333H10.0566C8.38997 18.3333 7.55664 17.5 7.55664 15.8333V12.5H14.2233Z" stroke="white" stroke-width="1.5" stroke-miterlimit="10" stroke-linecap="round" stroke-linejoin="round"/>
<path d="M18.3906 8.33325V12.4999C18.3906 14.1666 17.5573 14.9999 15.8906 14.9999H14.224V12.4999H7.55729V14.9999H5.89062C4.22396 14.9999 3.39062 14.1666 3.39062 12.4999V8.33325C3.39062 6.66659 4.22396 5.83325 5.89062 5.83325H15.8906C17.5573 5.83325 18.3906 6.66659 18.3906 8.33325Z" stroke="white" stroke-width="1.5" stroke-miterlimit="10" stroke-linecap="round" stroke-linejoin="round"/>
<path d="M15.0579 12.5H14.0496H6.72461" stroke="white" stroke-width="1.5" stroke-miterlimit="10" stroke-linecap="round" stroke-linejoin="round"/>
<path d="M6.72461 9.16675H9.22461" stroke="white" stroke-width="1.5" stroke-miterlimit="10" stroke-linecap="round" stroke-linejoin="round"/>
</svg>
