<svg width="40" height="40" viewBox="0 0 40 40" fill="none" xmlns="http://www.w3.org/2000/svg">
<g opacity="0.7" clip-path="url(#clip0_416_51919)">
<path d="M25.8031 4.21844C25.667 3.79059 25.2974 3.47809 24.8522 3.41522L22.2188 3.04108L21.046 0.592346C20.6474 -0.197449 19.3523 -0.197449 18.954 0.592346L17.7809 3.04108L15.1476 3.41522C14.7023 3.47809 14.3327 3.79059 14.1966 4.21844C14.0593 4.64661 14.1792 5.11475 14.5043 5.4248L16.3927 7.22137L15.9474 9.75281C15.8708 10.191 16.0481 10.6351 16.4064 10.8984C16.7699 11.167 17.2484 11.1978 17.6378 10.9979L19.9999 9.78485L22.3631 10.9979C22.758 11.2027 23.2363 11.1618 23.5933 10.8984C23.9516 10.6342 24.1289 10.1901 24.0523 9.75281L23.607 7.22137L25.4955 5.4248C25.8205 5.11475 25.9404 4.64661 25.8031 4.21844Z" fill="#3D3D3D"/>
<path d="M39.9437 8.90584C39.8076 8.47798 39.438 8.16548 38.9928 8.10262L36.2813 7.72847L35.1082 5.40852C34.7099 4.61903 33.4145 4.61903 33.0162 5.40852L31.8434 7.72847L29.2101 8.10262C28.7648 8.16548 28.3952 8.47798 28.2591 8.90584C28.1218 9.334 28.2417 9.80214 28.5668 10.1122L30.4552 11.9088L30.0099 14.4402C29.9333 14.8784 30.1106 15.3225 30.4689 15.5858C30.8324 15.8544 31.3106 15.8852 31.7003 15.6853L34.0624 14.4722L36.4256 15.6853C36.8205 15.8913 37.2963 15.8501 37.6558 15.5858C38.0141 15.3215 38.1914 14.8775 38.1148 14.4402L37.6695 11.9088L39.6361 10.1122C39.9611 9.80214 40.081 9.334 39.9437 8.90584Z" fill="#3D3D3D"/>
<path d="M11.7406 8.90584C11.6045 8.47798 11.2349 8.16548 10.7897 8.10262L8.1563 7.72847L6.98351 5.40852C6.58495 4.61903 5.28978 4.61903 4.89153 5.40852L3.71843 7.72847L1.00694 8.10262C0.561692 8.16548 0.192124 8.47798 0.0560153 8.90584C-0.0813137 9.334 0.0386203 9.80214 0.363633 10.1122L2.33019 11.9088L1.88493 14.4402C1.80833 14.8784 1.98564 15.3225 2.34392 15.5858C2.70738 15.8544 3.1859 15.8852 3.5753 15.6853L5.93736 14.4722L8.30064 15.6853C8.69768 15.8913 9.17131 15.8501 9.53081 15.5858C9.88908 15.3215 10.0664 14.8775 9.98979 14.4402L9.54454 11.9088L11.433 10.1122C11.758 9.80214 11.8779 9.334 11.7406 8.90584Z" fill="#3D3D3D"/>
<path d="M25.8594 20C25.8594 23.2361 23.2361 25.8594 20 25.8594C16.7639 25.8594 14.1406 23.2361 14.1406 20C14.1406 16.7639 16.7639 14.1406 20 14.1406C23.2361 14.1406 25.8594 16.7639 25.8594 20Z" fill="#3D3D3D"/>
<path d="M9.45312 24.6875C9.45312 26.629 7.87903 28.2031 5.9375 28.2031C3.99597 28.2031 2.42188 26.629 2.42188 24.6875C2.42188 22.7457 3.99597 21.1719 5.9375 21.1719C7.87903 21.1719 9.45312 22.7457 9.45312 24.6875Z" fill="#3D3D3D"/>
<path d="M37.5781 24.6875C37.5781 26.629 36.004 28.2031 34.0625 28.2031C32.121 28.2031 30.5469 26.629 30.5469 24.6875C30.5469 22.7457 32.121 21.1719 34.0625 21.1719C36.004 21.1719 37.5781 22.7457 37.5781 24.6875Z" fill="#3D3D3D"/>
<path d="M11.7969 40H28.2031V36.4062C28.2031 31.8756 24.5303 28.2031 20 28.2031C15.4697 28.2031 11.7969 31.8756 11.7969 36.4062V40Z" fill="#3D3D3D"/>
<path d="M35.1606 30.6482C33.0162 30.2536 31.0588 31.0437 29.7627 32.4527C30.2598 33.6759 30.5467 35.0068 30.5467 36.4063V40H38.8279C39.4752 40 39.9998 39.4754 39.9998 38.8282V36.6547C39.9998 33.7912 37.9765 31.1661 35.1606 30.6482Z" fill="#3D3D3D"/>
<path d="M1.17188 40H9.45312V36.4063C9.45312 35.0068 9.73999 33.6759 10.2371 32.4527C8.94104 31.0437 6.98364 30.2536 4.83917 30.6482C2.02332 31.1661 0 33.7912 0 36.6547V38.8282C0 39.4754 0.524597 40 1.17188 40Z" fill="#3D3D3D"/>
</g>
<defs>
<clipPath id="clip0_416_51919">
<rect width="40" height="40" fill="white"/>
</clipPath>
</defs>
</svg>
