<svg width="40" height="40" viewBox="0 0 40 40" fill="none" xmlns="http://www.w3.org/2000/svg">
<g opacity="0.7">
<path d="M19.1667 20.4066C24.2293 20.4066 28.3333 16.3025 28.3333 11.2399C28.3333 6.1773 24.2293 2.07324 19.1667 2.07324C14.1041 2.07324 10 6.1773 10 11.2399C10 16.3025 14.1041 20.4066 19.1667 20.4066Z" fill="#3D3D3D"/>
<path fill-rule="evenodd" clip-rule="evenodd" d="M21.5413 36.2599C19.8097 34.3999 18.7497 31.9066 18.7497 29.1666C18.7497 26.3616 19.8613 23.8133 21.668 21.9399C20.8513 21.8766 20.0163 21.8433 19.1663 21.8433C13.6297 21.8433 8.72801 23.2283 5.68467 25.3033C3.36301 26.8866 2.08301 28.8983 2.08301 31.0099V33.4266C2.08301 34.1783 2.38134 34.8999 2.91301 35.4299C3.44467 35.9616 4.16467 36.2599 4.91634 36.2599H21.5413Z" fill="#3D3D3D"/>
<path fill-rule="evenodd" clip-rule="evenodd" d="M29.166 20.4165C24.336 20.4165 20.416 24.3365 20.416 29.1665C20.416 33.9965 24.336 37.9165 29.166 37.9165C33.996 37.9165 37.916 33.9965 37.916 29.1665C37.916 24.3365 33.996 20.4165 29.166 20.4165ZM27.916 25.8332V29.0632C27.916 29.4682 28.1127 29.8482 28.4427 30.0832L30.9427 31.8532C31.506 32.2515 32.2877 32.1182 32.686 31.5565C33.0843 30.9932 32.951 30.2115 32.3893 29.8132L30.416 28.4165V25.8332C30.416 25.1432 29.856 24.5832 29.166 24.5832C28.476 24.5832 27.916 25.1432 27.916 25.8332Z" fill="#3D3D3D"/>
</g>
</svg>
