<svg width="40" height="40" viewBox="0 0 40 40" fill="none" xmlns="http://www.w3.org/2000/svg">
<g opacity="0.7" clip-path="url(#clip0_416_51924)">
<path d="M29.4531 18.9062C23.6374 18.9062 18.9062 23.6374 18.9062 29.4531C18.9062 35.2689 23.6374 40 29.4531 40C35.2689 40 40 35.2689 40 29.4531C40 23.6374 35.2689 18.9062 29.4531 18.9062ZM34.1406 30.625H29.4531C28.8055 30.625 28.2812 30.1007 28.2812 29.4531V24.7656C28.2812 24.118 28.8055 23.5938 29.4531 23.5938C30.1007 23.5938 30.625 24.118 30.625 24.7656V28.2812H34.1406C34.7882 28.2812 35.3125 28.8055 35.3125 29.4531C35.3125 30.1007 34.7882 30.625 34.1406 30.625Z" fill="#3D3D3D"/>
<path d="M37.5781 3.59375C37.5781 2.93732 37.0627 2.42188 36.4062 2.42188H30.5469V5.9375C30.5469 6.59363 30.0314 7.10938 29.375 7.10938C28.7186 7.10938 28.2031 6.59363 28.2031 5.9375V2.42188H23.5156V5.9375C23.5156 6.59363 23.0002 7.10938 22.3438 7.10938C21.6873 7.10938 21.1719 6.59363 21.1719 5.9375V2.42188H16.4844V5.9375C16.4844 6.59363 15.9689 7.10938 15.3125 7.10938C14.6561 7.10938 14.1406 6.59363 14.1406 5.9375V2.42188H9.45312V5.9375C9.45312 6.59363 8.93768 7.10938 8.28125 7.10938C7.62482 7.10938 7.10938 6.59363 7.10938 5.9375V2.42188H1.17188C0.515442 2.42188 0 2.93732 0 3.59375V9.45312H37.5781V3.59375Z" fill="#3D3D3D"/>
<path d="M17.6562 23.5156H17.9376C18.3655 22.6843 18.8483 21.8863 19.4391 21.1719H17.6562C17.0087 21.1719 16.4844 20.6476 16.4844 20C16.4844 19.3524 17.0087 18.8281 17.6562 18.8281H20C20.48 18.8281 20.8899 19.1177 21.0712 19.5306C23.3163 17.634 26.2125 16.4844 29.375 16.4844H27.0312C26.3837 16.4844 25.8594 15.9601 25.8594 15.3125C25.8594 14.6649 26.3837 14.1406 27.0312 14.1406H29.375C30.0226 14.1406 30.5469 14.6649 30.5469 15.3125C30.5469 15.9601 30.0226 16.4844 29.375 16.4844C32.4887 16.4844 35.3479 17.5946 37.5781 19.4391V11.7969H0V34.0625C0 34.7101 0.524292 35.2344 1.17188 35.2344H17.9074C17.0044 33.4741 16.4844 31.4856 16.4844 29.375C16.4844 28.085 16.7157 26.8558 17.07 25.6799C16.7261 25.4758 16.4844 25.1169 16.4844 24.6875C16.4844 24.0399 17.0087 23.5156 17.6562 23.5156ZM17.6562 14.1406H20C20.6476 14.1406 21.1719 14.6649 21.1719 15.3125C21.1719 15.9601 20.6476 16.4844 20 16.4844H17.6562C17.0087 16.4844 16.4844 15.9601 16.4844 15.3125C16.4844 14.6649 17.0087 14.1406 17.6562 14.1406ZM10.625 30.5469H8.28125C7.63367 30.5469 7.10938 30.0226 7.10938 29.375C7.10938 28.7274 7.63367 28.2031 8.28125 28.2031H10.625C11.2726 28.2031 11.7969 28.7274 11.7969 29.375C11.7969 30.0226 11.2726 30.5469 10.625 30.5469ZM10.625 25.8594H8.28125C7.63367 25.8594 7.10938 25.3351 7.10938 24.6875C7.10938 24.0399 7.63367 23.5156 8.28125 23.5156H10.625C11.2726 23.5156 11.7969 24.0399 11.7969 24.6875C11.7969 25.3351 11.2726 25.8594 10.625 25.8594ZM10.625 21.1719H8.28125C7.63367 21.1719 7.10938 20.6476 7.10938 20C7.10938 19.3524 7.63367 18.8281 8.28125 18.8281H10.625C11.2726 18.8281 11.7969 19.3524 11.7969 20C11.7969 20.6476 11.2726 21.1719 10.625 21.1719ZM10.625 16.4844H8.28125C7.63367 16.4844 7.10938 15.9601 7.10938 15.3125C7.10938 14.6649 7.63367 14.1406 8.28125 14.1406H10.625C11.2726 14.1406 11.7969 14.6649 11.7969 15.3125C11.7969 15.9601 11.2726 16.4844 10.625 16.4844Z" fill="#3D3D3D"/>
<path d="M9.45312 1.17188C9.45312 0.515442 8.93768 0 8.28125 0C7.62482 0 7.10938 0.515442 7.10938 1.17188V2.42188H9.45312V1.17188Z" fill="#3D3D3D"/>
<path d="M16.4844 1.17188C16.4844 0.515442 15.9689 0 15.3125 0C14.6561 0 14.1406 0.515442 14.1406 1.17188V2.42188H16.4844V1.17188Z" fill="#3D3D3D"/>
<path d="M23.5156 1.17188C23.5156 0.515442 23.0002 0 22.3438 0C21.6873 0 21.1719 0.515442 21.1719 1.17188V2.42188H23.5156V1.17188Z" fill="#3D3D3D"/>
<path d="M30.5469 1.17188C30.5469 0.515442 30.0314 0 29.375 0C28.7186 0 28.2031 0.515442 28.2031 1.17188V2.42188H30.5469V1.17188Z" fill="#3D3D3D"/>
</g>
<defs>
<clipPath id="clip0_416_51924">
<rect width="40" height="40" fill="white"/>
</clipPath>
</defs>
</svg>
