<svg width="40" height="40" viewBox="0 0 40 40" fill="none" xmlns="http://www.w3.org/2000/svg">
<g opacity="0.7" clip-path="url(#clip0_416_51934)">
<path d="M19.9999 7.04004C12.8539 7.04004 7.04004 12.8539 7.04004 19.9999C7.04004 27.1462 12.8539 32.9598 19.9999 32.9598C27.1462 32.9598 32.9598 27.1459 32.9598 19.9999C32.9598 12.8539 27.1459 7.04004 19.9999 7.04004ZM19.9999 18.926C22.2265 18.926 24.038 20.7375 24.038 22.9641C24.038 24.7732 22.8423 26.3079 21.1999 26.8203V27.8304C21.1999 28.493 20.6628 29.0304 19.9999 29.0304C19.3371 29.0304 18.8 28.493 18.8 27.8304V27.0022H17.1618C16.4993 27.0022 15.9619 26.4651 15.9619 25.8022C15.9619 25.1394 16.4993 24.6023 17.1618 24.6023H20.0002C20.9033 24.6023 21.6381 23.8674 21.6381 22.9641C21.6381 22.0611 20.9033 21.3259 19.9999 21.3259C17.7734 21.3259 15.9619 19.5144 15.9619 17.2878C15.9619 15.4791 17.1575 13.944 18.8 13.4319V12.4218C18.8 11.7593 19.3371 11.2219 19.9999 11.2219C20.6628 11.2219 21.1999 11.7593 21.1999 12.4218V13.2498H22.8384C23.5009 13.2498 24.0383 13.7872 24.0383 14.45C24.0383 15.1125 23.5009 15.65 22.8384 15.65H19.9999C19.0966 15.65 18.3621 16.3848 18.3621 17.2881C18.3621 18.1912 19.0966 18.926 19.9999 18.926Z" fill="#3D3D3D"/>
<path d="M34.1422 5.85785C30.3647 2.08038 25.3421 0 20 0C14.6579 0 9.63531 2.08038 5.85785 5.85785C2.08038 9.63531 0 14.6579 0 20C0 25.3424 2.08038 30.3647 5.85785 34.1422C9.63531 37.9196 14.6579 40 20 40C25.3421 40 30.3647 37.9196 34.1422 34.1422C37.9196 30.3647 40 25.3421 40 20C40 14.6579 37.9196 9.63531 34.1422 5.85785ZM20 35.3598C11.5305 35.3598 4.6402 28.4695 4.6402 20C4.6402 11.5305 11.5305 4.6402 20 4.6402C28.4695 4.6402 35.3601 11.5305 35.3601 20C35.3601 28.4695 28.4695 35.3598 20 35.3598Z" fill="#3D3D3D"/>
</g>
<defs>
<clipPath id="clip0_416_51934">
<rect width="40" height="40" fill="white"/>
</clipPath>
</defs>
</svg>
