<svg width="31" height="31" viewBox="0 0 31 31" fill="none" xmlns="http://www.w3.org/2000/svg">
<g clip-path="url(#clip0_509_91478)">
<path d="M29.8412 15.2612C29.8412 18.0204 29.023 20.7177 27.4901 23.0119C25.9572 25.3061 23.7783 27.0942 21.2291 28.1501C18.6799 29.2061 15.8749 29.4823 13.1687 28.944C10.4625 28.4057 7.97665 27.077 6.02558 25.126C4.07451 23.1749 2.74582 20.6891 2.20752 17.9829C1.66922 15.2767 1.9455 12.4716 3.00141 9.92242C4.05732 7.37323 5.84544 5.1944 8.13965 3.66145C10.4339 2.12851 13.1311 1.3103 15.8904 1.3103C17.7224 1.3103 19.5365 1.67115 21.2291 2.37225C22.9217 3.07335 24.4597 4.10096 25.7551 5.39642C27.0506 6.69188 28.0782 8.22982 28.7793 9.92242C29.4804 11.615 29.8412 13.4291 29.8412 15.2612Z" fill="#123060"/>
<path d="M15.8898 29.7705C13.0202 29.7705 10.215 28.9196 7.82907 27.3254C5.44308 25.7311 3.58344 23.4651 2.48529 20.8139C1.38715 18.1628 1.09982 15.2455 1.65965 12.4311C2.21948 9.61661 3.60132 7.03137 5.63043 5.00226C7.65954 2.97315 10.2448 1.59131 13.0592 1.03148C15.8737 0.471647 18.791 0.758972 21.4421 1.85712C24.0933 2.95527 26.3593 4.81491 27.9535 7.20089C29.5478 9.58687 30.3987 12.392 30.3987 15.2616C30.3944 19.1083 28.8644 22.7962 26.1443 25.5162C23.4243 28.2362 19.7365 29.7662 15.8898 29.7705ZM15.8898 1.86876C13.2409 1.86876 10.6516 2.65424 8.44912 4.12587C6.24668 5.59749 4.53008 7.68917 3.51641 10.1364C2.50273 12.5836 2.23751 15.2765 2.75428 17.8744C3.27104 20.4724 4.54659 22.8588 6.41961 24.7318C8.29264 26.6048 10.679 27.8804 13.277 28.3971C15.8749 28.9139 18.5678 28.6487 21.015 27.635C23.4622 26.6213 25.5539 24.9047 27.0255 22.7023C28.4972 20.4999 29.2827 17.9105 29.2827 15.2616C29.2786 11.7109 27.8663 8.30669 25.3555 5.79593C22.8447 3.28516 19.4406 1.87283 15.8898 1.86876Z" fill="#123060"/>
<path d="M4.54194 10.2067C5.75328 7.5851 7.80645 5.44387 10.3749 4.12358C10.5065 4.05749 10.6588 4.04608 10.7988 4.09184C10.9388 4.13759 11.055 4.2368 11.1221 4.36785C11.1893 4.49891 11.2019 4.65118 11.1573 4.79151C11.1127 4.93184 11.0144 5.04885 10.8839 5.11704C8.53782 6.32291 6.66237 8.27864 5.55583 10.6731C5.49343 10.8067 5.3807 10.9102 5.24226 10.9609C5.10382 11.0117 4.95093 11.0056 4.81698 10.9439C4.68303 10.8823 4.57892 10.7702 4.52738 10.632C4.47585 10.4939 4.48108 10.341 4.54194 10.2067Z" fill="#F2F0F0"/>
<path d="M12.2299 4.49766C12.5381 4.49766 12.7879 4.24782 12.7879 3.93963C12.7879 3.63143 12.5381 3.38159 12.2299 3.38159C11.9217 3.38159 11.6719 3.63143 11.6719 3.93963C11.6719 4.24782 11.9217 4.49766 12.2299 4.49766Z" fill="#F2F0F0"/>
<path d="M13.0827 8.47068C12.9042 8.16897 12.8364 7.81451 12.8909 7.4682C12.9453 7.1219 13.1187 6.80537 13.3812 6.57302C13.6437 6.34067 13.9789 6.207 14.3293 6.19498C14.6796 6.18296 15.0232 6.29334 15.3011 6.50715L18.1574 8.70214C18.392 8.87658 18.5824 9.10346 18.7136 9.36465C18.8448 9.62585 18.9131 9.91411 18.913 10.2064C18.9129 10.4987 18.8445 10.7869 18.7131 11.048C18.5817 11.3091 18.3911 11.5359 18.1565 11.7102L15.3011 13.9044C15.0107 14.1278 14.6489 14.2378 14.2833 14.2138C13.9178 14.1897 13.5735 14.0333 13.3149 13.7739C13.0562 13.5144 12.901 13.1695 12.8783 12.8039C12.8555 12.4382 12.9667 12.0768 13.1911 11.7872C12.5465 12.2214 12.0187 12.8075 11.6541 13.4938C11.2895 14.1801 11.0993 14.9456 11.1004 15.7227C11.1025 16.3586 11.2313 16.9876 11.4792 17.5732C11.727 18.1587 12.089 18.689 12.5441 19.1332C12.9991 19.5773 13.538 19.9264 14.1294 20.16C14.7208 20.3936 15.3528 20.5071 15.9885 20.4938C16.6242 20.4805 17.2509 20.3408 17.832 20.0827C18.4131 19.8246 18.937 19.4534 19.3731 18.9906C19.8092 18.5279 20.1488 17.9829 20.372 17.3875C20.5952 16.7922 20.6976 16.1583 20.6732 15.5229C20.5893 13.5292 23.6123 13.417 23.6945 15.3985C23.7377 16.4739 23.5573 17.5465 23.1646 18.5486C22.7718 19.5506 22.1754 20.4602 21.413 21.2199C16.4941 26.1144 8.07617 22.6026 8.07617 15.7227C8.07626 14.1487 8.55525 12.612 9.4495 11.3166C10.3438 10.0213 11.6109 9.02869 13.0827 8.47068Z" fill="#F2F0F0"/>
<path d="M7.51959 15.7227C7.51348 14.1307 7.9674 12.5708 8.82676 11.2307C9.68613 9.89055 10.9144 8.8272 12.3637 8.16852C12.2691 7.75323 12.3048 7.31885 12.466 6.92459C12.6272 6.53033 12.9061 6.19537 13.2646 5.96536C13.6231 5.73535 14.0438 5.62148 14.4694 5.63926C14.8949 5.65704 15.3047 5.80561 15.6427 6.06473L18.4994 8.26009C18.8017 8.48665 19.0471 8.78055 19.216 9.11847C19.385 9.45638 19.4728 9.82902 19.4727 10.2068C19.4725 10.5846 19.3843 10.9572 19.2151 11.2949C19.0459 11.6327 18.8003 11.9264 18.4978 12.1527L15.6422 14.3473C15.378 14.5495 15.0691 14.6853 14.7415 14.7433C14.4139 14.8012 14.0771 14.7795 13.7596 14.68C13.4422 14.5805 13.1532 14.4062 12.9172 14.1717C12.6812 13.9372 12.505 13.6494 12.4035 13.3325C11.9151 14.0335 11.6553 14.8684 11.6597 15.7227C11.6618 16.2843 11.7757 16.8399 11.9947 17.357C12.2138 17.8741 12.5336 18.3424 12.9356 18.7346C13.3376 19.1268 13.8136 19.435 14.3359 19.6413C14.8583 19.8476 15.4164 19.9478 15.9779 19.9361C16.5394 19.9244 17.0929 19.801 17.6062 19.5731C18.1195 19.3453 18.5823 19.0175 18.9675 18.6089C19.3528 18.2002 19.6528 17.719 19.8502 17.1932C20.0475 16.6674 20.1381 16.1076 20.1168 15.5464C20.0021 12.8473 24.1378 12.6058 24.2536 15.3753C24.2998 16.5281 24.1063 17.6779 23.6853 18.752C23.2644 19.8262 22.625 20.8012 21.8078 21.6156C16.5361 26.8609 7.51959 23.1005 7.51959 15.7227ZM21.2318 15.4996C21.2744 16.4306 21.0729 17.3565 20.6473 18.1857C20.2217 19.0148 19.5868 19.7183 18.8055 20.2264C18.0242 20.7345 17.1237 21.0295 16.1932 21.0823C15.2627 21.1351 14.3346 20.9437 13.5009 20.5272C12.6671 20.1107 11.9567 19.4835 11.4401 18.7078C10.9235 17.9321 10.6187 17.0348 10.5557 16.105C10.4928 15.1751 10.674 14.245 11.0814 13.4067C11.4888 12.5685 12.1081 11.8513 12.8782 11.3263C12.9884 11.252 13.1215 11.2195 13.2536 11.2345C13.3857 11.2496 13.5081 11.3113 13.5988 11.4085C13.6894 11.5057 13.7425 11.6321 13.7483 11.7649C13.7542 11.8977 13.7125 12.0283 13.6307 12.1331C13.4896 12.3157 13.4199 12.5435 13.4347 12.7739C13.4496 13.0042 13.5479 13.2212 13.7113 13.3842C13.8747 13.5473 14.0919 13.6451 14.3223 13.6594C14.5526 13.6737 14.7803 13.6035 14.9626 13.462L17.8171 11.2682C17.9841 11.1461 18.1199 10.9864 18.2136 10.802C18.3073 10.6176 18.3562 10.4137 18.3563 10.2068C18.3565 9.99995 18.3079 9.79598 18.2145 9.61142C18.1211 9.42685 17.9855 9.26691 17.8187 9.14454L14.9632 6.95C14.7886 6.81452 14.5723 6.74412 14.3514 6.75092C14.1306 6.75771 13.919 6.84128 13.7531 6.98724C13.5872 7.13319 13.4774 7.33241 13.4425 7.5506C13.4076 7.7688 13.4499 7.99232 13.5621 8.1827C13.6041 8.25261 13.6303 8.33088 13.6388 8.412C13.6474 8.49312 13.6381 8.57512 13.6115 8.65225C13.585 8.72938 13.5419 8.79976 13.4852 8.85845C13.4286 8.91714 13.3598 8.96271 13.2836 8.99197C11.9146 9.50551 10.7355 10.4257 9.90465 11.6288C9.0738 12.832 8.63098 14.2606 8.63566 15.7227C8.63566 22.0982 16.442 25.3789 21.0209 20.8246C21.7284 20.1195 22.2818 19.2753 22.6463 18.3453C23.0109 17.4154 23.1785 16.4199 23.1386 15.4219C23.1258 15.1708 23.0145 14.9349 22.8287 14.7655C22.643 14.5961 22.398 14.5068 22.1468 14.517C21.8956 14.5272 21.6586 14.6362 21.4872 14.8201C21.3159 15.0041 21.2241 15.2483 21.2318 15.4996Z" fill="#123060"/>
</g>
<defs>
<clipPath id="clip0_509_91478">
<rect width="30" height="30" fill="white" transform="translate(0.890625 0.261719)"/>
</clipPath>
</defs>
</svg>
