<svg width="20" height="20" viewBox="0 0 20 20" fill="none" xmlns="http://www.w3.org/2000/svg">
<g clip-path="url(#clip0_416_51888)">
<path d="M13.3104 2.14901L12.7244 1.37972L13.3104 0.61053C13.4377 0.443625 13.4056 0.205149 13.2387 0.0778634C13.1722 0.0271967 13.091 -0.000184234 13.0074 6.24225e-06H10.0074C9.79585 -0.00118423 9.62271 0.168054 9.61914 0.379578V3.76191H10.381V2.76191H13.0074C13.2182 2.76143 13.3888 2.5901 13.3883 2.37924C13.3881 2.29605 13.3608 2.2152 13.3104 2.14901Z" fill="white"/>
<path d="M1.2797 12C0.969368 11.9984 0.716463 12.2486 0.714844 12.5589C0.714844 12.5614 0.714844 12.5639 0.714844 12.5663V20H5.52437V12H1.2797ZM2.52437 17.9048C2.52437 18.1152 2.3538 18.2857 2.14342 18.2857C1.93303 18.2857 1.76246 18.1152 1.76246 17.9048V17.0862C1.76246 16.8758 1.93303 16.7052 2.14342 16.7052C2.3538 16.7052 2.52437 16.8758 2.52437 17.0862V17.9048ZM2.52437 14.7163C2.52437 14.9267 2.3538 15.0972 2.14342 15.0972C1.93303 15.0972 1.76246 14.9267 1.76246 14.7163V13.8976C1.76246 13.6872 1.93303 13.5167 2.14342 13.5167C2.3538 13.5167 2.52437 13.6872 2.52437 13.8976V14.7163ZM4.47675 17.9048C4.47675 18.1152 4.30618 18.2857 4.0958 18.2857C3.88542 18.2857 3.71484 18.1152 3.71484 17.9048V17.0862C3.71484 16.8758 3.88542 16.7052 4.0958 16.7052C4.30618 16.7052 4.47675 16.8758 4.47675 17.0862V17.9048ZM4.47675 14.7163C4.47675 14.9267 4.30618 15.0972 4.0958 15.0972C3.88542 15.0972 3.71484 14.9267 3.71484 14.7163V13.8976C3.71484 13.6872 3.88542 13.5167 4.0958 13.5167C4.30618 13.5167 4.47675 13.6872 4.47675 13.8976V14.7163Z" fill="white"/>
<path d="M9.9382 6.69043L6.28516 9.79776V20H7.95182V16.0328C7.94678 15.8356 8.10254 15.6717 8.29973 15.6666C8.30616 15.6664 8.31258 15.6664 8.31901 15.6666H11.5937C11.7868 15.6618 11.9473 15.8143 11.9521 16.0074C11.9523 16.0159 11.9523 16.0243 11.9518 16.0328V20H13.5709V9.79424L9.9382 6.69043ZM11.5937 13.5238H8.29749C8.08711 13.5238 7.91654 13.3532 7.91654 13.1428C7.91654 12.9324 8.08711 12.7619 8.29749 12.7619H11.5937C11.8041 12.7619 11.9746 12.9324 11.9746 13.1428C11.9746 13.3532 11.8041 13.5238 11.5937 13.5238Z" fill="white"/>
<path d="M18.727 12C18.7245 12 18.722 12 18.7196 12H14.332V20H19.2844V12.5663C19.2869 12.256 19.0373 12.0025 18.727 12ZM16.2844 17.9048C16.2844 18.1151 16.1138 18.2857 15.9035 18.2857C15.6931 18.2857 15.5225 18.1151 15.5225 17.9048V17.0861C15.5225 16.8758 15.6931 16.7052 15.9035 16.7052C16.1138 16.7052 16.2844 16.8758 16.2844 17.0861V17.9048ZM16.2844 14.7163C16.2844 14.9267 16.1138 15.0972 15.9035 15.0972C15.6931 15.0972 15.5225 14.9267 15.5225 14.7163V13.8976C15.5225 13.6872 15.6931 13.5167 15.9035 13.5167C16.1138 13.5167 16.2844 13.6872 16.2844 13.8976V14.7163ZM18.1892 17.9048C18.1892 18.1151 18.0186 18.2857 17.8082 18.2857C17.5978 18.2857 17.4273 18.1151 17.4273 17.9048V17.0861C17.4273 16.8758 17.5978 16.7052 17.8082 16.7052C18.0186 16.7052 18.1892 16.8758 18.1892 17.0861V17.9048ZM18.1892 14.7163C18.1892 14.9267 18.0186 15.0972 17.8082 15.0972C17.5978 15.0972 17.4273 14.9267 17.4273 14.7163V13.8976C17.4273 13.6872 17.5978 13.5167 17.8082 13.5167C18.0186 13.5167 18.1892 13.6872 18.1892 13.8976V14.7163Z" fill="white"/>
<path d="M9.95743 4.27832L4.50586 8.94546L5.19481 9.74713L9.7101 5.89975C9.85272 5.77823 10.0625 5.77842 10.2049 5.90027L14.7014 9.7487L15.4062 8.94327L9.95743 4.27832Z" fill="white"/>
<path d="M11.191 16.4287H8.71484V20.0001H11.191V16.4287Z" fill="white"/>
</g>
<defs>
<clipPath id="clip0_416_51888">
<rect width="20" height="20" fill="white"/>
</clipPath>
</defs>
</svg>
