<svg width="18" height="12" viewBox="0 0 18 12" fill="none" xmlns="http://www.w3.org/2000/svg">
<path fill-rule="evenodd" clip-rule="evenodd" d="M9 0C4.90909 0 1.41545 2.488 0 6C1.41545 9.512 4.90909 12 9 12C13.0909 12 16.5845 9.512 18 6C16.5845 2.488 13.0909 0 9 0ZM9 10C6.74182 10 4.90909 8.208 4.90909 6C4.90909 3.792 6.74182 2 9 2C11.2582 2 13.0909 3.792 13.0909 6C13.0909 8.208 11.2582 10 9 10ZM8.99996 3.59961C7.64177 3.59961 6.54541 4.67161 6.54541 5.99961C6.54541 7.32761 7.64177 8.39961 8.99996 8.39961C10.3581 8.39961 11.4545 7.32761 11.4545 5.99961C11.4545 4.67161 10.3581 3.59961 8.99996 3.59961Z" fill="#3D3D3D"/>
</svg>
