<svg width="41" height="41" viewBox="0 0 41 41" fill="none" xmlns="http://www.w3.org/2000/svg">
<g clip-path="url(#clip0_509_91355)">
<path d="M21.7151 17.4306V16.6806H23.9601V27.2173H22.6768C22.4227 27.2177 22.1789 27.1175 21.9986 26.9385C21.8184 26.7595 21.7164 26.5163 21.7151 26.2623V26.2639C20.778 26.9499 19.6464 27.3189 18.4851 27.3173C17.0341 27.3173 15.6424 26.7411 14.6161 25.7154C13.5897 24.6896 13.0127 23.2983 13.0118 21.8473C13.0127 20.3962 13.5897 19.0049 14.6161 17.9792C15.6424 16.9535 17.0341 16.3773 18.4851 16.3773C19.6459 16.376 20.7768 16.745 21.7134 17.4306H21.7151ZM12.4301 13.2939V13.6356C12.4301 14.2723 12.3451 14.7923 11.9301 15.4023L11.8801 15.4589C11.7418 15.614 11.6074 15.7724 11.4768 15.9339L4.27177 24.9773H12.4301V26.2573C12.4301 26.3835 12.4052 26.5085 12.3569 26.625C12.3085 26.7416 12.2377 26.8475 12.1483 26.9367C12.059 27.0259 11.953 27.0965 11.8363 27.1447C11.7197 27.1928 11.5946 27.2175 11.4684 27.2173H0.898438V26.6139C0.898438 25.8756 1.08177 25.5456 1.3151 25.2023L8.99344 15.6939H1.21844V13.2939H12.4318H12.4301ZM26.6818 27.2173C26.4696 27.2173 26.2661 27.133 26.1161 26.983C25.9661 26.8329 25.8818 26.6295 25.8818 26.4173V13.2939H28.2834V27.2173H26.6818ZM35.3868 16.3106C36.1104 16.3104 36.8269 16.4527 37.4955 16.7294C38.1641 17.0061 38.7716 17.4118 39.2834 17.9233C39.7952 18.4348 40.2013 19.0421 40.4784 19.7105C40.7555 20.3789 40.8982 21.0954 40.8984 21.8189C40.8987 22.5425 40.7564 23.2591 40.4796 23.9277C40.2029 24.5962 39.7973 25.2038 39.2858 25.7156C38.7743 26.2274 38.167 26.6334 37.4986 26.9106C36.8301 27.1877 36.1137 27.3304 35.3901 27.3306C33.9288 27.3311 32.5271 26.751 31.4935 25.7179C30.4598 24.6849 29.8789 23.2836 29.8784 21.8223C29.878 20.3609 30.4581 18.9593 31.4911 17.9256C32.5241 16.892 33.9254 16.3111 35.3868 16.3106ZM18.4868 25.0656C18.9157 25.0754 19.3422 24.9993 19.7413 24.8419C20.1404 24.6845 20.5041 24.449 20.8109 24.1491C21.1177 23.8492 21.3614 23.491 21.5279 23.0956C21.6943 22.7002 21.78 22.2755 21.78 21.8464C21.78 21.4174 21.6943 20.9927 21.5279 20.5973C21.3614 20.2019 21.1177 19.8437 20.8109 19.5438C20.5041 19.2439 20.1404 19.0084 19.7413 18.851C19.3422 18.6936 18.9157 18.6175 18.4868 18.6273C17.6457 18.6464 16.8455 18.994 16.2574 19.5956C15.6693 20.1972 15.34 21.0051 15.34 21.8464C15.34 22.6878 15.6693 23.4957 16.2574 24.0973C16.8455 24.6989 17.6457 25.0465 18.4868 25.0656ZM35.3868 25.0606C36.2465 25.0606 37.071 24.7191 37.679 24.1112C38.2869 23.5032 38.6284 22.6787 38.6284 21.8189C38.6284 20.9592 38.2869 20.1347 37.679 19.5267C37.071 18.9188 36.2465 18.5773 35.3868 18.5773C34.527 18.5773 33.7025 18.9188 33.0946 19.5267C32.4866 20.1347 32.1451 20.9592 32.1451 21.8189C32.1451 22.6787 32.4866 23.5032 33.0946 24.1112C33.7025 24.7191 34.527 25.0606 35.3868 25.0606Z" fill="#0069E4"/>
</g>
<defs>
<clipPath id="clip0_509_91355">
<rect width="40" height="40" fill="white" transform="translate(0.898438 0.310547)"/>
</clipPath>
</defs>
</svg>
