<svg width="26" height="26" viewBox="0 0 26 26" fill="none" xmlns="http://www.w3.org/2000/svg">
<mask id="path-1-outside-1_862_101117" maskUnits="userSpaceOnUse" x="0" y="0.000976562" width="26" height="26" fill="black">
<rect fill="white" y="0.000976562" width="26" height="26"/>
<path d="M12.9861 1.00098C12.5559 1.00098 12.126 1.0241 11.6983 1.07021C11.3062 1.11025 10.919 1.17593 10.537 1.25562C10.463 1.27109 10.389 1.28741 10.3151 1.30448C8.06416 1.81697 6.00879 2.96784 4.39548 4.6191C4.24546 4.77287 4.09859 4.9312 3.95497 5.09404C-0.403049 10.0972 0.119954 17.6859 5.12317 22.044C9.91309 26.2162 17.1231 25.9386 21.5781 21.4104C21.7284 21.2567 21.8752 21.0983 22.0186 20.9355C23.9418 18.7453 25.0017 15.9296 25 13.0148C25 6.37967 19.6212 1.00093 12.9861 1.00098ZM4.92929 5.21979C4.99257 5.15411 5.05824 5.09124 5.12272 5.02757C5.1972 4.95428 5.27129 4.8806 5.34738 4.80971C5.41425 4.74724 5.48313 4.68717 5.55161 4.6263C5.6289 4.55782 5.70579 4.48935 5.78508 4.42327C5.85476 4.3644 5.92644 4.30794 5.99773 4.25107C6.07782 4.187 6.15791 4.12292 6.2404 4.06125C6.31329 4.00639 6.38737 3.95313 6.46186 3.90107C6.54476 3.8418 6.62805 3.78093 6.71255 3.72567C6.78824 3.67441 6.86472 3.62475 6.94161 3.57549C7.02731 3.52063 7.11341 3.46657 7.20031 3.41531C7.27855 3.3686 7.35729 3.32265 7.43658 3.27755C7.52523 3.22709 7.61424 3.17783 7.70369 3.12978C7.78378 3.08708 7.86387 3.04528 7.94397 3.00443C8.03527 2.95838 8.12738 2.91393 8.21989 2.87028C8.29998 2.83224 8.38327 2.79419 8.46577 2.75815C8.55988 2.7181 8.65519 2.67806 8.7505 2.63801C8.83339 2.60397 8.91589 2.57074 8.99958 2.5387C9.0965 2.50186 9.19461 2.46742 9.29272 2.43298C9.37642 2.40374 9.46011 2.37451 9.54501 2.34688C9.64473 2.31484 9.74524 2.28521 9.84616 2.25597C9.93066 2.23154 10.0144 2.20632 10.0992 2.18349C10.1317 2.17508 10.1641 2.16827 10.1966 2.15986C9.0112 3.31084 8.13153 4.73928 7.63721 6.31585C6.68672 6.06516 5.76656 5.71105 4.89325 5.25983C4.90647 5.24582 4.91768 5.2318 4.92929 5.21979ZM4.35343 5.86453C5.31539 6.38573 6.33546 6.7917 7.39253 7.07392C6.87434 8.8758 6.60232 10.7395 6.584 12.6143H1.78247C1.86972 10.142 2.77381 7.76837 4.35343 5.86453ZM4.35343 20.165C2.77391 18.2611 1.86982 15.8875 1.78247 13.4152H6.584C6.60232 15.29 6.87429 17.1537 7.39253 18.9556C6.33551 19.2379 5.31544 19.6439 4.35343 20.165ZM10.0968 23.8476C10.016 23.8272 9.93226 23.8008 9.84896 23.7764C9.74764 23.7467 9.64593 23.7171 9.54581 23.6847C9.46132 23.6574 9.37802 23.6282 9.29472 23.599C9.19621 23.5649 9.0977 23.5301 9.00038 23.4928C8.91709 23.4612 8.83499 23.428 8.7525 23.3943C8.65679 23.3543 8.56108 23.3142 8.46617 23.2742C8.38447 23.2381 8.30318 23.2011 8.22229 23.1629C8.12898 23.1188 8.03607 23.074 7.94197 23.0275C7.86187 22.9875 7.78178 22.9474 7.70169 22.9038C7.61118 22.8553 7.52148 22.8056 7.43178 22.7544C7.35169 22.7099 7.2756 22.6643 7.19831 22.6178C7.11021 22.565 7.02371 22.5105 6.93721 22.4548C6.86112 22.4064 6.78503 22.3571 6.71015 22.3067C6.62485 22.249 6.54035 22.1889 6.45665 22.1289C6.38337 22.0764 6.31008 22.0239 6.238 21.9687C6.15511 21.9062 6.07381 21.8417 5.99292 21.7769C5.92204 21.7204 5.85156 21.6643 5.78228 21.6063C5.70218 21.5398 5.6249 21.4705 5.54721 21.4016C5.47913 21.3412 5.41065 21.2815 5.34417 21.2198C5.26768 21.1485 5.1936 21.0745 5.11911 21.0012C5.05464 20.9375 4.98896 20.8746 4.92569 20.8093C4.91408 20.7969 4.90286 20.7841 4.89125 20.7721C5.76451 20.3207 6.68467 19.9664 7.63521 19.7157C8.12963 21.2922 9.00924 22.7206 10.1946 23.8717C10.1621 23.8633 10.1293 23.8565 10.0968 23.8476ZM12.5857 24.1961C10.8721 23.9526 9.37001 22.1641 8.42492 19.5231C9.7913 19.2171 11.1857 19.053 12.5857 19.0333V24.1961ZM12.5857 18.2324C11.1005 18.2519 9.62155 18.4283 8.17343 18.7586C7.6706 17.0212 7.40535 15.2238 7.38492 13.4152H12.5857V18.2324ZM12.5857 12.6143H7.38492C7.4053 10.8058 7.67055 9.0083 8.17343 7.27095C9.62155 7.60118 11.1006 7.77758 12.5857 7.79716V12.6143ZM12.5857 6.99623C11.1856 6.97671 9.7913 6.81257 8.42492 6.50647C9.37001 3.86543 10.8721 2.07697 12.5857 1.83349V6.99623ZM21.6189 5.86453C23.1984 7.76842 24.1025 10.1421 24.1899 12.6143H19.3884C19.37 10.7395 19.0981 8.8758 18.5798 7.07392C19.6368 6.79155 20.6569 6.38563 21.6189 5.86453ZM15.8723 2.18149C15.9564 2.20231 16.0401 2.22874 16.1234 2.25317C16.2247 2.2828 16.3264 2.31244 16.4265 2.34487C16.511 2.37211 16.5943 2.40134 16.6776 2.43057C16.7761 2.46461 16.8747 2.49945 16.972 2.5367C17.0553 2.56833 17.1374 2.60157 17.2199 2.63521C17.3156 2.67526 17.4113 2.7153 17.5062 2.75535C17.5879 2.79139 17.6692 2.82848 17.7501 2.86668C17.8434 2.91073 17.9363 2.95558 18.0304 3.00203C18.1105 3.04208 18.1906 3.08212 18.2707 3.12577C18.3612 3.17423 18.4509 3.22389 18.5406 3.27515C18.6207 3.3196 18.6968 3.36525 18.774 3.4117C18.8621 3.46456 18.9486 3.51903 19.0351 3.57469C19.1112 3.62315 19.1873 3.6724 19.2622 3.72286C19.3475 3.78053 19.4316 3.8402 19.5153 3.90027C19.589 3.95273 19.6623 4.00559 19.7348 4.06045C19.8172 4.12252 19.8981 4.187 19.9794 4.25187C20.0499 4.30794 20.1208 4.364 20.1901 4.42247C20.2702 4.48895 20.3475 4.55822 20.4251 4.6271C20.4932 4.68757 20.5617 4.74724 20.6282 4.80891C20.7047 4.8802 20.7788 4.95428 20.8532 5.02757C20.9177 5.09124 20.9834 5.15411 21.0467 5.21939C21.0583 5.2318 21.0695 5.24462 21.0811 5.25663C20.2078 5.70805 19.2877 6.06231 18.3371 6.31305C17.8418 4.73633 16.961 3.30803 15.7746 2.15746C15.807 2.16587 15.8399 2.17268 15.8723 2.18149ZM13.3866 1.83349C15.1002 2.07697 16.6023 3.86543 17.5474 6.50647C16.1811 6.81242 14.7867 6.97656 13.3866 6.99623V1.83349ZM13.3866 7.79716C14.8718 7.77763 16.3508 7.60123 17.7989 7.27095C18.3018 9.0083 18.567 10.8058 18.5874 12.6143H13.3866V7.79716ZM13.3866 13.4152H18.5874C18.5671 15.2238 18.3018 17.0212 17.7989 18.7586C16.3508 18.4284 14.8718 18.252 13.3866 18.2324V13.4152ZM13.3866 24.1961V19.0333C14.7868 19.0528 16.1811 19.217 17.5474 19.5231C16.6023 22.1641 15.1002 23.9526 13.3866 24.1961ZM21.0431 20.8097C20.9798 20.875 20.9145 20.9379 20.85 21.0016C20.7756 21.0749 20.7011 21.1489 20.6246 21.2202C20.5581 21.2823 20.4896 21.3404 20.4215 21.4024C20.3439 21.4713 20.2666 21.5402 20.1873 21.6067C20.1172 21.6651 20.0459 21.7216 19.9746 21.7785C19.8945 21.8425 19.8144 21.9066 19.7319 21.9683C19.6591 22.0231 19.585 22.0764 19.5105 22.1285C19.4276 22.1877 19.3443 22.2486 19.2598 22.3039C19.1841 22.3551 19.1076 22.4048 19.0307 22.4536C18.945 22.5089 18.8587 22.5623 18.7716 22.6138C18.6915 22.6607 18.6151 22.7063 18.5362 22.7516C18.4475 22.802 18.3584 22.8513 18.2687 22.8994C18.1886 22.9421 18.1085 22.9839 18.0284 23.0247C17.9371 23.0708 17.845 23.1152 17.7525 23.1589C17.6724 23.1969 17.5891 23.2349 17.5066 23.271C17.4125 23.311 17.3172 23.3511 17.2219 23.3911C17.139 23.4248 17.0565 23.4584 16.9732 23.49C16.8755 23.5273 16.7773 23.5621 16.6788 23.5962C16.5955 23.6254 16.5122 23.6546 16.4277 23.6819C16.3276 23.7143 16.2275 23.7439 16.1254 23.7732C16.0417 23.798 15.9576 23.8228 15.8731 23.8456C15.8407 23.8541 15.8082 23.8609 15.7758 23.8693C16.9612 22.7183 17.8408 21.2899 18.3351 19.7133C19.2856 19.964 20.2058 20.3181 21.0791 20.7693C21.0659 20.7837 21.0547 20.7977 21.0431 20.8097ZM21.6189 20.165C20.657 19.6438 19.6369 19.2378 18.5798 18.9556C19.098 17.1537 19.37 15.29 19.3884 13.4152H24.1899C24.1027 15.8875 23.1985 18.2612 21.6189 20.165Z"/>
</mask>
<path d="M12.9861 1.00098C12.5559 1.00098 12.126 1.0241 11.6983 1.07021C11.3062 1.11025 10.919 1.17593 10.537 1.25562C10.463 1.27109 10.389 1.28741 10.3151 1.30448C8.06416 1.81697 6.00879 2.96784 4.39548 4.6191C4.24546 4.77287 4.09859 4.9312 3.95497 5.09404C-0.403049 10.0972 0.119954 17.6859 5.12317 22.044C9.91309 26.2162 17.1231 25.9386 21.5781 21.4104C21.7284 21.2567 21.8752 21.0983 22.0186 20.9355C23.9418 18.7453 25.0017 15.9296 25 13.0148C25 6.37967 19.6212 1.00093 12.9861 1.00098ZM4.92929 5.21979C4.99257 5.15411 5.05824 5.09124 5.12272 5.02757C5.1972 4.95428 5.27129 4.8806 5.34738 4.80971C5.41425 4.74724 5.48313 4.68717 5.55161 4.6263C5.6289 4.55782 5.70579 4.48935 5.78508 4.42327C5.85476 4.3644 5.92644 4.30794 5.99773 4.25107C6.07782 4.187 6.15791 4.12292 6.2404 4.06125C6.31329 4.00639 6.38737 3.95313 6.46186 3.90107C6.54476 3.8418 6.62805 3.78093 6.71255 3.72567C6.78824 3.67441 6.86472 3.62475 6.94161 3.57549C7.02731 3.52063 7.11341 3.46657 7.20031 3.41531C7.27855 3.3686 7.35729 3.32265 7.43658 3.27755C7.52523 3.22709 7.61424 3.17783 7.70369 3.12978C7.78378 3.08708 7.86387 3.04528 7.94397 3.00443C8.03527 2.95838 8.12738 2.91393 8.21989 2.87028C8.29998 2.83224 8.38327 2.79419 8.46577 2.75815C8.55988 2.7181 8.65519 2.67806 8.7505 2.63801C8.83339 2.60397 8.91589 2.57074 8.99958 2.5387C9.0965 2.50186 9.19461 2.46742 9.29272 2.43298C9.37642 2.40374 9.46011 2.37451 9.54501 2.34688C9.64473 2.31484 9.74524 2.28521 9.84616 2.25597C9.93066 2.23154 10.0144 2.20632 10.0992 2.18349C10.1317 2.17508 10.1641 2.16827 10.1966 2.15986C9.0112 3.31084 8.13153 4.73928 7.63721 6.31585C6.68672 6.06516 5.76656 5.71105 4.89325 5.25983C4.90647 5.24582 4.91768 5.2318 4.92929 5.21979ZM4.35343 5.86453C5.31539 6.38573 6.33546 6.7917 7.39253 7.07392C6.87434 8.8758 6.60232 10.7395 6.584 12.6143H1.78247C1.86972 10.142 2.77381 7.76837 4.35343 5.86453ZM4.35343 20.165C2.77391 18.2611 1.86982 15.8875 1.78247 13.4152H6.584C6.60232 15.29 6.87429 17.1537 7.39253 18.9556C6.33551 19.2379 5.31544 19.6439 4.35343 20.165ZM10.0968 23.8476C10.016 23.8272 9.93226 23.8008 9.84896 23.7764C9.74764 23.7467 9.64593 23.7171 9.54581 23.6847C9.46132 23.6574 9.37802 23.6282 9.29472 23.599C9.19621 23.5649 9.0977 23.5301 9.00038 23.4928C8.91709 23.4612 8.83499 23.428 8.7525 23.3943C8.65679 23.3543 8.56108 23.3142 8.46617 23.2742C8.38447 23.2381 8.30318 23.2011 8.22229 23.1629C8.12898 23.1188 8.03607 23.074 7.94197 23.0275C7.86187 22.9875 7.78178 22.9474 7.70169 22.9038C7.61118 22.8553 7.52148 22.8056 7.43178 22.7544C7.35169 22.7099 7.2756 22.6643 7.19831 22.6178C7.11021 22.565 7.02371 22.5105 6.93721 22.4548C6.86112 22.4064 6.78503 22.3571 6.71015 22.3067C6.62485 22.249 6.54035 22.1889 6.45665 22.1289C6.38337 22.0764 6.31008 22.0239 6.238 21.9687C6.15511 21.9062 6.07381 21.8417 5.99292 21.7769C5.92204 21.7204 5.85156 21.6643 5.78228 21.6063C5.70218 21.5398 5.6249 21.4705 5.54721 21.4016C5.47913 21.3412 5.41065 21.2815 5.34417 21.2198C5.26768 21.1485 5.1936 21.0745 5.11911 21.0012C5.05464 20.9375 4.98896 20.8746 4.92569 20.8093C4.91408 20.7969 4.90286 20.7841 4.89125 20.7721C5.76451 20.3207 6.68467 19.9664 7.63521 19.7157C8.12963 21.2922 9.00924 22.7206 10.1946 23.8717C10.1621 23.8633 10.1293 23.8565 10.0968 23.8476ZM12.5857 24.1961C10.8721 23.9526 9.37001 22.1641 8.42492 19.5231C9.7913 19.2171 11.1857 19.053 12.5857 19.0333V24.1961ZM12.5857 18.2324C11.1005 18.2519 9.62155 18.4283 8.17343 18.7586C7.6706 17.0212 7.40535 15.2238 7.38492 13.4152H12.5857V18.2324ZM12.5857 12.6143H7.38492C7.4053 10.8058 7.67055 9.0083 8.17343 7.27095C9.62155 7.60118 11.1006 7.77758 12.5857 7.79716V12.6143ZM12.5857 6.99623C11.1856 6.97671 9.7913 6.81257 8.42492 6.50647C9.37001 3.86543 10.8721 2.07697 12.5857 1.83349V6.99623ZM21.6189 5.86453C23.1984 7.76842 24.1025 10.1421 24.1899 12.6143H19.3884C19.37 10.7395 19.0981 8.8758 18.5798 7.07392C19.6368 6.79155 20.6569 6.38563 21.6189 5.86453ZM15.8723 2.18149C15.9564 2.20231 16.0401 2.22874 16.1234 2.25317C16.2247 2.2828 16.3264 2.31244 16.4265 2.34487C16.511 2.37211 16.5943 2.40134 16.6776 2.43057C16.7761 2.46461 16.8747 2.49945 16.972 2.5367C17.0553 2.56833 17.1374 2.60157 17.2199 2.63521C17.3156 2.67526 17.4113 2.7153 17.5062 2.75535C17.5879 2.79139 17.6692 2.82848 17.7501 2.86668C17.8434 2.91073 17.9363 2.95558 18.0304 3.00203C18.1105 3.04208 18.1906 3.08212 18.2707 3.12577C18.3612 3.17423 18.4509 3.22389 18.5406 3.27515C18.6207 3.3196 18.6968 3.36525 18.774 3.4117C18.8621 3.46456 18.9486 3.51903 19.0351 3.57469C19.1112 3.62315 19.1873 3.6724 19.2622 3.72286C19.3475 3.78053 19.4316 3.8402 19.5153 3.90027C19.589 3.95273 19.6623 4.00559 19.7348 4.06045C19.8172 4.12252 19.8981 4.187 19.9794 4.25187C20.0499 4.30794 20.1208 4.364 20.1901 4.42247C20.2702 4.48895 20.3475 4.55822 20.4251 4.6271C20.4932 4.68757 20.5617 4.74724 20.6282 4.80891C20.7047 4.8802 20.7788 4.95428 20.8532 5.02757C20.9177 5.09124 20.9834 5.15411 21.0467 5.21939C21.0583 5.2318 21.0695 5.24462 21.0811 5.25663C20.2078 5.70805 19.2877 6.06231 18.3371 6.31305C17.8418 4.73633 16.961 3.30803 15.7746 2.15746C15.807 2.16587 15.8399 2.17268 15.8723 2.18149ZM13.3866 1.83349C15.1002 2.07697 16.6023 3.86543 17.5474 6.50647C16.1811 6.81242 14.7867 6.97656 13.3866 6.99623V1.83349ZM13.3866 7.79716C14.8718 7.77763 16.3508 7.60123 17.7989 7.27095C18.3018 9.0083 18.567 10.8058 18.5874 12.6143H13.3866V7.79716ZM13.3866 13.4152H18.5874C18.5671 15.2238 18.3018 17.0212 17.7989 18.7586C16.3508 18.4284 14.8718 18.252 13.3866 18.2324V13.4152ZM13.3866 24.1961V19.0333C14.7868 19.0528 16.1811 19.217 17.5474 19.5231C16.6023 22.1641 15.1002 23.9526 13.3866 24.1961ZM21.0431 20.8097C20.9798 20.875 20.9145 20.9379 20.85 21.0016C20.7756 21.0749 20.7011 21.1489 20.6246 21.2202C20.5581 21.2823 20.4896 21.3404 20.4215 21.4024C20.3439 21.4713 20.2666 21.5402 20.1873 21.6067C20.1172 21.6651 20.0459 21.7216 19.9746 21.7785C19.8945 21.8425 19.8144 21.9066 19.7319 21.9683C19.6591 22.0231 19.585 22.0764 19.5105 22.1285C19.4276 22.1877 19.3443 22.2486 19.2598 22.3039C19.1841 22.3551 19.1076 22.4048 19.0307 22.4536C18.945 22.5089 18.8587 22.5623 18.7716 22.6138C18.6915 22.6607 18.6151 22.7063 18.5362 22.7516C18.4475 22.802 18.3584 22.8513 18.2687 22.8994C18.1886 22.9421 18.1085 22.9839 18.0284 23.0247C17.9371 23.0708 17.845 23.1152 17.7525 23.1589C17.6724 23.1969 17.5891 23.2349 17.5066 23.271C17.4125 23.311 17.3172 23.3511 17.2219 23.3911C17.139 23.4248 17.0565 23.4584 16.9732 23.49C16.8755 23.5273 16.7773 23.5621 16.6788 23.5962C16.5955 23.6254 16.5122 23.6546 16.4277 23.6819C16.3276 23.7143 16.2275 23.7439 16.1254 23.7732C16.0417 23.798 15.9576 23.8228 15.8731 23.8456C15.8407 23.8541 15.8082 23.8609 15.7758 23.8693C16.9612 22.7183 17.8408 21.2899 18.3351 19.7133C19.2856 19.964 20.2058 20.3181 21.0791 20.7693C21.0659 20.7837 21.0547 20.7977 21.0431 20.8097ZM21.6189 20.165C20.657 19.6438 19.6369 19.2378 18.5798 18.9556C19.098 17.1537 19.37 15.29 19.3884 13.4152H24.1899C24.1027 15.8875 23.1985 18.2612 21.6189 20.165Z" fill="#3D3D3D"/>
<path d="M12.9861 1.00098C12.5559 1.00098 12.126 1.0241 11.6983 1.07021C11.3062 1.11025 10.919 1.17593 10.537 1.25562C10.463 1.27109 10.389 1.28741 10.3151 1.30448C8.06416 1.81697 6.00879 2.96784 4.39548 4.6191C4.24546 4.77287 4.09859 4.9312 3.95497 5.09404C-0.403049 10.0972 0.119954 17.6859 5.12317 22.044C9.91309 26.2162 17.1231 25.9386 21.5781 21.4104C21.7284 21.2567 21.8752 21.0983 22.0186 20.9355C23.9418 18.7453 25.0017 15.9296 25 13.0148C25 6.37967 19.6212 1.00093 12.9861 1.00098ZM4.92929 5.21979C4.99257 5.15411 5.05824 5.09124 5.12272 5.02757C5.1972 4.95428 5.27129 4.8806 5.34738 4.80971C5.41425 4.74724 5.48313 4.68717 5.55161 4.6263C5.6289 4.55782 5.70579 4.48935 5.78508 4.42327C5.85476 4.3644 5.92644 4.30794 5.99773 4.25107C6.07782 4.187 6.15791 4.12292 6.2404 4.06125C6.31329 4.00639 6.38737 3.95313 6.46186 3.90107C6.54476 3.8418 6.62805 3.78093 6.71255 3.72567C6.78824 3.67441 6.86472 3.62475 6.94161 3.57549C7.02731 3.52063 7.11341 3.46657 7.20031 3.41531C7.27855 3.3686 7.35729 3.32265 7.43658 3.27755C7.52523 3.22709 7.61424 3.17783 7.70369 3.12978C7.78378 3.08708 7.86387 3.04528 7.94397 3.00443C8.03527 2.95838 8.12738 2.91393 8.21989 2.87028C8.29998 2.83224 8.38327 2.79419 8.46577 2.75815C8.55988 2.7181 8.65519 2.67806 8.7505 2.63801C8.83339 2.60397 8.91589 2.57074 8.99958 2.5387C9.0965 2.50186 9.19461 2.46742 9.29272 2.43298C9.37642 2.40374 9.46011 2.37451 9.54501 2.34688C9.64473 2.31484 9.74524 2.28521 9.84616 2.25597C9.93066 2.23154 10.0144 2.20632 10.0992 2.18349C10.1317 2.17508 10.1641 2.16827 10.1966 2.15986C9.0112 3.31084 8.13153 4.73928 7.63721 6.31585C6.68672 6.06516 5.76656 5.71105 4.89325 5.25983C4.90647 5.24582 4.91768 5.2318 4.92929 5.21979ZM4.35343 5.86453C5.31539 6.38573 6.33546 6.7917 7.39253 7.07392C6.87434 8.8758 6.60232 10.7395 6.584 12.6143H1.78247C1.86972 10.142 2.77381 7.76837 4.35343 5.86453ZM4.35343 20.165C2.77391 18.2611 1.86982 15.8875 1.78247 13.4152H6.584C6.60232 15.29 6.87429 17.1537 7.39253 18.9556C6.33551 19.2379 5.31544 19.6439 4.35343 20.165ZM10.0968 23.8476C10.016 23.8272 9.93226 23.8008 9.84896 23.7764C9.74764 23.7467 9.64593 23.7171 9.54581 23.6847C9.46132 23.6574 9.37802 23.6282 9.29472 23.599C9.19621 23.5649 9.0977 23.5301 9.00038 23.4928C8.91709 23.4612 8.83499 23.428 8.7525 23.3943C8.65679 23.3543 8.56108 23.3142 8.46617 23.2742C8.38447 23.2381 8.30318 23.2011 8.22229 23.1629C8.12898 23.1188 8.03607 23.074 7.94197 23.0275C7.86187 22.9875 7.78178 22.9474 7.70169 22.9038C7.61118 22.8553 7.52148 22.8056 7.43178 22.7544C7.35169 22.7099 7.2756 22.6643 7.19831 22.6178C7.11021 22.565 7.02371 22.5105 6.93721 22.4548C6.86112 22.4064 6.78503 22.3571 6.71015 22.3067C6.62485 22.249 6.54035 22.1889 6.45665 22.1289C6.38337 22.0764 6.31008 22.0239 6.238 21.9687C6.15511 21.9062 6.07381 21.8417 5.99292 21.7769C5.92204 21.7204 5.85156 21.6643 5.78228 21.6063C5.70218 21.5398 5.6249 21.4705 5.54721 21.4016C5.47913 21.3412 5.41065 21.2815 5.34417 21.2198C5.26768 21.1485 5.1936 21.0745 5.11911 21.0012C5.05464 20.9375 4.98896 20.8746 4.92569 20.8093C4.91408 20.7969 4.90286 20.7841 4.89125 20.7721C5.76451 20.3207 6.68467 19.9664 7.63521 19.7157C8.12963 21.2922 9.00924 22.7206 10.1946 23.8717C10.1621 23.8633 10.1293 23.8565 10.0968 23.8476ZM12.5857 24.1961C10.8721 23.9526 9.37001 22.1641 8.42492 19.5231C9.7913 19.2171 11.1857 19.053 12.5857 19.0333V24.1961ZM12.5857 18.2324C11.1005 18.2519 9.62155 18.4283 8.17343 18.7586C7.6706 17.0212 7.40535 15.2238 7.38492 13.4152H12.5857V18.2324ZM12.5857 12.6143H7.38492C7.4053 10.8058 7.67055 9.0083 8.17343 7.27095C9.62155 7.60118 11.1006 7.77758 12.5857 7.79716V12.6143ZM12.5857 6.99623C11.1856 6.97671 9.7913 6.81257 8.42492 6.50647C9.37001 3.86543 10.8721 2.07697 12.5857 1.83349V6.99623ZM21.6189 5.86453C23.1984 7.76842 24.1025 10.1421 24.1899 12.6143H19.3884C19.37 10.7395 19.0981 8.8758 18.5798 7.07392C19.6368 6.79155 20.6569 6.38563 21.6189 5.86453ZM15.8723 2.18149C15.9564 2.20231 16.0401 2.22874 16.1234 2.25317C16.2247 2.2828 16.3264 2.31244 16.4265 2.34487C16.511 2.37211 16.5943 2.40134 16.6776 2.43057C16.7761 2.46461 16.8747 2.49945 16.972 2.5367C17.0553 2.56833 17.1374 2.60157 17.2199 2.63521C17.3156 2.67526 17.4113 2.7153 17.5062 2.75535C17.5879 2.79139 17.6692 2.82848 17.7501 2.86668C17.8434 2.91073 17.9363 2.95558 18.0304 3.00203C18.1105 3.04208 18.1906 3.08212 18.2707 3.12577C18.3612 3.17423 18.4509 3.22389 18.5406 3.27515C18.6207 3.3196 18.6968 3.36525 18.774 3.4117C18.8621 3.46456 18.9486 3.51903 19.0351 3.57469C19.1112 3.62315 19.1873 3.6724 19.2622 3.72286C19.3475 3.78053 19.4316 3.8402 19.5153 3.90027C19.589 3.95273 19.6623 4.00559 19.7348 4.06045C19.8172 4.12252 19.8981 4.187 19.9794 4.25187C20.0499 4.30794 20.1208 4.364 20.1901 4.42247C20.2702 4.48895 20.3475 4.55822 20.4251 4.6271C20.4932 4.68757 20.5617 4.74724 20.6282 4.80891C20.7047 4.8802 20.7788 4.95428 20.8532 5.02757C20.9177 5.09124 20.9834 5.15411 21.0467 5.21939C21.0583 5.2318 21.0695 5.24462 21.0811 5.25663C20.2078 5.70805 19.2877 6.06231 18.3371 6.31305C17.8418 4.73633 16.961 3.30803 15.7746 2.15746C15.807 2.16587 15.8399 2.17268 15.8723 2.18149ZM13.3866 1.83349C15.1002 2.07697 16.6023 3.86543 17.5474 6.50647C16.1811 6.81242 14.7867 6.97656 13.3866 6.99623V1.83349ZM13.3866 7.79716C14.8718 7.77763 16.3508 7.60123 17.7989 7.27095C18.3018 9.0083 18.567 10.8058 18.5874 12.6143H13.3866V7.79716ZM13.3866 13.4152H18.5874C18.5671 15.2238 18.3018 17.0212 17.7989 18.7586C16.3508 18.4284 14.8718 18.252 13.3866 18.2324V13.4152ZM13.3866 24.1961V19.0333C14.7868 19.0528 16.1811 19.217 17.5474 19.5231C16.6023 22.1641 15.1002 23.9526 13.3866 24.1961ZM21.0431 20.8097C20.9798 20.875 20.9145 20.9379 20.85 21.0016C20.7756 21.0749 20.7011 21.1489 20.6246 21.2202C20.5581 21.2823 20.4896 21.3404 20.4215 21.4024C20.3439 21.4713 20.2666 21.5402 20.1873 21.6067C20.1172 21.6651 20.0459 21.7216 19.9746 21.7785C19.8945 21.8425 19.8144 21.9066 19.7319 21.9683C19.6591 22.0231 19.585 22.0764 19.5105 22.1285C19.4276 22.1877 19.3443 22.2486 19.2598 22.3039C19.1841 22.3551 19.1076 22.4048 19.0307 22.4536C18.945 22.5089 18.8587 22.5623 18.7716 22.6138C18.6915 22.6607 18.6151 22.7063 18.5362 22.7516C18.4475 22.802 18.3584 22.8513 18.2687 22.8994C18.1886 22.9421 18.1085 22.9839 18.0284 23.0247C17.9371 23.0708 17.845 23.1152 17.7525 23.1589C17.6724 23.1969 17.5891 23.2349 17.5066 23.271C17.4125 23.311 17.3172 23.3511 17.2219 23.3911C17.139 23.4248 17.0565 23.4584 16.9732 23.49C16.8755 23.5273 16.7773 23.5621 16.6788 23.5962C16.5955 23.6254 16.5122 23.6546 16.4277 23.6819C16.3276 23.7143 16.2275 23.7439 16.1254 23.7732C16.0417 23.798 15.9576 23.8228 15.8731 23.8456C15.8407 23.8541 15.8082 23.8609 15.7758 23.8693C16.9612 22.7183 17.8408 21.2899 18.3351 19.7133C19.2856 19.964 20.2058 20.3181 21.0791 20.7693C21.0659 20.7837 21.0547 20.7977 21.0431 20.8097ZM21.6189 20.165C20.657 19.6438 19.6369 19.2378 18.5798 18.9556C19.098 17.1537 19.37 15.29 19.3884 13.4152H24.1899C24.1027 15.8875 23.1985 18.2612 21.6189 20.165Z" stroke="#3D3D3D" stroke-width="0.4" mask="url(#path-1-outside-1_862_101117)"/>
</svg>
