<svg width="16" height="16" viewBox="0 0 16 16" fill="none" xmlns="http://www.w3.org/2000/svg">
<g clip-path="url(#clip0_1350_37456)">
<path d="M15.9736 6.14701C15.943 6.05232 15.8866 5.96809 15.8106 5.90385C15.7346 5.83961 15.6421 5.79792 15.5436 5.78351L10.6616 5.07401L8.47864 0.650012C8.42955 0.566764 8.35959 0.497764 8.27568 0.449828C8.19176 0.401892 8.09679 0.376678 8.00014 0.376678C7.9035 0.376678 7.80853 0.401892 7.72461 0.449828C7.64069 0.497764 7.57073 0.566764 7.52164 0.650012L5.33864 5.07301L0.456644 5.78351C0.358143 5.79785 0.265618 5.83946 0.189529 5.90364C0.113441 5.96782 0.0568252 6.052 0.0260824 6.14668C-0.00466045 6.24135 -0.00830388 6.34274 0.015564 6.43937C0.039432 6.53601 0.0898592 6.62404 0.161144 6.69351L3.69414 10.1365L2.86064 15C2.84379 15.0981 2.85471 15.1989 2.89217 15.291C2.92964 15.3832 2.99215 15.4631 3.07264 15.5215C3.15313 15.58 3.24838 15.6148 3.34761 15.622C3.44685 15.6291 3.5461 15.6083 3.63414 15.562L8.00014 13.2655L12.3666 15.561C12.4546 15.6073 12.5537 15.628 12.6529 15.6209C12.752 15.6137 12.8471 15.579 12.9276 15.5207C13.008 15.4624 13.0706 15.3827 13.1081 15.2907C13.1457 15.1987 13.1568 15.098 13.1401 15L12.3066 10.1375L15.8396 6.69451C15.9109 6.6249 15.9613 6.5367 15.9849 6.43992C16.0086 6.34315 16.0047 6.24167 15.9736 6.14701Z" fill="#E7AD5A"/>
</g>
<defs>
<clipPath id="clip0_1350_37456">
<rect width="16" height="16" fill="white"/>
</clipPath>
</defs>
</svg>
