<svg width="28" height="28" viewBox="0 0 28 28" fill="none" xmlns="http://www.w3.org/2000/svg">
<path d="M27.9539 10.7573C27.9003 10.5916 27.8015 10.4441 27.6685 10.3317C27.5355 10.2193 27.3737 10.1464 27.2014 10.1211L18.6579 8.87951L14.8376 1.13751C14.7517 0.99183 14.6293 0.87108 14.4824 0.787192C14.3356 0.703303 14.1694 0.65918 14.0003 0.65918C13.8311 0.65918 13.6649 0.703303 13.5181 0.787192C13.3712 0.87108 13.2488 0.99183 13.1629 1.13751L9.34263 8.87776L0.799128 10.1211C0.62675 10.1462 0.464831 10.2191 0.331677 10.3314C0.198522 10.4437 0.0994442 10.591 0.0456442 10.7567C-0.00815579 10.9224 -0.0145318 11.0998 0.0272371 11.2689C0.069006 11.438 0.157254 11.5921 0.282003 11.7136L6.46475 17.7389L5.00613 26.25C4.97662 26.4216 4.99574 26.598 5.0613 26.7593C5.12686 26.9206 5.23626 27.0603 5.37712 27.1627C5.51797 27.265 5.68466 27.3259 5.85832 27.3384C6.03198 27.3509 6.20568 27.3146 6.35975 27.2335L14.0003 23.2146L21.6416 27.2318C21.7956 27.3127 21.9691 27.349 22.1425 27.3365C22.316 27.324 22.4825 27.2633 22.6233 27.1612C22.7641 27.0591 22.8735 26.9197 22.9392 26.7587C23.005 26.5977 23.0244 26.4215 22.9953 26.25L21.5366 17.7406L27.7194 11.7154C27.8441 11.5936 27.9322 11.4392 27.9736 11.2699C28.0151 11.1005 28.0082 10.9229 27.9539 10.7573Z" fill="#E7AD5A"/>
</svg>
