<svg width="17" height="16" viewBox="0 0 17 16" fill="none" xmlns="http://www.w3.org/2000/svg">
<path d="M9.88765 2.34001L11.061 4.68668C11.221 5.01334 11.6476 5.32668 12.0076 5.38668L14.1343 5.74001C15.4943 5.96668 15.8143 6.95334 14.8343 7.92668L13.181 9.58001C12.901 9.86001 12.7476 10.4 12.8343 10.7867L13.3076 12.8333C13.681 14.4533 12.821 15.08 11.3876 14.2333L9.39431 13.0533C9.03431 12.84 8.44098 12.84 8.07431 13.0533L6.08098 14.2333C4.65431 15.08 3.78765 14.4467 4.16098 12.8333L4.63431 10.7867C4.72098 10.4 4.56765 9.86001 4.28765 9.58001L2.63431 7.92668C1.66098 6.95334 1.97431 5.96668 3.33431 5.74001L5.46098 5.38668C5.81431 5.32668 6.24098 5.01334 6.40098 4.68668L7.57431 2.34001C8.21431 1.06668 9.25431 1.06668 9.88765 2.34001Z" stroke="#3D3D3D" stroke-width="1.5" stroke-linecap="round" stroke-linejoin="round"/>
</svg>
