<svg width="20" height="20" viewBox="0 0 20 20" fill="none" xmlns="http://www.w3.org/2000/svg">
<path d="M19.9671 7.68374C19.9288 7.56538 19.8582 7.46009 19.7632 7.37979C19.6682 7.29949 19.5526 7.24738 19.4296 7.22937L13.3271 6.34249L10.5983 0.812492C10.5369 0.708432 10.4495 0.622182 10.3446 0.562262C10.2397 0.502342 10.121 0.470825 10.0002 0.470825C9.87938 0.470825 9.76066 0.502342 9.65576 0.562262C9.55087 0.622182 9.46342 0.708432 9.40206 0.812492L6.67331 6.34124L0.570806 7.22937C0.447679 7.24729 0.332022 7.29931 0.236912 7.37953C0.141802 7.45975 0.0710315 7.56498 0.032603 7.68332C-0.00582556 7.80166 -0.0103798 7.9284 0.0194551 8.04919C0.04929 8.16999 0.112324 8.28003 0.201431 8.36687L4.61768 12.6706L3.57581 18.75C3.55473 18.8726 3.56838 18.9986 3.61521 19.1138C3.66205 19.229 3.74019 19.3288 3.8408 19.4019C3.94141 19.475 4.06047 19.5185 4.18451 19.5274C4.30856 19.5364 4.43262 19.5104 4.54268 19.4525L10.0002 16.5819L15.4583 19.4512C15.5683 19.509 15.6922 19.535 15.8161 19.5261C15.94 19.5172 16.0589 19.4738 16.1595 19.4009C16.2601 19.3279 16.3382 19.2283 16.3852 19.1133C16.4321 18.9983 16.446 18.8725 16.4252 18.75L15.3833 12.6719L19.7996 8.36812C19.8886 8.2811 19.9516 8.17085 19.9812 8.04988C20.0108 7.92891 20.0059 7.80207 19.9671 7.68374Z" fill="#C2C2C2"/>
</svg>
