<svg width="60" height="60" viewBox="0 0 60 60" fill="none" xmlns="http://www.w3.org/2000/svg">
<g clip-path="url(#clip0_1493_10522)">
<path d="M26.1284 38.7096V37.7418H24.1929V31.9354C24.1929 30.866 25.059 29.9999 26.1284 29.9999V26.1289H10.6445V43.5483H21.2897H26.1284H37.7413V38.7096H26.1284Z" fill="#E7AD5A"/>
<path d="M10.6445 5.80664V23.226H26.1284V19.355L37.7413 16.4518V5.80664H10.6445Z" fill="#E7AD5A"/>
<path d="M58.3123 18.1906L43.5484 14.7174V0H5.80645C2.60419 0 0 2.60419 0 5.80645V54.1935C0 57.3958 2.60419 60 5.80645 60H43.5484V58.0645C41.4135 58.0645 39.6774 56.3284 39.6774 54.1935C39.6774 52.0587 41.4135 50.3226 43.5484 50.3226V49.3548V48.3871V37.53L55.1613 34.6268V23.1958L58.3123 22.4545C59.3061 22.2194 60 21.3435 60 20.3226C60 19.3016 59.3061 18.4258 58.3123 18.1906ZM4.83871 2.0729V48.4742C3.73355 48.661 2.73581 49.1594 1.93548 49.8774V5.80645C1.93548 4.00742 3.17323 2.50548 4.83871 2.0729ZM39.2235 58.0645H5.80645C3.67161 58.0645 1.93548 56.3284 1.93548 54.1935C1.93548 52.0587 3.67161 50.3226 5.80645 50.3226H39.2235C38.3032 51.3503 37.7419 52.7081 37.7419 54.1935C37.7419 55.679 38.3032 57.0368 39.2235 58.0645ZM6.77419 48.3871V1.93548H41.6129V14.7174L26.849 18.1906C25.8552 18.4258 25.1613 19.3016 25.1613 20.3226V25.1613H10.6452V27.0968H25.1613V29.2103C24.0377 29.611 23.2258 30.6755 23.2258 31.9355V38.7097H29.0323V31.9355C29.0323 30.6755 28.2203 29.611 27.0968 29.2103V22.5126L30 23.1958V34.6268L41.6129 37.53V48.3871H6.77419ZM27.0968 31.9355V36.7742H25.1613V31.9355C25.1613 31.4013 25.5948 30.9677 26.129 30.9677C26.6632 30.9677 27.0968 31.4013 27.0968 31.9355ZM53.2258 29.2452L51.0823 29.7813L51.5506 31.6577L53.2258 31.2387V33.1142L42.5806 35.7755L31.9355 33.1142V31.2387L42.5806 33.901L49.6055 32.1445L49.1371 30.2681L42.5806 31.9055L31.9355 29.2452V23.6516L42.5806 26.1561L53.2258 23.6516V29.2452ZM57.8681 20.5703L42.5806 24.1674L27.2932 20.5703C27.1781 20.5432 27.0968 20.4416 27.0968 20.3226C27.0968 20.2035 27.1781 20.1019 27.2932 20.0748L42.5806 16.4777L57.8681 20.0748C57.9832 20.1019 58.0645 20.2035 58.0645 20.3226C58.0645 20.4416 57.9832 20.5432 57.8681 20.5703Z" fill="#123060"/>
<path d="M21.2897 30H10.6445V31.9355H21.2897V30Z" fill="#123060"/>
<path d="M21.2897 33.8711H10.6445V35.8066H21.2897V33.8711Z" fill="#123060"/>
<path d="M21.2897 37.7422H10.6445V39.6777H21.2897V37.7422Z" fill="#123060"/>
<path d="M10.6498 43.6131L25.166 43.542L25.1565 41.6065L10.6403 41.6776L10.6498 43.6131Z" fill="#123060"/>
<path d="M27.1007 43.6108L37.7461 43.5459L37.7343 41.6104L27.0889 41.6754L27.1007 43.6108Z" fill="#123060"/>
<path d="M31.9347 53.2256H4.83789V55.1611H31.9347V53.2256Z" fill="#123060"/>
<path d="M35.8066 53.2256H33.8711V55.1611H35.8066V53.2256Z" fill="#123060"/>
</g>
<defs>
<clipPath id="clip0_1493_10522">
<rect width="60" height="60" fill="white"/>
</clipPath>
</defs>
</svg>
