<svg width="20" height="20" viewBox="0 0 20 20" fill="none" xmlns="http://www.w3.org/2000/svg">
<path d="M4.91602 1.33317V1.1665H17.5827V16.3332H17.416V3.33317C17.416 2.80274 17.2053 2.29403 16.8302 1.91896C16.4552 1.54388 15.9465 1.33317 15.416 1.33317H4.91602Z" stroke="#3D3D3D" stroke-width="1.5"/>
<path d="M15.416 2.9165H2.08268C1.97218 2.9165 1.86619 2.9604 1.78805 3.03854C1.70991 3.11668 1.66602 3.22266 1.66602 3.33317V19.1665C1.66602 19.277 1.70991 19.383 1.78805 19.4611C1.86619 19.5393 1.97218 19.5832 2.08268 19.5832H15.416C15.5265 19.5832 15.6325 19.5393 15.7106 19.4611C15.7888 19.383 15.8327 19.277 15.8327 19.1665V3.33317C15.8327 3.22266 15.7888 3.11668 15.7106 3.03854C15.6325 2.9604 15.5265 2.9165 15.416 2.9165ZM8.74935 14.5832H4.99935C4.88884 14.5832 4.78286 14.5393 4.70472 14.4611C4.62658 14.383 4.58268 14.277 4.58268 14.1665C4.58268 14.056 4.62658 13.95 4.70472 13.8719C4.78286 13.7937 4.88884 13.7498 4.99935 13.7498H8.74935C8.85986 13.7498 8.96584 13.7937 9.04398 13.8719C9.12212 13.95 9.16602 14.056 9.16602 14.1665C9.16602 14.277 9.12212 14.383 9.04398 14.4611C8.96584 14.5393 8.85986 14.5832 8.74935 14.5832ZM12.4993 11.2498H4.99935C4.88884 11.2498 4.78286 11.2059 4.70472 11.1278C4.62658 11.0497 4.58268 10.9437 4.58268 10.8332C4.58268 10.7227 4.62658 10.6167 4.70472 10.5385C4.78286 10.4604 4.88884 10.4165 4.99935 10.4165H12.4993C12.6099 10.4165 12.7158 10.4604 12.794 10.5385C12.8721 10.6167 12.916 10.7227 12.916 10.8332C12.916 10.9437 12.8721 11.0497 12.794 11.1278C12.7158 11.2059 12.6099 11.2498 12.4993 11.2498ZM12.4993 7.9165H4.99935C4.88884 7.9165 4.78286 7.87261 4.70472 7.79447C4.62658 7.71633 4.58268 7.61034 4.58268 7.49984C4.58268 7.38933 4.62658 7.28335 4.70472 7.20521C4.78286 7.12707 4.88884 7.08317 4.99935 7.08317H12.4993C12.6099 7.08317 12.7158 7.12707 12.794 7.20521C12.8721 7.28335 12.916 7.38933 12.916 7.49984C12.916 7.61034 12.8721 7.71633 12.794 7.79447C12.7158 7.87261 12.6099 7.9165 12.4993 7.9165Z" fill="#3D3D3D"/>
</svg>
