<svg width="24" height="24" viewBox="0 0 24 24" fill="none" xmlns="http://www.w3.org/2000/svg">
<path d="M8.73438 8.3291C8.58519 8.3291 8.44212 8.38837 8.33663 8.49385C8.23114 8.59934 8.17188 8.74242 8.17188 8.8916V17.8541C8.17188 18.0033 8.23114 18.1464 8.33663 18.2519C8.44212 18.3573 8.58519 18.4166 8.73438 18.4166C8.88356 18.4166 9.02663 18.3573 9.13212 18.2519C9.23761 18.1464 9.29688 18.0033 9.29688 17.8541V8.8916C9.29589 8.74272 9.23631 8.60022 9.13104 8.49494C9.02576 8.38966 8.88326 8.33008 8.73438 8.3291Z" fill="#3D3D3D"/>
<path d="M12 8.3291C11.8508 8.3291 11.7077 8.38837 11.6023 8.49385C11.4968 8.59934 11.4375 8.74242 11.4375 8.8916V17.8541C11.4375 18.0033 11.4968 18.1464 11.6023 18.2519C11.7077 18.3573 11.8508 18.4166 12 18.4166C12.1492 18.4166 12.2923 18.3573 12.3977 18.2519C12.5032 18.1464 12.5625 18.0033 12.5625 17.8541V8.8916C12.5625 8.74242 12.5032 8.59934 12.3977 8.49385C12.2923 8.38837 12.1492 8.3291 12 8.3291Z" fill="#3D3D3D"/>
<path d="M15.2656 8.3291C15.1167 8.33008 14.9742 8.38966 14.869 8.49494C14.7637 8.60022 14.7041 8.74272 14.7031 8.8916V17.8541C14.7031 18.0033 14.7624 18.1464 14.8679 18.2519C14.9734 18.3573 15.1164 18.4166 15.2656 18.4166C15.4148 18.4166 15.5579 18.3573 15.6634 18.2519C15.7689 18.1464 15.8281 18.0033 15.8281 17.8541V8.8916C15.8281 8.74242 15.7689 8.59934 15.6634 8.49385C15.5579 8.38837 15.4148 8.3291 15.2656 8.3291Z" fill="#3D3D3D"/>
<path d="M21.4273 3.9375H16.1473L15.2023 1.3125C15.1636 1.20308 15.092 1.10831 14.9973 1.04118C14.9027 0.97404 14.7896 0.937826 14.6735 0.9375H9.32602C9.20996 0.937826 9.09685 0.97404 9.00219 1.04118C8.90753 1.10831 8.83595 1.20308 8.79727 1.3125L7.85227 3.9375H2.57227C2.42308 3.9375 2.28001 3.99676 2.17452 4.10225C2.06903 4.20774 2.00977 4.35082 2.00977 4.5C2.00977 4.64918 2.06903 4.79226 2.17452 4.89775C2.28001 5.00324 2.42308 5.0625 2.57227 5.0625H3.28852L4.68727 20.3925C4.75037 21.1236 5.08629 21.8041 5.62825 22.2988C6.1702 22.7935 6.87848 23.0662 7.61227 23.0625H16.3873C17.121 23.0662 17.8293 22.7935 18.3713 22.2988C18.9132 21.8041 19.2492 21.1236 19.3123 20.3925L20.711 5.0625H21.4273C21.5765 5.0625 21.7195 5.00324 21.825 4.89775C21.9305 4.79226 21.9898 4.64918 21.9898 4.5C21.9898 4.35082 21.9305 4.20774 21.825 4.10225C21.7195 3.99676 21.5765 3.9375 21.4273 3.9375ZM9.72352 2.0625H14.276L14.951 3.9375H9.04852L9.72352 2.0625ZM18.1948 20.2875C18.1553 20.7391 17.9475 21.1593 17.6128 21.4649C17.278 21.7706 16.8406 21.9392 16.3873 21.9375H7.61227C7.15897 21.9392 6.72157 21.7706 6.38678 21.4649C6.05199 21.1593 5.84426 20.7391 5.80477 20.2875L4.42102 5.0625H19.5785L18.1948 20.2875Z" fill="#3D3D3D"/>
</svg>
