<svg width="16" height="16" viewBox="0 0 16 16" fill="none" xmlns="http://www.w3.org/2000/svg">
<g clip-path="url(#clip0_416_58140)">
<path d="M10.1624 2.18174L10.3043 2.75H10.89H14.75V3.25H1.25V2.75H5.11H5.69571L5.83765 2.18174L6.19525 0.75H9.80475L10.1624 2.18174Z" stroke="#AF1919" stroke-width="1.5"/>
<path d="M2.5 5V14C2.5 14.5304 2.71071 15.0391 3.08579 15.4142C3.46086 15.7893 3.96957 16 4.5 16H11.5C12.0304 16 12.5391 15.7893 12.9142 15.4142C13.2893 15.0391 13.5 14.5304 13.5 14V5H2.5ZM6 12.5C6 12.6326 5.94732 12.7598 5.85355 12.8536C5.75979 12.9473 5.63261 13 5.5 13C5.36739 13 5.24021 12.9473 5.14645 12.8536C5.05268 12.7598 5 12.6326 5 12.5V8.5C5 8.36739 5.05268 8.24021 5.14645 8.14645C5.24021 8.05268 5.36739 8 5.5 8C5.63261 8 5.75979 8.05268 5.85355 8.14645C5.94732 8.24021 6 8.36739 6 8.5V12.5ZM8.5 12.5C8.5 12.6326 8.44732 12.7598 8.35355 12.8536C8.25979 12.9473 8.13261 13 8 13C7.86739 13 7.74021 12.9473 7.64645 12.8536C7.55268 12.7598 7.5 12.6326 7.5 12.5V8.5C7.5 8.36739 7.55268 8.24021 7.64645 8.14645C7.74021 8.05268 7.86739 8 8 8C8.13261 8 8.25979 8.05268 8.35355 8.14645C8.44732 8.24021 8.5 8.36739 8.5 8.5V12.5ZM11 12.5C11 12.6326 10.9473 12.7598 10.8536 12.8536C10.7598 12.9473 10.6326 13 10.5 13C10.3674 13 10.2402 12.9473 10.1464 12.8536C10.0527 12.7598 10 12.6326 10 12.5V8.5C10 8.36739 10.0527 8.24021 10.1464 8.14645C10.2402 8.05268 10.3674 8 10.5 8C10.6326 8 10.7598 8.05268 10.8536 8.14645C10.9473 8.24021 11 8.36739 11 8.5V12.5Z" fill="#AF1919"/>
</g>
<defs>
<clipPath id="clip0_416_58140">
<rect width="16" height="16" fill="white"/>
</clipPath>
</defs>
</svg>
