<svg width="20" height="20" viewBox="0 0 20 20" fill="none" xmlns="http://www.w3.org/2000/svg">
<path d="M19.6099 8.875C18.2743 7.14563 14.6643 3.125 9.99995 3.125C5.2762 3.125 1.69807 7.14875 0.379947 8.875C0.132395 9.19717 -0.0012356 9.59238 8.61034e-06 9.99867C0.00125282 10.405 0.137302 10.7994 0.386822 11.12C1.7237 12.8519 5.33495 16.875 9.99995 16.875C14.6649 16.875 18.2743 12.8544 19.6087 11.1281C19.8595 10.8062 19.9958 10.4099 19.996 10.0018C19.9962 9.5937 19.8604 9.19719 19.6099 8.875ZM9.99995 13.75C9.25827 13.75 8.53324 13.5301 7.91656 13.118C7.29987 12.706 6.81923 12.1203 6.5354 11.4351C6.25157 10.7498 6.17731 9.99584 6.322 9.26841C6.4667 8.54098 6.82385 7.8728 7.3483 7.34835C7.87274 6.8239 8.54093 6.46675 9.26836 6.32206C9.99579 6.17736 10.7498 6.25162 11.435 6.53545C12.1202 6.81928 12.7059 7.29993 13.118 7.91661C13.53 8.5333 13.7499 9.25832 13.7499 10C13.7499 10.9946 13.3549 11.9484 12.6516 12.6517C11.9483 13.3549 10.9945 13.75 9.99995 13.75Z" fill="#123060"/>
</svg>
