<svg width="280" height="46" viewBox="0 0 280 46" fill="none" xmlns="http://www.w3.org/2000/svg">
<path d="M10.6761 0.880237L21.223 34.0336H21.6278L32.196 0.880237H42.4233L27.3807 44.5166H15.4915L0.427557 0.880237H10.6761ZM84.174 0.880237V44.5166H76.2053L57.2209 17.0521H56.9013V44.5166H47.6754V0.880237H55.772L74.6072 28.3234H74.9908V0.880237H84.174ZM91.7965 0.880237H103.174L115.191 30.1984H115.703L127.72 0.880237H139.098V44.5166H130.149V16.1146H129.787L118.494 44.3035H112.4L101.108 16.0081H100.745V44.5166H91.7965V0.880237ZM186.798 22.6984C186.798 27.4569 185.896 31.5052 184.092 34.8433C182.303 38.1814 179.859 40.7311 176.763 42.4925C173.68 44.2396 170.214 45.1132 166.365 45.1132C162.487 45.1132 159.007 44.2325 155.925 42.4711C152.842 40.7098 150.406 38.1601 148.616 34.822C146.827 31.4839 145.932 27.4427 145.932 22.6984C145.932 17.9399 146.827 13.8916 148.616 10.5535C150.406 7.21546 152.842 4.67285 155.925 2.92569C159.007 1.16433 162.487 0.283645 166.365 0.283645C170.214 0.283645 173.68 1.16433 176.763 2.92569C179.859 4.67285 182.303 7.21546 184.092 10.5535C185.896 13.8916 186.798 17.9399 186.798 22.6984ZM177.445 22.6984C177.445 19.616 176.983 17.0166 176.06 14.9001C175.151 12.7836 173.865 11.1785 172.203 10.0848C170.541 8.99103 168.595 8.44416 166.365 8.44416C164.135 8.44416 162.189 8.99103 160.527 10.0848C158.865 11.1785 157.572 12.7836 156.649 14.9001C155.74 17.0166 155.286 19.616 155.286 22.6984C155.286 25.7808 155.74 28.3802 156.649 30.4967C157.572 32.6132 158.865 34.2183 160.527 35.3121C162.189 36.4058 164.135 36.9527 166.365 36.9527C168.595 36.9527 170.541 36.4058 172.203 35.3121C173.865 34.2183 175.151 32.6132 176.06 30.4967C176.983 28.3802 177.445 25.7808 177.445 22.6984ZM233.732 22.6984C233.732 27.4569 232.83 31.5052 231.026 34.8433C229.236 38.1814 226.793 40.7311 223.696 42.4925C220.614 44.2396 217.148 45.1132 213.299 45.1132C209.421 45.1132 205.941 44.2325 202.858 42.4711C199.776 40.7098 197.34 38.1601 195.55 34.822C193.76 31.4839 192.865 27.4427 192.865 22.6984C192.865 17.9399 193.76 13.8916 195.55 10.5535C197.34 7.21546 199.776 4.67285 202.858 2.92569C205.941 1.16433 209.421 0.283645 213.299 0.283645C217.148 0.283645 220.614 1.16433 223.696 2.92569C226.793 4.67285 229.236 7.21546 231.026 10.5535C232.83 13.8916 233.732 17.9399 233.732 22.6984ZM224.378 22.6984C224.378 19.616 223.917 17.0166 222.993 14.9001C222.084 12.7836 220.799 11.1785 219.137 10.0848C217.475 8.99103 215.529 8.44416 213.299 8.44416C211.069 8.44416 209.123 8.99103 207.461 10.0848C205.799 11.1785 204.506 12.7836 203.583 14.9001C202.674 17.0166 202.219 19.616 202.219 22.6984C202.219 25.7808 202.674 28.3802 203.583 30.4967C204.506 32.6132 205.799 34.2183 207.461 35.3121C209.123 36.4058 211.069 36.9527 213.299 36.9527C215.529 36.9527 217.475 36.4058 219.137 35.3121C220.799 34.2183 222.084 32.6132 222.993 30.4967C223.917 28.3802 224.378 25.7808 224.378 22.6984ZM279.067 16.1572H269.735C269.565 14.9498 269.217 13.8774 268.691 12.9399C268.165 11.9882 267.491 11.1785 266.667 10.5109C265.843 9.8433 264.891 9.33194 263.812 8.97683C262.746 8.62172 261.589 8.44416 260.339 8.44416C258.08 8.44416 256.113 9.00524 254.437 10.1274C252.761 11.2354 251.461 12.8547 250.538 14.9854C249.614 17.1018 249.153 19.6729 249.153 22.6984C249.153 25.8092 249.614 28.4229 250.538 30.5393C251.475 32.6558 252.782 34.2538 254.458 35.3334C256.134 36.4129 258.073 36.9527 260.275 36.9527C261.511 36.9527 262.654 36.7893 263.705 36.4626C264.771 36.1359 265.715 35.6601 266.539 35.0351C267.363 34.3959 268.045 33.6217 268.585 32.7126C269.138 31.8035 269.522 30.7666 269.735 29.6018L279.067 29.6444C278.826 31.6473 278.222 33.5791 277.256 35.4399C276.305 37.2865 275.019 38.9413 273.4 40.4044C271.795 41.8532 269.877 43.0038 267.647 43.8561C265.431 44.6942 262.924 45.1132 260.126 45.1132C256.234 45.1132 252.754 44.2325 249.685 42.4711C246.631 40.7098 244.217 38.1601 242.441 34.822C240.68 31.4839 239.799 27.4427 239.799 22.6984C239.799 17.9399 240.694 13.8916 242.484 10.5535C244.273 7.21546 246.702 4.67285 249.771 2.92569C252.839 1.16433 256.29 0.283645 260.126 0.283645C262.654 0.283645 264.998 0.638759 267.157 1.34899C269.33 2.05921 271.255 3.09615 272.931 4.45978C274.607 5.80921 275.971 7.46404 277.022 9.42427C278.087 11.3845 278.769 13.6288 279.067 16.1572Z" fill="#123060"/>
</svg>
