<svg width="168" height="21" viewBox="0 0 168 21" fill="none" xmlns="http://www.w3.org/2000/svg">
<path d="M18.3246 1.00534C19.3473 1.50801 19.8586 2.06268 19.8586 2.66934C19.8586 2.94668 19.7286 3.36268 19.4686 3.91734L12.2926 18.4773C12.102 18.8587 11.8073 19.1707 11.4086 19.4133C11.0273 19.6387 10.6286 19.7513 10.2126 19.7513H9.95263C9.51929 19.7513 9.10329 19.6387 8.70463 19.4133C8.32329 19.1707 8.03729 18.8587 7.84663 18.4773L0.670625 3.91734C0.410625 3.36268 0.280625 2.94668 0.280625 2.66934C0.280625 2.06268 0.791958 1.50801 1.81463 1.00534C2.38663 0.710676 2.81996 0.563343 3.11463 0.563343C3.42663 0.563343 3.66063 0.59801 3.81663 0.667343C3.97263 0.736677 4.11996 0.85801 4.25863 1.03134C4.41463 1.23934 4.55329 1.47334 4.67463 1.73334C4.81329 1.97601 5.15129 2.69534 5.68863 3.89134C6.22596 5.07001 6.79796 6.32668 7.40463 7.66134C8.02863 8.99601 8.60929 10.2613 9.14663 11.4573C9.70129 12.636 10.0133 13.2947 10.0826 13.4333L15.2826 2.04534C15.4213 1.71601 15.5426 1.45601 15.6466 1.26534C15.9586 0.797343 16.34 0.563343 16.7906 0.563343C17.2413 0.563343 17.7526 0.710676 18.3246 1.00534ZM34.5919 1.52534C34.7652 1.21334 35.0166 1.00534 35.3459 0.901343C35.6752 0.797343 36.0826 0.745342 36.5679 0.745342C37.0706 0.745342 37.4692 0.788676 37.7639 0.875342C38.0759 0.962009 38.3012 1.06601 38.4399 1.18734C38.5959 1.30868 38.7086 1.49068 38.7779 1.73334C38.8819 2.01068 38.9339 2.45268 38.9339 3.05934V17.4893C38.9339 17.9053 38.9166 18.2087 38.8819 18.3993C38.8646 18.59 38.7866 18.8153 38.6479 19.0753C38.4052 19.5433 37.7292 19.7773 36.6199 19.7773C35.9439 19.7773 35.4759 19.7253 35.2159 19.6213C34.9559 19.5173 34.7392 19.3527 34.5659 19.1273C30.6659 13.9273 28.1006 10.53 26.8699 8.93534V17.4893C26.8699 17.9053 26.8526 18.2087 26.8179 18.3993C26.8006 18.59 26.7226 18.8153 26.5839 19.0753C26.3412 19.5433 25.6652 19.7773 24.5559 19.7773C23.4812 19.7773 22.8226 19.5433 22.5799 19.0753C22.4412 18.8153 22.3546 18.5813 22.3199 18.3733C22.3026 18.1653 22.2939 17.862 22.2939 17.4633V2.95534C22.2939 2.29668 22.3719 1.82001 22.5279 1.52534C22.7012 1.21334 22.9526 1.00534 23.2819 0.901343C23.6112 0.797343 24.0359 0.745342 24.5559 0.745342C25.0759 0.745342 25.4832 0.797343 25.7779 0.901343C26.0899 0.98801 26.3066 1.09201 26.4279 1.21334C26.4972 1.26534 26.6966 1.49068 27.0259 1.88934C30.6832 6.86401 33.1272 10.1487 34.3579 11.7433V2.95534C34.3579 2.29668 34.4359 1.82001 34.5919 1.52534ZM62.2608 1.44734C62.3995 1.70734 62.4775 1.94134 62.4948 2.14934C62.5295 2.35734 62.5468 2.66068 62.5468 3.05934V17.4893C62.5468 18.6853 62.2175 19.3873 61.5588 19.5953C61.2295 19.6993 60.8135 19.7513 60.3108 19.7513C59.8081 19.7513 59.4095 19.708 59.1148 19.6213C58.8201 19.5347 58.5948 19.4307 58.4388 19.3093C58.2828 19.188 58.1615 19.0147 58.0748 18.7893C57.9881 18.4947 57.9448 18.044 57.9448 17.4373V8.72734C57.5115 9.26468 56.8788 10.1227 56.0468 11.3013C55.2148 12.4627 54.6861 13.1907 54.4608 13.4853C54.2355 13.78 54.0795 13.988 53.9928 14.1093C53.9061 14.2133 53.6895 14.3693 53.3428 14.5773C53.0135 14.768 52.6495 14.8633 52.2508 14.8633C51.8695 14.8633 51.5141 14.7767 51.1848 14.6033C50.8728 14.4127 50.6475 14.2307 50.5088 14.0573L50.3008 13.7713C49.9541 13.338 49.2695 12.4193 48.2468 11.0153C47.2241 9.59401 46.6695 8.83134 46.5828 8.72734V17.4893C46.5828 17.888 46.5655 18.1913 46.5308 18.3993C46.5135 18.59 46.4355 18.8067 46.2968 19.0493C46.0368 19.5173 45.3608 19.7513 44.2688 19.7513C43.2115 19.7513 42.5528 19.5173 42.2928 19.0493C42.1541 18.8067 42.0675 18.5813 42.0328 18.3733C42.0155 18.1653 42.0068 17.8533 42.0068 17.4373V3.00734C42.0068 2.60868 42.0155 2.31401 42.0328 2.12334C42.0675 1.91534 42.1541 1.68134 42.2928 1.42134C42.5528 0.970676 43.2288 0.745342 44.3208 0.745342C44.7888 0.745342 45.1875 0.806009 45.5168 0.927343C45.8635 1.03134 46.0888 1.14401 46.1928 1.26534L46.3488 1.42134L52.2508 9.16934C55.1975 5.26934 57.1648 2.69534 58.1528 1.44734C58.4475 0.979342 59.1408 0.745342 60.2328 0.745342C61.3421 0.745342 62.0181 0.979342 62.2608 1.44734ZM74.5738 0.485343C77.1392 0.485343 79.3665 1.41268 81.2558 3.26734C83.1452 5.12201 84.0898 7.42734 84.0898 10.1833C84.0898 12.922 83.1885 15.262 81.3858 17.2033C79.5832 19.1273 77.3645 20.0893 74.7298 20.0893C72.0952 20.0893 69.8505 19.136 67.9958 17.2293C66.1585 15.3227 65.2398 13.052 65.2398 10.4173C65.2398 8.97868 65.4998 7.63534 66.0198 6.38734C66.5398 5.12201 67.2332 4.06468 68.0998 3.21534C68.9665 2.36601 69.9632 1.69868 71.0898 1.21334C72.2165 0.728009 73.3778 0.485343 74.5738 0.485343ZM69.8418 10.2873C69.8418 11.83 70.3358 13.0867 71.3238 14.0573C72.3292 15.0107 73.4472 15.4873 74.6778 15.4873C75.9085 15.4873 77.0178 15.0193 78.0058 14.0833C78.9938 13.1473 79.4878 11.8907 79.4878 10.3133C79.4878 8.73601 78.9852 7.47068 77.9798 6.51734C76.9918 5.56401 75.8825 5.08734 74.6518 5.08734C73.4212 5.08734 72.3118 5.57268 71.3238 6.54334C70.3358 7.49668 69.8418 8.74468 69.8418 10.2873ZM95.734 0.485343C98.2993 0.485343 100.527 1.41268 102.416 3.26734C104.305 5.12201 105.25 7.42734 105.25 10.1833C105.25 12.922 104.349 15.262 102.546 17.2033C100.743 19.1273 98.5247 20.0893 95.89 20.0893C93.2553 20.0893 91.0107 19.136 89.156 17.2293C87.3187 15.3227 86.4 13.052 86.4 10.4173C86.4 8.97868 86.66 7.63534 87.18 6.38734C87.7 5.12201 88.3933 4.06468 89.26 3.21534C90.1267 2.36601 91.1233 1.69868 92.25 1.21334C93.3767 0.728009 94.538 0.485343 95.734 0.485343ZM91.002 10.2873C91.002 11.83 91.496 13.0867 92.484 14.0573C93.4893 15.0107 94.6073 15.4873 95.838 15.4873C97.0687 15.4873 98.178 15.0193 99.166 14.0833C100.154 13.1473 100.648 11.8907 100.648 10.3133C100.648 8.73601 100.145 7.47068 99.14 6.51734C98.152 5.56401 97.0427 5.08734 95.812 5.08734C94.5813 5.08734 93.472 5.57268 92.484 6.54334C91.496 7.49668 91.002 8.74468 91.002 10.2873ZM119.858 14.7853L120.326 14.4473C120.915 14.1007 121.331 13.9273 121.574 13.9273C122.111 13.9273 122.692 14.4127 123.316 15.3833C123.697 15.99 123.888 16.4753 123.888 16.8393C123.888 17.2033 123.767 17.5067 123.524 17.7493C123.299 17.992 123.03 18.2087 122.718 18.3993C122.406 18.59 122.103 18.772 121.808 18.9453C121.531 19.1187 120.95 19.344 120.066 19.6213C119.182 19.8987 118.324 20.0373 117.492 20.0373C116.677 20.0373 115.845 19.9333 114.996 19.7253C114.164 19.5 113.297 19.136 112.396 18.6333C111.512 18.1133 110.715 17.4893 110.004 16.7613C109.293 16.016 108.704 15.0713 108.236 13.9273C107.785 12.766 107.56 11.5093 107.56 10.1573C107.56 8.80534 107.785 7.58334 108.236 6.49134C108.687 5.38201 109.259 4.47201 109.952 3.76134C110.663 3.03334 111.469 2.42668 112.37 1.94134C114.069 1.00534 115.776 0.537344 117.492 0.537344C118.307 0.537344 119.13 0.667343 119.962 0.927343C120.811 1.17001 121.453 1.42134 121.886 1.68134L122.51 2.04534C122.822 2.23601 123.065 2.39201 123.238 2.51334C123.689 2.87734 123.914 3.29334 123.914 3.76134C123.914 4.21201 123.732 4.68868 123.368 5.19134C122.692 6.12734 122.085 6.59534 121.548 6.59534C121.236 6.59534 120.794 6.40468 120.222 6.02334C119.494 5.43401 118.523 5.13934 117.31 5.13934C116.183 5.13934 115.074 5.52934 113.982 6.30934C113.462 6.69068 113.029 7.22801 112.682 7.92134C112.335 8.61468 112.162 9.40334 112.162 10.2873C112.162 11.154 112.335 11.934 112.682 12.6273C113.029 13.3207 113.471 13.8667 114.008 14.2653C115.065 15.028 116.166 15.4093 117.31 15.4093C117.847 15.4093 118.35 15.34 118.818 15.2013C119.303 15.0627 119.65 14.924 119.858 14.7853ZM130.627 15.4873C130.921 15.782 131.069 16.3887 131.069 17.3073V17.4113C131.069 17.8273 131.051 18.1393 131.017 18.3473C130.999 18.538 130.913 18.772 130.757 19.0493C130.497 19.552 129.838 19.8033 128.781 19.8033C127.741 19.8033 127.047 19.6387 126.701 19.3093C126.371 18.98 126.207 18.356 126.207 17.4373V17.3333C126.207 16.9347 126.215 16.6313 126.233 16.4233C126.267 16.2153 126.354 15.9813 126.493 15.7213C126.753 15.2013 127.403 14.9413 128.443 14.9413C129.5 14.9413 130.228 15.1233 130.627 15.4873ZM146.743 1.00534C147.765 1.50801 148.277 2.06268 148.277 2.66934C148.277 2.94668 148.147 3.36268 147.887 3.91734L140.711 18.4773C140.52 18.8587 140.225 19.1707 139.827 19.4133C139.445 19.6387 139.047 19.7513 138.631 19.7513H138.371C137.937 19.7513 137.521 19.6387 137.123 19.4133C136.741 19.1707 136.455 18.8587 136.265 18.4773L129.089 3.91734C128.829 3.36268 128.699 2.94668 128.699 2.66934C128.699 2.06268 129.21 1.50801 130.233 1.00534C130.805 0.710676 131.238 0.563343 131.533 0.563343C131.845 0.563343 132.079 0.59801 132.235 0.667343C132.391 0.736677 132.538 0.85801 132.677 1.03134C132.833 1.23934 132.971 1.47334 133.093 1.73334C133.231 1.97601 133.569 2.69534 134.107 3.89134C134.644 5.07001 135.216 6.32668 135.823 7.66134C136.447 8.99601 137.027 10.2613 137.565 11.4573C138.119 12.636 138.431 13.2947 138.501 13.4333L143.701 2.04534C143.839 1.71601 143.961 1.45601 144.065 1.26534C144.377 0.797343 144.758 0.563343 145.209 0.563343C145.659 0.563343 146.171 0.710676 146.743 1.00534ZM163.01 1.52534C163.183 1.21334 163.435 1.00534 163.764 0.901343C164.093 0.797343 164.501 0.745342 164.986 0.745342C165.489 0.745342 165.887 0.788676 166.182 0.875342C166.494 0.962009 166.719 1.06601 166.858 1.18734C167.014 1.30868 167.127 1.49068 167.196 1.73334C167.3 2.01068 167.352 2.45268 167.352 3.05934V17.4893C167.352 17.9053 167.335 18.2087 167.3 18.3993C167.283 18.59 167.205 18.8153 167.066 19.0753C166.823 19.5433 166.147 19.7773 165.038 19.7773C164.362 19.7773 163.894 19.7253 163.634 19.6213C163.374 19.5173 163.157 19.3527 162.984 19.1273C159.084 13.9273 156.519 10.53 155.288 8.93534V17.4893C155.288 17.9053 155.271 18.2087 155.236 18.3993C155.219 18.59 155.141 18.8153 155.002 19.0753C154.759 19.5433 154.083 19.7773 152.974 19.7773C151.899 19.7773 151.241 19.5433 150.998 19.0753C150.859 18.8153 150.773 18.5813 150.738 18.3733C150.721 18.1653 150.712 17.862 150.712 17.4633V2.95534C150.712 2.29668 150.79 1.82001 150.946 1.52534C151.119 1.21334 151.371 1.00534 151.7 0.901343C152.029 0.797343 152.454 0.745342 152.974 0.745342C153.494 0.745342 153.901 0.797343 154.196 0.901343C154.508 0.98801 154.725 1.09201 154.846 1.21334C154.915 1.26534 155.115 1.49068 155.444 1.88934C159.101 6.86401 161.545 10.1487 162.776 11.7433V2.95534C162.776 2.29668 162.854 1.82001 163.01 1.52534Z" fill="#F7F7F7"/>
</svg>
