<svg width="12" height="10" viewBox="0 0 12 10" fill="none" xmlns="http://www.w3.org/2000/svg">
<path fill-rule="evenodd" clip-rule="evenodd" d="M6.86167 0.525326C6.735 0.658659 6.66833 0.825326 6.66833 0.998659C6.66833 1.17199 6.735 1.33866 6.86167 1.47199L9.72833 4.33199L0.668333 4.33199C0.301666 4.33199 0.00166702 4.63199 0.00166702 4.99866C0.00166702 5.36533 0.301666 5.66533 0.668333 5.66533L9.72833 5.66533L6.86167 8.52533C6.60167 8.78533 6.60167 9.21199 6.86167 9.47199C7.12167 9.73199 7.54833 9.73199 7.80833 9.47199L11.8083 5.47199C11.8683 5.41199 11.915 5.33866 11.9483 5.25866C11.9617 5.22533 11.975 5.19866 11.975 5.16533C12.0083 5.05866 12.0083 4.93866 11.975 4.83199C11.975 4.79866 11.9617 4.77199 11.9483 4.73866C11.915 4.65866 11.8683 4.58533 11.8083 4.52533L7.80833 0.525326C7.54833 0.265326 7.12167 0.265326 6.86167 0.525326Z" fill="white"/>
</svg>
