<svg width="21" height="21" viewBox="0 0 21 21" fill="none" xmlns="http://www.w3.org/2000/svg">
<path d="M18.9815 17.3653L15.8898 14.2987C17.0899 12.8024 17.6711 10.9031 17.5138 8.99143C17.3566 7.07976 16.4729 5.301 15.0444 4.02088C13.616 2.74077 11.7513 2.0566 9.83392 2.10907C7.91651 2.16154 6.09208 2.94665 4.73576 4.30296C3.37945 5.65928 2.59434 7.48371 2.54187 9.40112C2.4894 11.3185 3.17357 13.1832 4.45368 14.6116C5.7338 16.0401 7.51256 16.9238 9.42423 17.081C11.3359 17.2383 13.2352 16.6571 14.7315 15.457L17.7981 18.5237C17.8756 18.6018 17.9678 18.6638 18.0693 18.7061C18.1709 18.7484 18.2798 18.7702 18.3898 18.7702C18.4998 18.7702 18.6087 18.7484 18.7103 18.7061C18.8118 18.6638 18.904 18.6018 18.9815 18.5237C19.1317 18.3683 19.2156 18.1606 19.2156 17.9445C19.2156 17.7284 19.1317 17.5207 18.9815 17.3653ZM10.0565 15.457C8.90276 15.457 7.77494 15.1149 6.81565 14.4739C5.85637 13.8329 5.10869 12.9219 4.66718 11.856C4.22567 10.7901 4.11015 9.61721 4.33523 8.48565C4.56031 7.3541 5.11588 6.3147 5.93169 5.49889C6.7475 4.68308 7.7869 4.12751 8.91845 3.90243C10.05 3.67735 11.2229 3.79287 12.2888 4.23438C13.3547 4.67589 14.2657 5.42357 14.9067 6.38285C15.5477 7.34214 15.8898 8.46996 15.8898 9.62368C15.8898 11.1708 15.2752 12.6545 14.1813 13.7485C13.0873 14.8424 11.6036 15.457 10.0565 15.457Z" fill="white"/>
</svg>
