<svg width="17" height="17" viewBox="0 0 17 17" fill="none" xmlns="http://www.w3.org/2000/svg">
<path d="M9.65327 2.69658L10.8266 5.04324C10.9866 5.36991 11.4133 5.68324 11.7733 5.74324L13.8999 6.09658C15.2599 6.32324 15.5799 7.30991 14.5999 8.28324L12.9466 9.93658C12.6666 10.2166 12.5133 10.7566 12.5999 11.1432L13.0733 13.1899C13.4466 14.8099 12.5866 15.4366 11.1533 14.5899L9.15994 13.4099C8.79994 13.1966 8.20661 13.1966 7.83994 13.4099L5.84661 14.5899C4.41994 15.4366 3.55327 14.8032 3.92661 13.1899L4.39994 11.1432C4.48661 10.7566 4.33327 10.2166 4.05327 9.93658L2.39994 8.28324C1.42661 7.30991 1.73994 6.32324 3.09994 6.09658L5.22661 5.74324C5.57994 5.68324 6.00661 5.36991 6.16661 5.04324L7.33994 2.69658C7.97994 1.42324 9.01994 1.42324 9.65327 2.69658Z" stroke="white" stroke-width="1.5" stroke-linecap="round" stroke-linejoin="round"/>
</svg>
