<svg width="168" height="21" viewBox="0 0 168 21" fill="none" xmlns="http://www.w3.org/2000/svg">
<path d="M18.434 1.228C19.4567 1.73067 19.968 2.28533 19.968 2.892C19.968 3.16933 19.838 3.58533 19.578 4.14L12.402 18.7C12.2113 19.0813 11.9167 19.3933 11.518 19.636C11.1367 19.8613 10.738 19.974 10.322 19.974H10.062C9.62867 19.974 9.21267 19.8613 8.814 19.636C8.43267 19.3933 8.14667 19.0813 7.956 18.7L0.78 4.14C0.52 3.58533 0.39 3.16933 0.39 2.892C0.39 2.28533 0.901333 1.73067 1.924 1.228C2.496 0.933332 2.92933 0.785999 3.224 0.785999C3.536 0.785999 3.77 0.820666 3.926 0.89C4.082 0.959333 4.22933 1.08067 4.368 1.254C4.524 1.462 4.66267 1.696 4.784 1.956C4.92267 2.19867 5.26067 2.918 5.798 4.114C6.33533 5.29267 6.90733 6.54933 7.514 7.884C8.138 9.21867 8.71867 10.484 9.256 11.68C9.81067 12.8587 10.1227 13.5173 10.192 13.656L15.392 2.268C15.5307 1.93867 15.652 1.67867 15.756 1.488C16.068 1.02 16.4493 0.785999 16.9 0.785999C17.3507 0.785999 17.862 0.933332 18.434 1.228ZM34.7013 1.748C34.8746 1.436 35.1259 1.228 35.4553 1.124C35.7846 1.02 36.1919 0.967999 36.6773 0.967999C37.1799 0.967999 37.5786 1.01133 37.8733 1.098C38.1853 1.18467 38.4106 1.28867 38.5493 1.41C38.7053 1.53133 38.8179 1.71333 38.8873 1.956C38.9913 2.23333 39.0433 2.67533 39.0433 3.282V17.712C39.0433 18.128 39.0259 18.4313 38.9913 18.622C38.9739 18.8127 38.8959 19.038 38.7573 19.298C38.5146 19.766 37.8386 20 36.7293 20C36.0533 20 35.5853 19.948 35.3253 19.844C35.0653 19.74 34.8486 19.5753 34.6753 19.35C30.7753 14.15 28.2099 10.7527 26.9793 9.158V17.712C26.9793 18.128 26.9619 18.4313 26.9273 18.622C26.9099 18.8127 26.8319 19.038 26.6933 19.298C26.4506 19.766 25.7746 20 24.6653 20C23.5906 20 22.9319 19.766 22.6893 19.298C22.5506 19.038 22.4639 18.804 22.4293 18.596C22.4119 18.388 22.4033 18.0847 22.4033 17.686V3.178C22.4033 2.51933 22.4813 2.04267 22.6373 1.748C22.8106 1.436 23.0619 1.228 23.3913 1.124C23.7206 1.02 24.1453 0.967999 24.6653 0.967999C25.1853 0.967999 25.5926 1.02 25.8873 1.124C26.1993 1.21067 26.4159 1.31467 26.5373 1.436C26.6066 1.488 26.8059 1.71333 27.1353 2.112C30.7926 7.08667 33.2366 10.3713 34.4673 11.966V3.178C34.4673 2.51933 34.5453 2.04267 34.7013 1.748ZM62.3702 1.67C62.5088 1.93 62.5868 2.164 62.6042 2.372C62.6388 2.58 62.6562 2.88333 62.6562 3.282V17.712C62.6562 18.908 62.3268 19.61 61.6682 19.818C61.3388 19.922 60.9228 19.974 60.4202 19.974C59.9175 19.974 59.5188 19.9307 59.2242 19.844C58.9295 19.7573 58.7042 19.6533 58.5482 19.532C58.3922 19.4107 58.2708 19.2373 58.1842 19.012C58.0975 18.7173 58.0542 18.2667 58.0542 17.66V8.95C57.6208 9.48733 56.9882 10.3453 56.1562 11.524C55.3242 12.6853 54.7955 13.4133 54.5702 13.708C54.3448 14.0027 54.1888 14.2107 54.1022 14.332C54.0155 14.436 53.7988 14.592 53.4522 14.8C53.1228 14.9907 52.7588 15.086 52.3602 15.086C51.9788 15.086 51.6235 14.9993 51.2942 14.826C50.9822 14.6353 50.7568 14.4533 50.6182 14.28L50.4102 13.994C50.0635 13.5607 49.3788 12.642 48.3562 11.238C47.3335 9.81667 46.7788 9.054 46.6922 8.95V17.712C46.6922 18.1107 46.6748 18.414 46.6402 18.622C46.6228 18.8127 46.5448 19.0293 46.4062 19.272C46.1462 19.74 45.4702 19.974 44.3782 19.974C43.3208 19.974 42.6622 19.74 42.4022 19.272C42.2635 19.0293 42.1768 18.804 42.1422 18.596C42.1248 18.388 42.1162 18.076 42.1162 17.66V3.23C42.1162 2.83133 42.1248 2.53667 42.1422 2.346C42.1768 2.138 42.2635 1.904 42.4022 1.644C42.6622 1.19333 43.3382 0.967999 44.4302 0.967999C44.8982 0.967999 45.2968 1.02867 45.6262 1.15C45.9728 1.254 46.1982 1.36667 46.3022 1.488L46.4582 1.644L52.3602 9.392C55.3068 5.492 57.2742 2.918 58.2622 1.67C58.5568 1.202 59.2502 0.967999 60.3422 0.967999C61.4515 0.967999 62.1275 1.202 62.3702 1.67ZM74.6832 0.707999C77.2486 0.707999 79.4759 1.63533 81.3652 3.49C83.2546 5.34467 84.1992 7.65 84.1992 10.406C84.1992 13.1447 83.2979 15.4847 81.4952 17.426C79.6926 19.35 77.4739 20.312 74.8392 20.312C72.2046 20.312 69.9599 19.3587 68.1052 17.452C66.2679 15.5453 65.3492 13.2747 65.3492 10.64C65.3492 9.20133 65.6092 7.858 66.1292 6.61C66.6492 5.34467 67.3426 4.28733 68.2092 3.438C69.0759 2.58867 70.0726 1.92133 71.1992 1.436C72.3259 0.950666 73.4872 0.707999 74.6832 0.707999ZM69.9512 10.51C69.9512 12.0527 70.4452 13.3093 71.4332 14.28C72.4386 15.2333 73.5566 15.71 74.7872 15.71C76.0179 15.71 77.1272 15.242 78.1152 14.306C79.1032 13.37 79.5972 12.1133 79.5972 10.536C79.5972 8.95867 79.0946 7.69333 78.0892 6.74C77.1012 5.78667 75.9919 5.31 74.7612 5.31C73.5306 5.31 72.4212 5.79533 71.4332 6.766C70.4452 7.71933 69.9512 8.96733 69.9512 10.51ZM95.8434 0.707999C98.4087 0.707999 100.636 1.63533 102.525 3.49C104.415 5.34467 105.359 7.65 105.359 10.406C105.359 13.1447 104.458 15.4847 102.655 17.426C100.853 19.35 98.634 20.312 95.9994 20.312C93.3647 20.312 91.12 19.3587 89.2654 17.452C87.428 15.5453 86.5094 13.2747 86.5094 10.64C86.5094 9.20133 86.7694 7.858 87.2894 6.61C87.8094 5.34467 88.5027 4.28733 89.3694 3.438C90.236 2.58867 91.2327 1.92133 92.3594 1.436C93.486 0.950666 94.6474 0.707999 95.8434 0.707999ZM91.1114 10.51C91.1114 12.0527 91.6054 13.3093 92.5934 14.28C93.5987 15.2333 94.7167 15.71 95.9474 15.71C97.178 15.71 98.2874 15.242 99.2754 14.306C100.263 13.37 100.757 12.1133 100.757 10.536C100.757 8.95867 100.255 7.69333 99.2494 6.74C98.2614 5.78667 97.152 5.31 95.9214 5.31C94.6907 5.31 93.5814 5.79533 92.5934 6.766C91.6054 7.71933 91.1114 8.96733 91.1114 10.51ZM119.968 15.008L120.436 14.67C121.025 14.3233 121.441 14.15 121.684 14.15C122.221 14.15 122.802 14.6353 123.426 15.606C123.807 16.2127 123.998 16.698 123.998 17.062C123.998 17.426 123.876 17.7293 123.634 17.972C123.408 18.2147 123.14 18.4313 122.828 18.622C122.516 18.8127 122.212 18.9947 121.918 19.168C121.64 19.3413 121.06 19.5667 120.176 19.844C119.292 20.1213 118.434 20.26 117.602 20.26C116.787 20.26 115.955 20.156 115.106 19.948C114.274 19.7227 113.407 19.3587 112.506 18.856C111.622 18.336 110.824 17.712 110.114 16.984C109.403 16.2387 108.814 15.294 108.346 14.15C107.895 12.9887 107.67 11.732 107.67 10.38C107.67 9.028 107.895 7.806 108.346 6.714C108.796 5.60467 109.368 4.69467 110.062 3.984C110.772 3.256 111.578 2.64933 112.48 2.164C114.178 1.228 115.886 0.76 117.602 0.76C118.416 0.76 119.24 0.89 120.072 1.15C120.921 1.39267 121.562 1.644 121.996 1.904L122.62 2.268C122.932 2.45867 123.174 2.61467 123.348 2.736C123.798 3.1 124.024 3.516 124.024 3.984C124.024 4.43467 123.842 4.91133 123.478 5.414C122.802 6.35 122.195 6.818 121.658 6.818C121.346 6.818 120.904 6.62733 120.332 6.246C119.604 5.65667 118.633 5.362 117.42 5.362C116.293 5.362 115.184 5.752 114.092 6.532C113.572 6.91333 113.138 7.45067 112.792 8.144C112.445 8.83733 112.272 9.626 112.272 10.51C112.272 11.3767 112.445 12.1567 112.792 12.85C113.138 13.5433 113.58 14.0893 114.118 14.488C115.175 15.2507 116.276 15.632 117.42 15.632C117.957 15.632 118.46 15.5627 118.928 15.424C119.413 15.2853 119.76 15.1467 119.968 15.008ZM130.736 15.71C131.031 16.0047 131.178 16.6113 131.178 17.53V17.634C131.178 18.05 131.161 18.362 131.126 18.57C131.109 18.7607 131.022 18.9947 130.866 19.272C130.606 19.7747 129.947 20.026 128.89 20.026C127.85 20.026 127.157 19.8613 126.81 19.532C126.481 19.2027 126.316 18.5787 126.316 17.66V17.556C126.316 17.1573 126.325 16.854 126.342 16.646C126.377 16.438 126.463 16.204 126.602 15.944C126.862 15.424 127.512 15.164 128.552 15.164C129.609 15.164 130.337 15.346 130.736 15.71ZM146.852 1.228C147.875 1.73067 148.386 2.28533 148.386 2.892C148.386 3.16933 148.256 3.58533 147.996 4.14L140.82 18.7C140.629 19.0813 140.335 19.3933 139.936 19.636C139.555 19.8613 139.156 19.974 138.74 19.974H138.48C138.047 19.974 137.631 19.8613 137.232 19.636C136.851 19.3933 136.565 19.0813 136.374 18.7L129.198 4.14C128.938 3.58533 128.808 3.16933 128.808 2.892C128.808 2.28533 129.319 1.73067 130.342 1.228C130.914 0.933332 131.347 0.785999 131.642 0.785999C131.954 0.785999 132.188 0.820666 132.344 0.89C132.5 0.959333 132.647 1.08067 132.786 1.254C132.942 1.462 133.081 1.696 133.202 1.956C133.341 2.19867 133.679 2.918 134.216 4.114C134.753 5.29267 135.325 6.54933 135.932 7.884C136.556 9.21867 137.137 10.484 137.674 11.68C138.229 12.8587 138.541 13.5173 138.61 13.656L143.81 2.268C143.949 1.93867 144.07 1.67867 144.174 1.488C144.486 1.02 144.867 0.785999 145.318 0.785999C145.769 0.785999 146.28 0.933332 146.852 1.228ZM163.119 1.748C163.293 1.436 163.544 1.228 163.873 1.124C164.203 1.02 164.61 0.967999 165.095 0.967999C165.598 0.967999 165.997 1.01133 166.291 1.098C166.603 1.18467 166.829 1.28867 166.967 1.41C167.123 1.53133 167.236 1.71333 167.305 1.956C167.409 2.23333 167.461 2.67533 167.461 3.282V17.712C167.461 18.128 167.444 18.4313 167.409 18.622C167.392 18.8127 167.314 19.038 167.175 19.298C166.933 19.766 166.257 20 165.147 20C164.471 20 164.003 19.948 163.743 19.844C163.483 19.74 163.267 19.5753 163.093 19.35C159.193 14.15 156.628 10.7527 155.397 9.158V17.712C155.397 18.128 155.38 18.4313 155.345 18.622C155.328 18.8127 155.25 19.038 155.111 19.298C154.869 19.766 154.193 20 153.083 20C152.009 20 151.35 19.766 151.107 19.298C150.969 19.038 150.882 18.804 150.847 18.596C150.83 18.388 150.821 18.0847 150.821 17.686V3.178C150.821 2.51933 150.899 2.04267 151.055 1.748C151.229 1.436 151.48 1.228 151.809 1.124C152.139 1.02 152.563 0.967999 153.083 0.967999C153.603 0.967999 154.011 1.02 154.305 1.124C154.617 1.21067 154.834 1.31467 154.955 1.436C155.025 1.488 155.224 1.71333 155.553 2.112C159.211 7.08667 161.655 10.3713 162.885 11.966V3.178C162.885 2.51933 162.963 2.04267 163.119 1.748Z" fill="white"/>
</svg>
