<svg width="24" height="24" viewBox="0 0 24 24" fill="none" xmlns="http://www.w3.org/2000/svg">
<path d="M3.51562 5.67188C3.90395 5.67188 4.21875 5.35708 4.21875 4.96875C4.21875 4.58042 3.90395 4.26562 3.51562 4.26562C3.1273 4.26562 2.8125 4.58042 2.8125 4.96875C2.8125 5.35708 3.1273 5.67188 3.51562 5.67188Z" fill="white"/>
<path d="M6.32812 5.67188C6.71645 5.67188 7.03125 5.35708 7.03125 4.96875C7.03125 4.58042 6.71645 4.26562 6.32812 4.26562C5.9398 4.26562 5.625 4.58042 5.625 4.96875C5.625 5.35708 5.9398 5.67188 6.32812 5.67188Z" fill="white"/>
<path d="M9.14062 5.67188C9.52895 5.67188 9.84375 5.35708 9.84375 4.96875C9.84375 4.58042 9.52895 4.26562 9.14062 4.26562C8.7523 4.26562 8.4375 4.58042 8.4375 4.96875C8.4375 5.35708 8.7523 5.67188 9.14062 5.67188Z" fill="white"/>
<path d="M9.1612 14.5367C9.58603 14.0439 9.84375 13.4032 9.84375 12.7031C9.84375 11.1523 8.58206 9.89062 7.03125 9.89062C5.48044 9.89062 4.21875 11.1523 4.21875 12.7031C4.21875 13.4032 4.47647 14.0439 4.9013 14.5367C3.66216 15.1765 2.8125 16.469 2.8125 17.957V19.0312C2.8125 19.4196 3.12731 19.7344 3.51562 19.7344H10.5469C10.9352 19.7344 11.25 19.4196 11.25 19.0312V17.957C11.25 16.469 10.4003 15.1765 9.1612 14.5367ZM7.03125 11.2969C7.80666 11.2969 8.4375 11.9277 8.4375 12.7031C8.4375 13.4785 7.80666 14.1094 7.03125 14.1094C6.25584 14.1094 5.625 13.4785 5.625 12.7031C5.625 11.9277 6.25584 11.2969 7.03125 11.2969ZM9.84375 18.3281H4.21875V17.957C4.21875 16.6108 5.31394 15.5156 6.66009 15.5156H7.40241C8.74856 15.5156 9.84375 16.6108 9.84375 17.957V18.3281Z" fill="white"/>
<path d="M21.8906 1.45312H2.10938C0.946266 1.45312 0 2.39939 0 3.5625C0 3.78305 0 20.2129 0 20.4375C0 21.6006 0.946266 22.5469 2.10938 22.5469H21.8906C23.0537 22.5469 24 21.6006 24 20.4375C24 20.2129 24 3.78305 24 3.5625C24 2.39939 23.0537 1.45312 21.8906 1.45312ZM22.5938 20.4375C22.5938 20.8252 22.2783 21.1406 21.8906 21.1406H2.10938C1.72167 21.1406 1.40625 20.8252 1.40625 20.4375V8.48438H22.5938V20.4375ZM22.5938 7.07812H1.40625V3.5625C1.40625 3.1748 1.72167 2.85938 2.10938 2.85938H21.8906C22.2783 2.85938 22.5938 3.1748 22.5938 3.5625V7.07812Z" fill="white"/>
<path d="M20.4844 15.5156H13.3594C12.9711 15.5156 12.6562 15.8304 12.6562 16.2188C12.6562 16.6071 12.9711 16.9219 13.3594 16.9219H20.4844C20.8727 16.9219 21.1875 16.6071 21.1875 16.2188C21.1875 15.8304 20.8727 15.5156 20.4844 15.5156Z" fill="white"/>
<path d="M20.4844 18.3281H13.3594C12.9711 18.3281 12.6562 18.6429 12.6562 19.0312C12.6562 19.4196 12.9711 19.7344 13.3594 19.7344H20.4844C20.8727 19.7344 21.1875 19.4196 21.1875 19.0312C21.1875 18.6429 20.8727 18.3281 20.4844 18.3281Z" fill="white"/>
<path d="M20.4844 9.89062H13.3594C12.9711 9.89062 12.6562 10.2054 12.6562 10.5938V13.4062C12.6562 13.7946 12.9711 14.1094 13.3594 14.1094H20.4844C20.8727 14.1094 21.1875 13.7946 21.1875 13.4062V10.5938C21.1875 10.2054 20.8727 9.89062 20.4844 9.89062ZM19.7812 12.7031H14.0625V11.2969H19.7812V12.7031Z" fill="white"/>
</svg>
