<svg width="28" height="28" viewBox="0 0 28 28" fill="none" xmlns="http://www.w3.org/2000/svg">
<path d="M4.10156 6.61719C4.55461 6.61719 4.92188 6.24992 4.92188 5.79688C4.92188 5.34383 4.55461 4.97656 4.10156 4.97656C3.64852 4.97656 3.28125 5.34383 3.28125 5.79688C3.28125 6.24992 3.64852 6.61719 4.10156 6.61719Z" fill="#123060"/>
<path d="M7.38281 6.61719C7.83586 6.61719 8.20312 6.24992 8.20312 5.79688C8.20312 5.34383 7.83586 4.97656 7.38281 4.97656C6.92977 4.97656 6.5625 5.34383 6.5625 5.79688C6.5625 6.24992 6.92977 6.61719 7.38281 6.61719Z" fill="#123060"/>
<path d="M10.6641 6.61719C11.1171 6.61719 11.4844 6.24992 11.4844 5.79688C11.4844 5.34383 11.1171 4.97656 10.6641 4.97656C10.211 4.97656 9.84375 5.34383 9.84375 5.79688C9.84375 6.24992 10.211 6.61719 10.6641 6.61719Z" fill="#123060"/>
<path d="M10.6881 16.9595C11.1837 16.3845 11.4844 15.6371 11.4844 14.8203C11.4844 13.011 10.0124 11.5391 8.20312 11.5391C6.39384 11.5391 4.92188 13.011 4.92188 14.8203C4.92188 15.6371 5.22255 16.3845 5.71818 16.9595C4.27252 17.7059 3.28125 19.2138 3.28125 20.9498V22.2031C3.28125 22.6562 3.64853 23.0234 4.10156 23.0234H12.3047C12.7577 23.0234 13.125 22.6562 13.125 22.2031V20.9498C13.125 19.2138 12.1337 17.7059 10.6881 16.9595ZM8.20312 13.1797C9.10777 13.1797 9.84375 13.9157 9.84375 14.8203C9.84375 15.725 9.10777 16.4609 8.20312 16.4609C7.29848 16.4609 6.5625 15.725 6.5625 14.8203C6.5625 13.9157 7.29848 13.1797 8.20312 13.1797ZM11.4844 21.3828H4.92188V20.9498C4.92188 19.3793 6.19959 18.1016 7.77011 18.1016H8.63614C10.2067 18.1016 11.4844 19.3793 11.4844 20.9498V21.3828Z" fill="#123060"/>
<path d="M25.5391 1.69531H2.46094C1.10398 1.69531 0 2.79929 0 4.15625C0 4.41355 0 23.5817 0 23.8438C0 25.2007 1.10398 26.3047 2.46094 26.3047H25.5391C26.896 26.3047 28 25.2007 28 23.8438C28 23.5817 28 4.41355 28 4.15625C28 2.79929 26.896 1.69531 25.5391 1.69531ZM26.3594 23.8438C26.3594 24.2961 25.9914 24.6641 25.5391 24.6641H2.46094C2.00862 24.6641 1.64062 24.2961 1.64062 23.8438V9.89844H26.3594V23.8438ZM26.3594 8.25781H1.64062V4.15625C1.64062 3.70393 2.00862 3.33594 2.46094 3.33594H25.5391C25.9914 3.33594 26.3594 3.70393 26.3594 4.15625V8.25781Z" fill="#123060"/>
<path d="M23.8984 18.1016H15.5859C15.1329 18.1016 14.7656 18.4688 14.7656 18.9219C14.7656 19.3749 15.1329 19.7422 15.5859 19.7422H23.8984C24.3515 19.7422 24.7188 19.3749 24.7188 18.9219C24.7188 18.4688 24.3515 18.1016 23.8984 18.1016Z" fill="#123060"/>
<path d="M23.8984 21.3828H15.5859C15.1329 21.3828 14.7656 21.7501 14.7656 22.2031C14.7656 22.6562 15.1329 23.0234 15.5859 23.0234H23.8984C24.3515 23.0234 24.7188 22.6562 24.7188 22.2031C24.7188 21.7501 24.3515 21.3828 23.8984 21.3828Z" fill="#123060"/>
<path d="M23.8984 11.5391H15.5859C15.1329 11.5391 14.7656 11.9063 14.7656 12.3594V15.6406C14.7656 16.0937 15.1329 16.4609 15.5859 16.4609H23.8984C24.3515 16.4609 24.7188 16.0937 24.7188 15.6406V12.3594C24.7188 11.9063 24.3515 11.5391 23.8984 11.5391ZM23.0781 14.8203H16.4062V13.1797H23.0781V14.8203Z" fill="#123060"/>
</svg>
